/* XPM */
static char *_4345cca61e746c3ffca8a5a272e84b6EiOQ0MBeO9NVhv9A[] = {
/* columns rows colors chars-per-pixel */
"64 64 247 2 ",
"   c None",
".  c #351107",
"X  c #66021D",
"o  c #573224",
"O  c #631B1C",
"+  c #7D5434",
"@  c #7C593B",
"#  c #735133",
"$  c #754E30",
"%  c #614E44",
"&  c #7C5F56",
"*  c #A41E18",
"=  c #AF221C",
"-  c #993827",
";  c #B33A33",
":  c #872517",
">  c #D31F1D",
",  c #D3291D",
"<  c #CA2723",
"1  c #D72A23",
"2  c #D53824",
"3  c #C73B2D",
"4  c #E63226",
"5  c #F4332A",
"6  c #FB342D",
"7  c #FA392E",
"8  c #EC3129",
"9  c #87542D",
"0  c #835634",
"q  c #8A5631",
"w  c #8D5935",
"e  c #855B3A",
"r  c #915D3A",
"t  c #995A37",
"y  c #894929",
"u  c #AB503A",
"i  c #9A643D",
"p  c #95623A",
"a  c #8F603A",
"s  c #A3673D",
"d  c #B87E39",
"f  c #D95B1B",
"g  c #DB771A",
"h  c #D54636",
"j  c #CA5035",
"k  c #F74437",
"l  c #EE5134",
"z  c #C77C3C",
"x  c #8B5F41",
"c  c #A55645",
"v  c #B55A43",
"b  c #8B684A",
"n  c #9C6A43",
"m  c #936A4B",
"M  c #966744",
"N  c #8E714F",
"B  c #937553",
"V  c #9B7755",
"C  c #9A6E4E",
"Z  c #A66C44",
"A  c #A66847",
"S  c #AC7145",
"D  c #A5734D",
"F  c #AB744A",
"G  c #A9774A",
"H  c #B4754B",
"J  c #B3794D",
"K  c #B97B4D",
"L  c #B07447",
"P  c #AC7752",
"I  c #AD7B52",
"U  c #A47957",
"Y  c #B37D53",
"T  c #BB7E51",
"R  c #B87E5A",
"E  c #B56041",
"W  c #D65549",
"Q  c #F45642",
"!  c #F37456",
"~  c #F16B53",
"^  c #D0664E",
"/  c #DE8518",
"(  c #DF971E",
")  c #E5881B",
"_  c #E89A17",
"`  c #E7A617",
"'  c #ECB613",
"]  c #EEB70F",
"[  c #E78C27",
"{  c #E4A434",
"}  c #F2D10F",
"|  c #9C835B",
" . c #BA824D",
".. c #AB8259",
"X. c #B48255",
"o. c #BC8255",
"O. c #B4835A",
"+. c #BB855A",
"@. c #B4895E",
"#. c #BB8A5C",
"$. c #BE8852",
"%. c #AE8263",
"&. c #B38562",
"*. c #B58B64",
"=. c #BC8C62",
"-. c #B68967",
";. c #BE9266",
":. c #B4946C",
">. c #BD946A",
",. c #BA9876",
"<. c #BF8E72",
"1. c #A89475",
"2. c #C2824E",
"3. c #C28455",
"4. c #C48956",
"5. c #C28659",
"6. c #C38B5C",
"7. c #CA8C5A",
"8. c #CA8955",
"9. c #D18D58",
"0. c #CC915D",
"q. c #D3925E",
"w. c #DD965D",
"e. c #E59C5E",
"r. c #C38E62",
"t. c #CB8F67",
"y. c #C59264",
"u. c #CC9464",
"i. c #C2946C",
"p. c #CD9B6A",
"a. c #C99969",
"s. c #D39562",
"d. c #D49A65",
"f. c #DA9A64",
"g. c #D49D6B",
"h. c #DB9D6A",
"j. c #D39568",
"k. c #C89A73",
"l. c #DA9D71",
"z. c #D98D68",
"x. c #E39C62",
"c. c #E89D66",
"v. c #F19A6F",
"b. c #D4A26D",
"n. c #DCA26D",
"m. c #DCAA6A",
"M. c #CDA373",
"N. c #CAA679",
"B. c #D3A474",
"V. c #DCA573",
"C. c #D6AA74",
"Z. c #DCAA74",
"A. c #D4AA7B",
"S. c #DCAC7B",
"D. c #D5A67B",
"F. c #DCB27C",
"G. c #D9B57B",
"H. c #CFA46F",
"J. c #E2A46C",
"K. c #EBA66D",
"L. c #E8A86C",
"P. c #E4A472",
"I. c #E3AB74",
"U. c #EBAD74",
"Y. c #E4AE7A",
"T. c #E8AA78",
"R. c #F2AD74",
"E. c #ECB075",
"W. c #E4B27B",
"Q. c #EBB47B",
"!. c #EDB97E",
"~. c #E0B57B",
"^. c #F2B47C",
"/. c #F4B97D",
"(. c #F9B87E",
"). c #F0AC6F",
"_. c #F9C97F",
"`. c #BEAB96",
"'. c #BDA085",
"]. c #B8A69E",
"[. c #C8A781",
"{. c #D4AB85",
"}. c #DAB786",
"|. c #D5B78E",
" X c #E4B482",
".X c #EBB583",
"XX c #E4BB83",
"oX c #EDBB84",
"OX c #EDBC89",
"+X c #E7BC8A",
"@X c #F3BC83",
"#X c #FABD82",
"$X c #F2BE8B",
"%X c #FBBD8A",
"&X c #F7B483",
"*X c #E3BC91",
"=X c #F2AE81",
"-X c #DBC798",
";X c #D7C189",
":X c #EDC286",
">X c #E5C489",
",X c #ECC38A",
"<X c #ECC98C",
"1X c #E7C487",
"2X c #F3C286",
"3X c #FBC486",
"4X c #F4C38B",
"5X c #FCC58C",
"6X c #F2CB8D",
"7X c #FDCA8D",
"8X c #F8C880",
"9X c #F8D18C",
"0X c #E9C995",
"qX c #FBC690",
"wX c #F4CD92",
"eX c #FCCC92",
"rX c #F4CE9E",
"tX c #EDD699",
"yX c #F4D395",
"uX c #FCD395",
"iX c #FCDB95",
"pX c #F4D59B",
"aX c #FCD499",
"sX c #F5DB9B",
"dX c #FCDC9C",
"fX c #F7D994",
"gX c #E6D285",
"hX c #F7E19E",
"jX c #FCE29E",
"kX c #F3D4A1",
"lX c #FDDEA1",
"zX c #F6DAA9",
"xX c #EED8B4",
"cX c #F8CFA2",
"vX c #F7E3A2",
"bX c #FDE4A3",
"nX c #FDEBA5",
"mX c #FDECAA",
"MX c #F9E2AA",
"NX c #FEF2AC",
"BX c #F8E8B4",
"VX c #FDF4B3",
"CX c #FEFBB5",
"ZX c #FDF8B9",
"AX c #FDF7C3",
"SX c #F5F4EB",
"DX c #E5D1C3",
/* pixels */
"                                                                      MXtX+X{.                                                  ",
"                                                                    xXkXyXyXQ.b.[.                                              ",
"                                                                        pXaX6XY.u.k.-.                                          ",
"                                                                        pXjX6X!.b.6.F                                           ",
"                                                                      kXvXbXeX@XY.u.J                                           ",
"                                                                  pXnXmXmXdX7X2XQ.n.5.U                                         ",
"                                                            BXMXnXVXCXNXbXiX7X3X/.I.t.F                                         ",
"                  VXmXlXzX                                VXCXVXVXCXCXNXlXdXuX5XoXI.0.K D                                       ",
"                MXjXnXjXjXdXzX                          aXnXmXmXnXnXbXyX4X:X!.!.Y.n.q.K S U                                     ",
"            BXbXdXaXaX2X7XjXdXaX                        xXDX*X-.D.{.=.X.Y S M P b.P.s.T H i                                     ",
"          BXNXjXaXiXaXaX4X2XeX7X@X                      SX`.'.[.SXSXDX& . . o oX@XP.s.K H S                                     ",
"        zXnXdXaX7X^.3XeXaX5XE.).).                  -XtXgXC.iXiX-X% % ].o o }.4XE.c.7.K H S M                                   ",
"      pXlXbXuXaXaX7XE.^.#X3X(.w.K.          zXBXvXyXdXjXbXjXjXdXrX{.1.].B S.3X&XU.s.3.L L S m                                   ",
"    kXbXmXiX^.(.7XuX7XJ.h.U.L.e.c.        l.c c Y.eXqXuXiXaXiXuXeX6XXXS.T.T.U.K.f.3.K d.d. .;.                                  ",
"    aXaXeXeX7XI.J.E.#X(.q.8.x.9.8.y.      j.X X X A !.4XeXeXqXqX4X2XOXOXY.I.h.s.3.T m.L s s o.                                  ",
"  *X4X.XY.Y.2X7X/.h.d.x.J.2.e.4.7.f.V.    zXi.R k.i.k.Z.Q.@X4X4X2XOX X.X X XZ.r.7.m.S y p  .X.                                  ",
"  D.D.A.=.+.a.Y./.U.8.9.e.K 9.e.x.e.V.    Y.I.Z.T.Q.@X5X5X@XY.I.S.Z.F.S.Z.C.Z.B.a.K 9 9 G T                                     ",
"  B.=.;.@.Y D X.u.J.e.8.2.S q.c.J.S.      wX#X#X5X7XeX7X7X7X2X^.Y.I.b.p.p.H.Z.B.@.d J 4.Z A                                     ",
"  {.d.#...X.Y U X.q.K F F F o.O.            eX3X3X7X7X7X7X7X7X3X^.U.T.n.h.j.y.#.#.i s : : - D U                                 ",
"  }.n.~.C.H.a.y.=.$.I K o.$.5.o.-.        O.5X7X7X3X7X7X7X7X3X#X^.U.L.n.d.0.6.G.G.r.v * * t S J Y J P &.                        ",
"    n.!.1X1X1X1XgX}.B.u.6.5.$.o.P H J J K K V.3X7X3X7X7X5X3X/.^.U.L.J.f.q.m.vXNXNXbX=Xz.g.k.y.u.j.d.h.d.r.                      ",
"    g.Y.6XyXfXsXhXhX<X~.n.u.6.o.Y 5.6.5.5.3.4.(.3X3X3X3X3X_./.U.L.J.d.q.gXjXjXnXjXeXeX4X<XpXeX.X!.oXoXoXQ.g.                    ",
"    y.d.:XyXfXhXnXvXtX!.I.b.u.+.u.j.j.s.u.8.3.Z._.#X#X#X(.(.).L.J.q.7._.jXjXnXnXlXuX7X4X$XOX.XOX4XeXeXeXwX:XS.                  ",
"      +.Z.<XfXhXvXhXyX1X~.d.6.F.~.W.I.h.s.u.tXNXjX(.(.R.R.K.J.w.9.4. .9XjXnXbXmXnXdXeXqX4XOXOXOX+XsXvXvXlXvXdX0X*X              ",
"      -.7.Y.<XsXvXsX<X1Xb.y.1XsXhXwX.Xh.b.mXCXZXv.l E.L.x.w.9.2. .K  .sXiXiXnXnXbXaXaX4X4X4X2X,XOX~.V.b.g.B.A.G.1X,X*X          ",
"        =.7.I.<XyX<X~.b.B.wXvXNXbXyXQ.I.vXCXCXZX~ h kX,XC.#.F D s t V.7XiXnXbXjXlXeXqX5X4XqXqXqX$XOX4X6X4X2X@XW.b.V.W. X        ",
"          -.6.g.Z.Z.F.1XtXmXNXmXlX<XS.sXCXCXCXCX! 7 Q Q ! &X$Xv.l 6 v.iXjXjXjXnXbXaXqX4X4XqXqX4X4X4XeXeXyXyXuXqX6XoXQ.T.Y.      ",
"            ,.=.0.g.~.<XdXvXvXdXfXoXoXNXCXCXCXmXwX7 7 7 6 8 6 6 2 u I.dX_.9XNXbXaXeXqXeXeXqXqX4XqXwXwXuXpXaXaXpXuXeX2X^.Q.Y.    ",
"                ..+.u.Y.2XqXwX5X4XT.aXmXmXmXmXbXdXk 7 1 = ; v R }.wX5X_.jXNXjXeX4XOX4XqXqXqX4X4XeXeXaXpXsXdXdXdXpXuXwXqX&XT.S.  ",
"                    &.O.u.I.Q.&X^.P.lXlXMXlXdXaXeXl < - x A.lXlXaXwX_.jXjX7X2XoX XF. X4X,X2X4X6XwXwXpXdXdXhXhXsXaXpXaXwX2XY.g.  ",
"                        %.Y o.u.g.h.qXeXaXeXeX5X! 6 - @ -.aXeXeXeXqX5X3X~.B.A.B.D.A.{. X X+X.XOX4XwXyXdXlXvXvXdXdXaXaXqX$XY.u.i.",
"                              %.&.&.%X%X%X%X&X~ 6 1 e # g.qXqXqX%X&XV.b.O.G ;.i.k.B.B.M.M.D.S.}.+X,X6XpXsXvXsXsXdXpXwX6XoXS.t.r.",
"                                      l.D.! 7 6 6 j b # R &X&X&X=XT.j.U I I #.U @.;.;.;.;.>.i.b.C.F.XX<XwXpXpXaXyXyX6XOXZ.p.6.o.",
"                                      ~ k 6 6 6 j J.m @ 0 P.P.P.l.z.r.Y n n n p n D I X.o.O.+.r.u.p.B.S.XX+X1X<X,X,X XC.p.t.5.3.",
"                  j h h f w.{ { l 5 6 6 6 6 5 W 4X XN N x t.j.t.5.R D n r w w w q w r p C k.  +.r.y.i.p.M.C.C.S.C.V.B.a.t.r.+.o.",
"          W h < f g ' ` _ ` ' ) ) l 5 8 8 8 ^ wXbXN.B N | pX5XQ.j.5.p w q q q q q q 9 e         +.+.r.u.y.u.y.a.a.u.y.t.r.6.+.i.",
"          3 > > 1 ) / _ _ _ ` ` ) _ 4 4 3 z.lXnXbX:.N B ,.NXNXvXqX.XF q q q q q 9 9 e             Y o.6.#.r.r.r.r.r.r.6.5.+.>.  ",
"            W > > ` g ` } ' ' ] ] ) 2 ;   0XlXmXvX| N B }.VXnXnXaX&XK q q 9 9 q 0 b                 -.R o.+.5.3.5.+.$.r.        ",
"                u g / ` g 2 , 2 j d     BX0XsXbXtX| N B ;XmXmXlXeX%XJ q q q q q 0                         *.+.=.=.i.            ",
"                    z 2 > < ;     AXVXmXhX}. XzX0XV N B }.nXbXlXeX&XS q q w q w w V                                             ",
"                                VXNXmXsX6XZ.#.<X}...b N [.dXlXeX%XP.c e w i #.#.X.G G                                           ",
"                              VXVXnXsX6X,Xm.$.@.N.%.B B i.qX%X$XT.r.r w X.G.gX0X~.b.5.J -.                                      ",
"                            ZXVXmXhXyX2XQ.L.u.J n C C V U P.T.l.5.Z w Y }.sXvXhXyX,Xm.5.J :.                                    ",
"                            VXNXvXyX:XQ.U.I.s.3.M 0 M n C Y R P M r i b.wXvXnXvXhXyX:Xg.o.F -.                                  ",
"                            VXmXdX,XQ.Q.U.h.s.7.J p + $ + + e q q q F Z.4XsXvXvXjXsX4XW.s.K F                                   ",
"                            ZXvXyX/.E.U.J.f.s.7.5.F r + $ @ 0 x w w  .S.:X6XfXhXsXfXyX!.Z.4.F                                   ",
"                              vXyX!.E.U.J.f.0.7.o.J r 0           C F n.!.2XyXsXsXsXwX:XW.q.J ..                                ",
"                              MXyX!.U.U.n.3.J S Z p r 0 @             @.g.W.4XyXsXfXyX,X!.f.X.I                                 ",
"                                  oXQ.U.J.s.7.T L Z i r q                 {.oX6XyXyXyX4XQ.h.4.P                                 ",
"                                    oXU.P.h.7.8.T K Z s p M                 Q.@XwXyX6XoXQ.J.5.P                                 ",
"                                        Y.h.s.8.3.T H S Z D                 Q.oX<X6XwXoXQ.P.6.P                                 ",
"                                          Y.h.g.j.7.7.T F Z                 OXQ./.,X2XoXQ.m.7.R                                 ",
"                                    lXpXcX$X.X+X.XY.Z.g.Y F X.                Q.!.oX2X!.W.J.7.O.                                ",
"                                mXjX7XeXeX%X$X$X$X$X6XXXy.Y P @.                I.Q.!.Q.U.J.6.&.                                ",
"                              AXNXaXqXqXeXqX%X%X5XuXnXsXA.O.I O.                ~.!.@X:XQ.m.0.I &.                              ",
"                              BXdXeX%XeXaXeX5X%XqXaXnXjXS.@.+.=.              wX2X6X9X5X2X!.V.a.y.+.*.                          ",
"                              aX2XS.>.oXeX4X.X.XQ.(.bXwXk.+.;.,.            kXeXuXjXjXiXuX7X:X!.~.C.M.a.{.                      ",
"                                {.,.,.  {.B.k.D.  xXbXaXS.r.            BXnXuX3XuXnXnXjXiXiX7X!.oXS.C.~.B.*X                    ",
"                                                  zXaX4Xk.i.          BXnXbX7X(.(.iXnXmXbXaX7XQ.!.2X!.~.4X4X_.|.                ",
"                                                    *XN.,.[.          bXbXiX/.Q.U.^.sXmXnXjXdXdX6X,X9XjX<XG.<X@.k.              ",
"                                                                      zX,X XV.g.D.  0XMXbXlXbXNXNXfXG.C.uXH.;.>.*.              ",
"                                                                                      kXwX2XdXmXnXfXG...M.k...;.:.              ",
"                                                                                            0XdXdX>XM...*.>.:.                  ",
"                                                                                              rX+XN.N.                          "
};
