/* XPM */
static char *f87c25cb002e4356badec429ff97ce89AKWjroRxTC71c6An[] = {
/* columns rows colors chars-per-pixel */
"64 64 239 2 ",
"   c #020101",
".  c #0B0405",
"X  c #0C0708",
"o  c #130506",
"O  c #140A0B",
"+  c #1C0B0C",
"@  c #180608",
"#  c #1B1112",
"$  c gray12",
"%  c #1D0F11",
"&  c #230B0C",
"*  c #2C0B0B",
"=  c #250708",
"-  c #330C0B",
";  c #3B0C0B",
":  c #370606",
">  c #23100F",
",  c #2C0A11",
"<  c #3A0E18",
"1  c #2C1515",
"2  c #271615",
"3  c #33191C",
"4  c #3B1C1B",
"5  c #371414",
"6  c #37120F",
"7  c #2E221E",
"8  c #291B23",
"9  c #371E22",
"0  c #3C2224",
"q  c #372625",
"w  c #3B3B3B",
"e  c #332929",
"r  c #430E0B",
"t  c #470607",
"y  c #5B0A0C",
"u  c #49110D",
"i  c #57150E",
"p  c #461917",
"a  c #581B17",
"s  c #440F10",
"d  c #68090A",
"f  c #73090B",
"g  c #76080A",
"h  c #6B1C17",
"j  c #751B1A",
"k  c #57231D",
"l  c #46201C",
"z  c #6C231B",
"x  c #4A2826",
"c  c #5A2A26",
"v  c #56322C",
"b  c #4A3333",
"n  c #593837",
"m  c #512F2E",
"M  c #6A2825",
"N  c #762925",
"B  c #67342D",
"V  c #7A342A",
"C  c #693936",
"Z  c #773A37",
"A  c #54463A",
"S  c #6C463C",
"D  c #784339",
"F  c #655134",
"G  c #443F41",
"H  c #663C41",
"J  c gray28",
"K  c #4D4D4D",
"L  c #4A4040",
"P  c #574D4B",
"I  c #555555",
"U  c #5F5F5F",
"Y  c #595253",
"T  c #5C5042",
"R  c #774844",
"E  c #79564D",
"W  c #6A5B5B",
"Q  c #6F514D",
"!  c #676767",
"~  c #6B6B6B",
"^  c #6E6464",
"/  c #776968",
"(  c #737373",
")  c #7B7B7B",
"_  c #83090A",
"`  c #8C090B",
"'  c #8A0607",
"]  c #940709",
"[  c #950A0C",
"{  c #9A080A",
"}  c #9C0507",
"|  c #901B19",
" . c #A80708",
".. c #B80507",
"X. c #AC0F11",
"o. c #A61415",
"O. c #B71314",
"+. c #872A1C",
"@. c #93211E",
"#. c #8A2B27",
"$. c #86362B",
"%. c #963723",
"&. c #883933",
"*. c #933D3A",
"=. c #AD302F",
"-. c #CC0405",
";. c #C70809",
":. c #D60101",
">. c #D30A0B",
",. c #D60A07",
"<. c #D50F10",
"1. c #C71818",
"2. c #D51A1B",
"3. c #D31515",
"4. c #D5190C",
"5. c #D53418",
"6. c #D42323",
"7. c #D72B2C",
"8. c #CC3738",
"9. c #D33B3D",
"0. c #D83739",
"q. c #CE2723",
"w. c #864637",
"e. c #934539",
"r. c #B04E39",
"t. c #D74E1E",
"y. c #D54731",
"u. c #DA3F40",
"i. c #874A47",
"p. c #84564B",
"a. c #875B56",
"s. c #975A54",
"d. c #935349",
"f. c #A9544B",
"g. c #836859",
"h. c #996556",
"j. c #8F614D",
"k. c #A86559",
"l. c #B46657",
"z. c #A9725B",
"x. c #876867",
"c. c #9B6866",
"v. c #91746B",
"b. c #A76966",
"n. c #A87467",
"m. c #B5796A",
"M. c #A87A77",
"N. c #B87B75",
"B. c #B36967",
"V. c #CD4547",
"C. c #D34B4C",
"Z. c #D64445",
"A. c #D95658",
"S. c #CC5254",
"D. c #C96440",
"F. c #DE5F60",
"G. c #DD6D6E",
"H. c #DB6565",
"J. c #D97576",
"K. c #CE7273",
"L. c #E06C6D",
"P. c #E16263",
"I. c #E27879",
"U. c #E26D57",
"Y. c #93807E",
"T. c #B8897A",
"R. c #B28673",
"E. c #C5866B",
"W. c #CB9173",
"Q. c #E49B75",
"!. c #DA7F80",
"~. c #838383",
"^. c gray56",
"/. c #9B9B9B",
"(. c #958783",
"). c #A88886",
"_. c #B88B84",
"`. c #BA938B",
"'. c #A89A9B",
"]. c #B99795",
"[. c #B4A395",
"{. c #A29FA0",
"}. c gray67",
"|. c #B7B7B7",
" X c gray73",
".X c #BEA3A3",
"XX c #DA8586",
"oX c #C4978A",
"OX c #C69C96",
"+X c #DB9B9C",
"@X c #D29089",
"#X c #E79596",
"$X c #E28989",
"%X c #CBA68C",
"&X c #D5A595",
"*X c #D4AD95",
"=X c #E4B895",
"-X c #EAA48C",
";X c #C59EA1",
":X c #CEA9A2",
">X c #C4A8A3",
",X c #DAA8A3",
"<X c #D5B4AB",
"1X c #D9B9B6",
"2X c #C8B3B1",
"3X c #E7A6A6",
"4X c #E4B9A6",
"5X c #E9B8B8",
"6X c #F0BABA",
"7X c #DDC4BB",
"8X c #D5C3AA",
"9X c #E9C8A6",
"0X c #F5D7AD",
"qX c #EACDB5",
"wX c #F3C49A",
"eX c #D9BFC1",
"rX c #C7C7C7",
"tX c #DCC7C5",
"yX c #D3D3D3",
"uX c #DFDFDF",
"iX c #ECC7C9",
"pX c #ECCBCC",
"aX c #E5C8C4",
"sX c #EBD4D3",
"dX c #ECDBDB",
"fX c #E6D9D5",
"gX c #F4DCDC",
"hX c #F3D4D4",
"jX c #F3D2C9",
"kX c #F2E5D9",
"lX c #EEEEEE",
"zX c #ECE5E5",
"xX c #F4E3E3",
"cX c #F6ECED",
"vX c #F7EAE9",
"bX c #FAF4F3",
"nX c #FEFDFD",
"mX c #F9F5F5",
"MX c #F9F2EB",
/* pixels */
"$ w $ w $ w $ w $ w $ w $ w $ w 7 w $ w $ w $ w $ w $ w 7 w $ w $ w $ w $ w $ w $ w $ w $ w $ w $ w $ w $ w $ w $ w $ w $ w $ w ",
"I I I K I I I K I I K yXuXuXuXyXuXyXuXuXuXyXuXyXuXuXuX$ w ~.}.|.yXrXyXyXrXyX|.rX}.~.I $ J J J J J J J J J J I K I K I K I I I K ",
"I I I I I I I I I I J uXyXrXyX|.yXyXyXrXyXyX|.yXyXrX^.$ w ~.rX|.^.}.~.^.^.^.^.~.}.K w $ w ~ ^.^.~.^.^.^.) ~ ~ J J J K J J J K J ",
"^.^.~.^.^.^.) ^.$ I J uXrXrX|.yX|.rXrX|.rXrX|.|.yX^.U $ w }.yX}.^.}.^.}.~.}.^.}.~.I w $ w ^.yXuXuXuXyXuX|.|.}.^.~.^.^.^.~.^.^.^.",
"yXyXyXyX|.}.^.~.$ I J uXyX}.}./.}.^.}.}.}.}./.}.}.) K $ w ^.|.^.^.~.}.}.}.}.~.^.( K w $ w ~.uXfX|.rX|.yXuXuXuXyXzXyXrXyXyXyXrXyX",
"}.}.}.}./.}.) ( $ I J lX|./.}.}.}.}.'.}.^.}.~.}.}.~ I 7 w J }.^.}.}.~.^./.^.}.~ I Y w 7 w ^.yX|.}.^.}.^.}.}./.^.^.}.^.}.~.}.^./.",
"|./././.}.^.) ~ $ K J lXyX}.~.:.:.:.:.:.:.:.,.-XmX2.:.:.:.:.:.gXnX6X:.:.:.:.:.9.nX5X:.:.:.:.:.:.:.:.~./.~.^.^.}.~.^./.^.}./.^./.",
"|.}.~.|.~./.! I $ w J cXrX^./.:.:.:.:.:.:.4.5.y.-Xq.:.:.:.:.:.gXnX6X:.:.:.:.:.G.nXI.:.:.:.:.:.:.:.:./.) }./.) ^.}.~.}.}.^.) }./.",
"/.}.}.^./.( J J $ $ K rX|.}./.:.:.:.:.:.:.4.t.t.U.P.<.7.7.:.:.hXnX3X,.:.:.:.:.#XnXZ.:.:.:.:.:.:.:.:.~.~./.( /.^.}.^.^.) }.}.( ^.",
"^.^.~.^.( I J J $ w J }.lX}./.:.:.:.:.:.:.,.t.5.Q.#XA.cXxX:.:.pXnX#X:.:.:.:.:.6XbX2.:.:.:.:.:.:.:.:.^.^./././.~.^.}.^.}.}.~.}.^.",
"( ~ ( ( K K w w $ $ K ^.yX^.}.:.3.9.u.9.0.>.y.C.7X,XV.8.S.u.2.5XcX+X9.9.>.q.u.1X7X7.,.9.u.9.u.8.-.:.~.}.^.~.^.( ~ ~ U U ! U ! U ",
"I I J J J $ $ $ $ w w ( uX}.~.:.!.nXnXnXnXV.xXnXaXcXnXJ.pXnXG.iXnXnXnXnXH.iXnXnXnXvXV.nXnXnXnXbX-.:.! U ! I I I K J K J J J J K ",
"$ $ $ $ $ w $ w $ w I J uXrX^.:.G.iX@XvXnXC.xXnX1XcXnX5XiXnXG.iXnXiXcXnXG.3XsX1XnXvXC.nXbXaXnXcX-.-.I K J J w w w w w $ w $ w $ ",
"$ w $ w $ $ w $ w w K J }.yX^.:.:.V.XXcXnXZ.xXnX+XbXnXxXxXnXG.iXnX4XxXnXG.-.!.iXnXxXZ.nXbXsXnXcX:.:.w w w w w $ $ $ $ $ $ $ $ $ ",
"w w w w w w w w w w K J ^.rX}.:.:.XXbXnXcX8.xXnXK.cXnXnXnXnXG.iXnXnXnXnXH.-.pXmXnXpXq.cXnXnXnXcX-.:.w $ $ w $ w G w w w w w w w ",
"I K w w w w w w $ w I J ( rX~.:.;.8.V.xXnXC.xXnXF.vXnXnXnXnXG.iXnXnXnXxXq.1.XX2XnXvXC.nXvX,XnXcX:.-.$ J K J J K J J J J J J J w ",
"/./.^./.^./.^././.$ $ I K rX|.:.XXnXpXmXnXC.xXnXS.cXnX1XnXnXG.iXnXsXnXcX;.pXnXsXnXxXC.nXnXgXnXcX-.:.J I ) /./.^./././.^././././.",
"yXrXyXyXrXyX|.}.( w $ I J ^.|.:.J.nXnXnXmXV.xXnXA.xXnXJ.hXnXG.iXnX+XcXnXV.5XnXnXnXgXu.nXnXnXnXcX-.>.J ) rXyXuXuXuXyXuXuXuXyXuXyX",
"}./.^.}.^.}.}.~ ( w $ I J ( /.A.:.[ [ ;.X.X.o.-.:.A.sX2.-.>.:.J.xXV.-.;.>.0.dX0.;.o.X.O.;.[ [ >.:.J.K /.yXyX|.|.}.|.|.|.}.|.|.|.",
"}.^./.^.}.~.^.~ ( w $ J I J /.gX>.y E w.< p N :...9.bX0.:.:.:.I.nXZ.:.:.:.P.bX2.:.M 4 r D Q d :.2.zXJ /.uX}.}./.}.^.}.^./.~././.",
"}.^.^.}.~.}.}.~ I w $ J I J ! nXG.-.@.h.E m B -.;.1.cXF.:.:.:.I.nXZ.:.:.:.l.'.}  .C m E h.o.-.:.#XvXK /.yX}.^./.~./.^./.( ~.^.~.",
"}.^.}.^.}.~.^.( K w $ K I J $ nXgX>.:.d x s.n.=.X.;.hXI.:.:.:.P.nX9.:.:.t o * * & 4 n l d :.:.2.bXvXJ ^.rX~.}./.}.^.}.^./.~././.",
"^.}.( ) ^.^.}.~ I w $ w K I K 5XnXL.:.-._ B E h.i.@.N.N.:.:.:.P.nX0.:. .@ r : - - - - - ' :.:.#XnX$XK ~.rX}.~./.^./.~./.) ) ^.^.",
"^.~.~.) ^.}.~.! J w $ w ~.uXuX7.mXgX,.:.:.O.B Z a.x e.b.;.:.:.A.nX7.:.] * u r ; ; r - - : g 1.tXxX3.J ~.|.}./.^.}.~.}.^.) ) ^.^.",
"^.^.}.}.~.^.^.U K w $ w yXrX}.:.$XnXL.:.>.o.c M i k u.dX<.:.:.A.nX6.:.-.= r r a s u r : - - A A =.-.K ~ rX~.}.^.^./.^.~.}.^.}.^.",
"/.}.~.^.}.~.( I w w $ w uX/.^.:.3.vXhX2.:.;.j c f j 1.hX7.:.:.u.nX6.:.d 1 ; r r s ; * = * C E.*Xd -.K J ^.( U I I I ! ! ~ ) ^.~.",
"~ U ! U ! K J w w w $ w yX}.}.:.:.F.nXI.:.:.1.j y g O.6XA.:.:.0.nX2.:.: + @ , s ; ; ; - c B.E.=XN :.I $ w w J J J J J J J I I I ",
"K J J w w w $ $ $ $ $ w uX~.}.:.:.,.pXgX2.:.:._ g '  .#XI.:.:.0.nX3. .* < @ & < @ o < < E &X-X9X&.>.I w $ $ $ $ $ $ $ $ $ w w J ",
"$ $ $ $ $ $ $ w $ J K J uX}./.:.:.:.C.bXL.:.-.f y { ` H.#X-.:.0.nX>. .+ & O , < p , X O a.4X-X0X#.:.I w w w w w w w $ w $ $ $ $ ",
"J ~ ! ~ ^./.^.~.^.^.J $ uX}.( :.:.;...3XgX2.{ g  .X._ u.iX:.:.7.nX>.g R c.eX.Xb H p.s.m.&X*X4XjXM :.I J w J I I K I K I I w w w ",
"~ ^.|.uXyXuXyXyXrX}.( $ uX}.}.:.:.[ } =.vXI._ f g g d 1.gX>.:.1.nX..x c.1XcXxX;X;X1X5X4X4X,XjXxXC -.K }.uXyX X^.U I J J K J J I ",
"! }.yXrXrX|.}.}./.}.G $ lX^./.9.} _ ....XXvXj t ` [ f X.6X6.:.=.cXd < G fXnXtXx b 2XmXxX7X<XvXmXx.f.K uX~.^. XuXuXyXuXuXuX^.w I ",
"~ uX X}.}.~.}.^.}.~.( $ lX/.}.uXh o ;  .1.hXa.] ] } } ..#XZ.-.j ) E ).oXcXnXcXdXmXnXnXnXxXaXmXnXbXx.J uX^.~.}.}.~.^.}.^.~.~.w K ",
"! yX|./.~.}.^.}.~.}.( $ lX/.~.nX'.    t ;.A.Y ] ]  ._  .F.H...j 2 OXM.i.eXmXzXdXcXnXnXmXnXmXnXnXxXW J uX}.}.~.^.}.}.~.}.^.! w J ",
"! uX}.^.}.^.}.}.) }.K $ uX}.}.zX|.U   5 =.j v.Q f d y g #.i. ._ O c.c.B ;XfXzXeX1XtXxXnXmXmXnXmX>X^ K eX}.^.}.}.~.^.}.^.}.W w J ",
"! uX}.}.^.^././.}.~.I $ uX|.) M.|.eX! 2 k.z.f.'.o. ._ g ' c.] g   h.i.B d.oX1X5X<X<X<XxXnXmXmXnX>XZ J rX}./.}.^.}.~.^.}./.I w J ",
"! yX|.^.}.}.^.}.~.}.I $ rXuX~.>.+XzXzX! S E.l.`.@X .' ] ..X.....O w.4 > 8 H ].OXOXoXOX7XvXnXnXmX|.' w }.}.^.}./.^.}.^.~.}.I w w ",
"! uX|.}./.^.}.^.}.^.K $ |.uX) :.;.M.nX}.# k %Xp.U  .] ] } } :...  v 3 v E @ W 1X1X:XoX:XsXbXnXmXbXf.$ ( K J I I I I I I I I w w ",
"! uX}.^.}.}.~.}.) }.I $ /.yX/...-.y +X( ^ q S qX'.$.] ] d f -. .  x i.l.0Xq + T.:X:X:XtXaXcXnXnXbXK.I $ $ $ $ $ $ $ $ $ $ $ $ w ",
"! yX|.^.~./.}.^.}.~.I $ ) uX}.f ..; O.C ) ( + p.<XM.c = : : } f X j.V f.9Xb # n._.T.oX<X7XmXnXmXnXaXJ K J J w w w w w w w w w w ",
"! uX|.}.}.~./.}.^.}.I $ I lX^.d g t y t x U P & B l.R.S T A A # F R.+.w.=X7 O s.m.W.OX<XaXdXmXnXnXfX) ) ) ) ) ) ) ) ) ) ) ( w K ",
"! uX}.^.^.}.~.}.^.~ I $ J lX}..... . .{ { c./.Q X k k.z.3 e b K v.Y.N e.R.. n j.R.OX1XtXfXkXnXmXnXzX|.rX|.|.rX|.rX|.rX|.rX) w K ",
"! rX|.}.}.^.}.^.}.I $ $ K lX/.:.:.:.:.:.:.:.$XU X . 6 M >         . p w.S . E `.`.<XOX7XdXbXnXnXnXdXlXlXlXlXlXlXyXuXyXyX^.~ $ K ",
"! yX|.^.}.^.}.}.~.I $ w G lX^.:.:.:.:.:.:...: X . X . o X         o 2 o X .   X v k.K.[.bXsXtX2X`.k.|.rX X}.|.rX|.|.rX|.) I $ K ",
"! |.|.}.^.}.~.^.^.K $ w J uX}.:.:.:.:.:._ o . . .   6 a O     X . g.0XW.>     @ k e.f.R.R.h.k.h.i.Z ^.}.~.^.^.}.~.}.^.}.~ I w w ",
"K rX~.^.}.~.( ~ ( I $ w J yX~.I.2.:.:.] 4 .     . . 6 & # b X # p 9X0XE.F     = u k e.e.h.e.V M - 1 }.}./.~.}.^.}.}./.^.~ I $ w ",
"J |.}.}./.^.I I K $ $ L J |.}.nXnX3Xu.B.M.x     6 a +.N p _.O 1 l %X=Xz.g.    @ i u +.r.$.* .     n ) ~././.^.}.~.}.^.}.~ I w w ",
"J ) ) ) I I I I I $ w w w /./.nXnXcX'.;X].p..   6 j h h a :X# , k z.0XwXz.    X o = i h V .     X Y ^.}.^.) ( ^.) /.^.^.( I $ w ",
"J w $ $ $ I I I I $ w G K ) ! nXnX`.)..X;Xc.&   V %.d r , ).% O 4 D E.Q.c     . . ; - = 4 8 ) v.yX).~.^.) ^.^.~.}.^.( ~.~ I $ w ",
"I I I J w $ $ $ $ w w w w w w Z.l.R a.]..XM.i.l %.+.i * b b   % x w.B k #   X o   o * 3 x / uX(.zXv ^.^.~.}.^.) ^.^.~.) ~ I $ w ",
"J J J J J K J w $ $ w J w w $ -.p 2 H M._.OXE.Q.D.+.i . 9 C R n C l.s.x v n v @ . .     O b (.Y.G : ~.}.^.^.}.~.^.^.^./.~ I $ w ",
"J ) }.}.}.}.^.^.! K K I w w $ t     2 c.M.4Xn.e.r.z @ . o H E h.3 B N i.b.b.b.9 % @ O & 8 x 9 e . t ) ) ) ) ) ) ) ) ) ) ~ I $ w ",
"J }.rXyXuXyXuXuX|.}.}.^.~ U I .     + h.R.9X8Xw.V 6 = + . 0 S T.5 + 4 b.b.s.H 9 3 a N *.i.n b e q t I I I I I I I I I I I $ w w ",
"J }.yX}.}.^.|.yXuXuXuX|.}.}.}.      1 T.%X8XMXd.w.z D S 6 & C T.p , m B.b.R 3 9 p M V *.*.9 b b b p $ $ $ $ $ $ $ $ $ $ $ $ w w ",
"J }.uX}.}.}.|.}.^.}.|.uXuXuXyX      b W.W.[.kXR.%.D *Xs.v * 0 z.R , C b.b.B T.C 9 9 a M a % # 8 9 8 2 w $ w $ w $ w $ w w w J J ",
"J }.uX}.~.}.) ) }./.^.) }.~.}.      n W.oX%X8X_.B %X=Xj.C + + a.s., H b.s.l =Xi.% 8 O         X 2 2 w w w w w w w w w w w J K I ",
"J }.rX}.}.}.^.}.^.^.^./.}.~.^.}.) ( ^.}.) ^.~.^.}.~.}.^.}.}.}.) ~ $ w K K }.yXuX/.) J K J I K I J J G J J J w J J w J J I I I I ",
"J }.rX}.~.}.) ) /.}.~.}.}./.~.) }.) ^.) /.~.}.^.}.^.}.~.}.}./.! I $ w J J uX}.}.uXuXuXyX|.I I K |.uXuXyXuXuXuXyXyXrX}./.) J J I ",
"J }.~.! U ! U ! U ! ! U ! U ! ! U ! U U U ! ! U ! U ! U ! U ! I I w $ w J yX|.}.|.}.|.|.|.U I ) uX/.}.}.^.}.~.}./.}.^.}.yX/.$ I ",
"J ^.! w w w w w w w w w w w w w w w w w w w w w w w w w w w w w w w $ $ K |.}.|.|./.U /.~.! J |.}.^.}.~.}.}.}.~.}.^.}.~.}.I $ I ",
"J w $ $ $ $ $ $ $ $ $ $ $ $ $ $ $ $ $ $ $ $ $ $ $ $ $ $ $ $ $ $ $ $ $ $ K w J w K ! U ! ! U J uX/././.}.}.^./.}././.}.^.^.I $ I ",
"I J w w w $ w $ $ w $ $ w $ $ w $ w $ $ w $ $ w $ $ w $ $ w $ $ w $ w $ G K I w w $ $ $ $ $ w I I I I I I I I K I I I I K I $ I ",
"I I K I J J J K K J J J w w w w w w w w w w w w w w w w w w w w w w w w w K I I I w w w w w w K I $ $ $ $ $ $ $ $ $ $ $ $ $ $ I ",
"w w w w w w w w w w w w w w w w w w w w w w w w w w w w w w w w w w w w w w w w w w w w w w w w w w w w w w w w w w w w w w w w "
};
