/* XPM */
static char *fb9326a8878844d9edb92d3d3ebe52a3lyihIYohntvs0gRA[] = {
/* columns rows colors chars-per-pixel */
"64 64 231 2 ",
"   c #5C3C1E",
".  c #593F25",
"X  c #613F20",
"o  c #72471F",
"O  c #694523",
"+  c #6E4925",
"@  c #6D4C2C",
"#  c #634629",
"$  c #744B24",
"%  c #7B4E24",
"&  c #734E2A",
"*  c #734A24",
"=  c #7D5126",
"-  c #76512D",
";  c #7C532C",
":  c #6D4F31",
">  c #654D33",
",  c #6C5237",
"<  c #745434",
"1  c #7B5632",
"2  c #7D5935",
"3  c #76593C",
"4  c #7C5B3B",
"5  c #735639",
"6  c #755C42",
"7  c #7C6144",
"8  c #7B654B",
"9  c #756048",
"0  c #7C6A53",
"q  c #814F21",
"w  c #845325",
"e  c #8A5624",
"r  c #8E5926",
"t  c #83562B",
"y  c #895729",
"u  c #85592D",
"i  c #8B5B2C",
"p  c #945B26",
"a  c #9C5E25",
"s  c #935D2B",
"d  c #995F29",
"f  c #905722",
"g  c #815730",
"h  c #845B33",
"j  c #8B5E32",
"k  c #845E39",
"l  c #895F38",
"z  c #915F30",
"x  c #8F602F",
"c  c #95612E",
"v  c #9B622C",
"b  c #8D6135",
"n  c #85613C",
"m  c #8C633B",
"M  c #946333",
"N  c #9B6533",
"B  c #9D6936",
"V  c #92653A",
"C  c #95693C",
"Z  c #9B6B3B",
"A  c #996739",
"S  c #A2652C",
"D  c #A9672A",
"F  c #A5692E",
"G  c #AA6A2E",
"H  c #A56327",
"J  c #B26C2D",
"K  c #A16731",
"L  c #A36A34",
"P  c #AB6D34",
"I  c #A36E3B",
"U  c #A96F39",
"Y  c #AC7036",
"T  c #A6713D",
"R  c #AB723C",
"E  c #B37235",
"W  c #B2753C",
"Q  c #B5783D",
"!  c #BB7B3D",
"~  c #BA7535",
"^  c #B57032",
"/  c #834F1F",
"(  c #C07A38",
")  c #846442",
"_  c #8C6642",
"`  c #8D6945",
"'  c #8C6C4B",
"]  c #84694A",
"[  c #946B43",
"{  c #9B6E42",
"}  c #926E4A",
"|  c #906740",
" . c #9C7145",
".. c #95714B",
"X. c #9C744B",
"o. c #967046",
"O. c #846D53",
"+. c #8B6F51",
"@. c #8D7254",
"#. c #8C755A",
"$. c #89755B",
"%. c #937453",
"&. c #9A7652",
"*. c #9C7A54",
"=. c #94795B",
"-. c #9A7D5B",
";. c #927758",
":. c #A16F40",
">. c #A47343",
",. c #AB7542",
"<. c #AC7846",
"1. c #A3764B",
"2. c #A5794C",
"3. c #AB7A4B",
"4. c #A87747",
"5. c #B17742",
"6. c #B37A43",
"7. c #BA7E44",
"8. c #B27D4B",
"9. c #BB7E49",
"0. c #A47C52",
"q. c #A97E52",
"w. c #A27E5A",
"e. c #AB7F59",
"r. c #B37F51",
"t. c #8F7C64",
"y. c #937C61",
"u. c #997F61",
"i. c #C17F46",
"p. c #BD8146",
"a. c #B6814D",
"s. c #BC824C",
"d. c #AC8155",
"f. c #A4825C",
"g. c #AA835A",
"h. c #AC885F",
"j. c #B48353",
"k. c #BB8653",
"l. c #B58A5C",
"z. c #BB8C5C",
"x. c #BA8756",
"c. c #9C8263",
"v. c #94836A",
"b. c #9C856A",
"n. c #988468",
"m. c #9B8B73",
"M. c #A38563",
"N. c #AC8A64",
"B. c #A58B6B",
"V. c #AB8D6B",
"C. c #A68765",
"Z. c #B38C64",
"A. c #B68F65",
"S. c #AD906D",
"D. c #B3926C",
"F. c #BC956A",
"G. c #A38E72",
"H. c #A69274",
"J. c #AC9373",
"K. c #A4947A",
"L. c #AE997C",
"P. c #AB9679",
"I. c #B39572",
"U. c #B59976",
"Y. c #BB9B75",
"T. c #B39B7B",
"R. c #BA9D7A",
"E. c #B69775",
"W. c #BCA27E",
"Q. c #C3864C",
"!. c #C4854A",
"~. c #C38A53",
"^. c #C48E5B",
"/. c #C28751",
"(. c #C7915D",
"). c #C79668",
"_. c #C59D72",
"`. c #C3A37D",
"'. c #CAA579",
"]. c #D3A775",
"[. c #AC9D83",
"{. c #A59B86",
"}. c #B59F80",
"|. c #B6A183",
" X c #BCA483",
".X c #BBA689",
"XX c #BDA98C",
"oX c #B5A78C",
"OX c #BCAD92",
"+X c #B5AA94",
"@X c #BBB199",
"#X c #B4A68A",
"$X c #C3A581",
"%X c #C4A984",
"&X c #CBAB83",
"*X c #C3AC8C",
"=X c #CAAE89",
"-X c #D3AE84",
";X c #CCB18D",
":X c #D3B38B",
">X c #D2B087",
",X c #C3AF91",
"<X c #C5B294",
"1X c #CBB593",
"2X c #CCBA9C",
"3X c #C4B79C",
"4X c #D2BD9C",
"5X c #D5BA95",
"6X c #CCBEA2",
"7X c #C4BBA2",
"8X c #E1BC90",
"9X c #D9C19C",
"0X c #E2C599",
"qX c #CBC3AA",
"wX c #D3C3A5",
"eX c #DCC6A3",
"rX c #DBCBAC",
"tX c #D6C8AA",
"yX c #D8CEB3",
"uX c #DDD1B4",
"iX c #DED6BA",
"pX c #D7D0B8",
"aX c #E6CCA4",
"sX c #E4DABC",
"dX c #E4D4B4",
"fX c #E7D1AD",
"gX c #DEDBC1",
"hX c #E7DEC2",
"jX c #EBE5C9",
"kX c #F1E8C9",
"lX c #FAF8DB",
/* pixels */
"q.:X:X&XN.g.V F w * I G d w 6.v d 2.l h I V V l i 3.,.^ I q s [ 4 l :.8.[ Z.5 U H b M j [ B (.= k i <.N I g 3.s L 0.I Q T a.3.^.",
"l.XX|.X.m v L I = ; u c s v v M N w M h M l i I z I z R B s q b ;.< 1.3./._.5 t c b  .; n c ~.r u >.R j I R R 7.!.2.M B u a.p.B ",
"*XuXoXC.  j.W ,.M c c i M = w l - N 2.V 4 g m h @ k V z h h V V 0.j v L ~ d.w.< b M c = = G 7.T N z.,.L u M v T d.h.f.m h A x n ",
"<XuXyX+XO.< 3.s.P W p r ~ v M k 1 1 y ) w.X.H.b.u.` 1.m U P v Z M y M * M j ).+.u Y G B >.e R C L p.N z.Z R >.T ; u b 2 N 2.o.V.",
"wXiXhXiXXX@.1 W 6.M L v N c p 1 < - 3.' 2 3.m ` ' ' ; B y I v y Z w P r L v n `., v B c I Y ! r w ~.I [ s ).<.M.;.L.v.u.@.@.V.9X",
"2XeXwX.XV.2.j.n Z U M B W Z v P M 1 :.u.k I o.] ' } N ; N s s u u B L b W G 2.`.0 w O ; w  .h V w _ n =.8 4 &.[.+X7X2XT.`.R.*XeX",
"<XS.*X;XR.C.' @.l D T i B i v 6.s V 0.} +.l N X.n N j i z 6.N P t c p Y ,.6.I e.*XL.C.8 c.B.f.U.B. X=XeX5X5X:XrXdX&X&XF.j.d.c.&X",
"W.B.q.U.;XrXwX#X#.& y ).= - 1 l I k >.{ [ M A Z { B N V V G N F 1 r N M B H A V.XX X$X].8X&X$XN.l.g.*.l.o.2.,.>.>.S 2.a.[ h Z _.",
"T.@.*.%.|.sXlXsXL.$.o.u l.b = u Z u I >.X.- I N d I L U r t T T : = $ r f h N.}.u.4 | 7.a 9.I ; < F B M 1.M Q L 3.x.Q X.V x Z F.",
"L.&.Z _ S.W.*X*XY.=XD.] ] : i T L x V i z.} M Q W I v L L r M b 1 = = = B l  X#X+.k V z I i V t ; M b v v M p s 3.c >.o.x ..T `.",
"T.' B M i Z b T W ~./._.&XW.4 6 [ P c c 6.Q.b K 7.v F Y H Z 7.8.n y y ; i *.tX@Xm.4 V U 6.P <.2 ; c u Z r 6.% >.M >.X.Z Z M % l.",
"H.h ).R U P i r L R ).K R b 2.9X#X, c Z U c N { B V M Y F ! 8.{ x x u ; >.I.rXuXm.3 { W >.S V < t u b C I s L h S T ~ M Z p.4.U.",
"H.n B T Y d = c y v v R <.2.m n 1.;Xf.: b Z R k.j v C ,.I P d N V c L m N.F.yXuX@Xt.4 4.r I _ & V b v = V p q I u Z c (.F C c '.",
"K.h R Y L ^ p v P N F v Q.v { R l.1.,.A.z.Z.> 2 m n n ; - t h Z O $ Z S.f.f.tXkXqXm.h j K U 1 I V n a.y H r Z % w G M u L B x =X",
"H.1 B x N c N F v % 6.W w k k u 4 t B Y y L (.'.aX3XK.b.c.G.*.g.6 C W.J.o.3.<XjXiXm.} I p >.1 B 5 - B i U V u W * * L U Y x d.F.",
"S.2 R R N i N U 5.R M * { %.o.m o.C V x i v Z ).l.D.2X:X'.$XR.R.W.B.f.m r x k.R.4Xm.' L = C M [ m >...b = N w % $ = $ c x F B `.",
"J.5 A.m +.` B ; l z h @ u.#.u.j j h { % V z k >.^.6.j ~ k.z.1X5XeXW.d.b B a.>.0.;X*X> T N ~ A i c L b j Z l n & g ; t >.Z B ! l.",
"J.4 m d.M.c.b x { k &.+.}.6 ) l 1 t l g 1 @ ; 1 N s i I s m -.<XrXK.i r = t T >.).aXL.7 >.j C >.V M j k m j = { m < i M c v L ].",
"K.2 ! *.*.*.` - M } O.u.u.6 < y y :.5.:.t & ; t W b s Y r ; =..X2Xf.r a v r ; R *.5X;X8 j & c V i :.A 1.j = y U 6.j k w c i b %X",
"n.1 u h n 2 2 : l _ ` +.| u.u t t N P y j 8.$ h A L t { s m k yX[.<.P ! S a Y M t _.-Xn.V C V V Z L Z Z M p D w P r N 1 V s u _.",
"#.u c ; ; m ; - | j k j i 2.< [ w u a s z z P N z c & T E ,.w.wXH.L v S N V r A B M 3.-XO Y & j k j c T P b 5.s L M C N d N U $X",
"O.M K v % % = x M A d % w d l O U d s i.5.~ w L n s N L K >.A.*X[ E S S p.t i s 3.a 7.~ @.@ n n b % R v D b = 6.S i I ! ,.T I :X",
"@.V j.x u = = G y N q a % i L [ e d ; z E ^ U A s G y E I I _.G.*.U s <.Q.j j C i s.= T p._.> } l H T S s.{ Z.I H R i L G B <.&X",
"' M W p.! Q G >.e % p z y ~ p M ; z d r d 5.A u D L V s ~.L '.;.D ~ t = A v N s N ; - $ ,.7.aXoX. y I T <.Y d.e.v u E P s./.Y eX",
"=.Y R U B P w d H d S w $ i v N l q S j m n c r v t c m y +.D.h c c = x R y x T <.* 1 < t I 8.q.&X] L i s l M s c m t N w i >.&X",
"#.u Z j H w c N G H S % T s t p U * V z c.1 c P W u ..) ;.T.*.; ! T u b J u e x M m - :.t j v Z s.j.J.M.#.5 & t h h h j & ) V =X",
"v.n M u p e v - S D w i = u y F s t g | k % T s 6.Z ..c.OXK.z N F B M F v N i - V - & 1 t ; M E K V { -X:Xb.O.8 -.B.n.c.b.' } ;X",
"v.n x y w y v g M i % $ $ + v o K r.l A b j T B N W C V.|.-.5 q.- T C c 7.c V 1 K M = $ C I E F T I P 5.X.%X1X4XP.XX6XqX7X[.M.2X",
"v., x v G x u = s ! t % - * ; k C [ M j t t b r R i X.|.U.*.} C.@.1 m R v p b k K K b % v + M < b [ Z 8.B | N.;X;XdXjXhXiX*X%X5X",
"K.O.= r v c $ y B j q y u ; - C U W j y t = c p i x Y.$X<Xc.B.5XK.K.#.O.=   g c V m i T <.T R I I { m N L d V { Z.<X6XsXrX*XI.'.",
":X;.V - c ; b p a z N d M j b r ,.s  .I I b v G i _  X2X2X6X.X;XrX X;X=XU.S.3 - Q D E f P 6.B N R P g N j W S K I ` X.F.Z.e.=.F.",
"9X<XK.f.b $ b M S p i.z s.i i Q R U 5.0.,.N C  .E *.W..X3X|.M.V.;XC.-.g.l.z.`.F.9 u Y P !.Y N 6.c K M m j z >.e ^.G y I 3.&.=.1.",
"0XsX7X{.u.] ' +.#.+.6 j h t - g 1 k m 1 y ; j B 2.V.S.f.m.=.4 >.1._ T 9.r K N U /.{ Z X M L I Y U t u u i u $ c j.R H H B g 4 5.",
"5X6X6X$X&X_.$X4XyXsXtX3XR.U.E.$XW.U.`.c.$.) k u.L.|.&.@.) 2 % ; m i L 9.I u M b e l i _.OXO.< u >.v C n V i M T R R d S % ; i M.",
";XE._.u.m ) [ I.}.7X@X+Xb.} V.B.J.<X4XeX+XOX|.*X|.t.3 7 - : - ; Z j s K j % i M i 4 1 O ; h.$XS.] < C g.@ m 6.,.a.y i R t - ..;X",
"E.*X}.V.-.I C.w.u.oX[.[.u.;.e.g.|.2XXXyXuXeXeX2XrXrXn.m n Z x L L y >.6 - + 4 = M _ j g O w b &.U.S.=.b.T.} =.n m >.V Z Z k Y.4X",
"V.C.V.N.e.] ) +.=.y.G.+.1.n -.}.3XyXjXkXiX4X3XU.T.*Xm.t R a. .Q i J { ` ;.6 , j j { V ; $ = x o.*.A.:X9X#Xc.+.u.k z ` +.=.O.S.*X",
"u.| ) h k | >.u.6 4 l k h j k U.@XpXlXlXgX6X|.J.J.J.OX, j.M R L u L N = % Z >.) 4 s 8.% $ t C 2. .R ].eXwXXXG.c.} #.G.H.$XR.m.N.",
"@.1 ) g t 1 z l k z A - & < n J.+XjXlXlXhX3XP.C.&.w..Xy.C W D B t S S p r S e A r k ; % n n [ j.U R >. X1X,X XR.Y.3X*X*XT.3Xm.Z.",
"O.[ l j j A z z z z p z T X.Z.U.7XjXlXlXsX}.P.P.*._ `.XX> l.S K h B q L U H l m w u c R k.,.Z g j B T 2.D.V.R.T.I.Z.{ 1..XrXK.}.",
"K.y.%.j l t I y S x Y c ^ y <.R.uX6XjXdXyXy.N.{ { V ).=Xn.- p.v - A s t e & < : N h B V q.W M <.i x p g.1XL.D.>.5.y E | N.wX+X}.",
"t.` &.) >.K s p ; r Q x B y R Y..X,X4X,X$X-.l [ B B R f.9X0 L ~.k N d Z h + @ - d V 1 V 7.s c F 4.c ..D.1XB.; c Q L ^ z :.*X[.XX",
"m | } z Y N v r S p.Z c R T F f.B.*XL.&.l 8.g S 3.T B R d. X1 ,.M L y i t V = 6.i V m N 6.7.R Z R u f.P.` ~.M - 5.9.{ :.,.V.u.N.",
"| U <.U Y S r P y x u ! 4.4.p.X.e.D.[ L s Z.9.>.4.,.4.F.p.R.] n L W U L z a a Q.N t l u o.M Q m i f.f.h x % B g >.y r./.<.Z.*.X.",
"L B ,.a.k.B T Z E v u Z &.g.7.L F.-.M B V U L ,.% d.V 2.K d.W.$.l 8.N :.U w i 6.F % h <.I w = ..Z.-.c v * * y Z / 8.V ,.*..XB.} ",
"= 3.R p p.Y c B v $ h ` *.>.H ].c.b ^.b 3.:.V Z j.T t y c a.D.%X6 L L r a y y w L L y W ).R &.D.2.4.R M * + w w N ~.,.Z R.hXOX%.",
"< <.B M v = P i p t b k y b M z.6 C 3.B B R Z h b  .w R <.a.|.0X0 <.K Y >.F a G U N P T i M.S.d.% b e B + $ * T I M d 5.D.sXtX;.",
"n v G Z v K <.B c v C M ; b o.U.' C 2.V ; B 4.<.o.b b 3.M P a.2XOX4 F H i M 7.! L i.N j f.J.%.i M I <.b + B w P e s ,.o e.=XqXt.",
") G S v x T u b h ; m w  .U [ ) o.b >.g.b L h T >.X.x M ).s.C f.kXv.2.u i B i A N Z 6 K.<X2 $ s p ^ y y d l C j ,.,.,.I (.3.dX0 ",
"+ t L E $ O M c L m _ &.k y 8.>.,.u Z = h q.v Z M j u 3.i V j &.fXK.k H V i N Y M XXtX6X@.g w L M V z ; :.l K A 0.& N >.L 7._.P.",
"w v d j = - v x i b < g h i q.Y F T = ^.K j p 1.a.[ o.t + M j ; N.>X' y i B s >.<XrX7X' k : Z I N & 4 } - & 4 e U { l i >.N &XB.",
"M U >.c = x c - 2 _ u o.p m B.j s S w Y <.K L i p E c T P L k ; <.R.;.k S T X.U.,XeX%.y t 1 S H y g < 3 4 g s L y A V l L L &XB.",
"j i p c c r x b A g r z i 2.v.M x w i t X.,.v w L w b r c c K M !.Z.J.7 b &.U.1XN.' Y G v s l z h @ 4 3 _ M N N B o.4 b !.a._.U.",
"o.N T v x x c x v y a 7.i ..2X> s.Y = c x u B L Q C F ; !.~.L P Y 3.%Xy.P.3X;XM.B v p.M i v ) 1 y ; : k 6 [ y z 4.2 o.C Z :.>.U.",
"6 N ,.M y x x v & 7.F t [ }.T.y.>. .F b u - b M <.V S p ,.S Z v s Z E.B.2XwXl.s.v K i M P v K _ i t m h A K 2.:.) *...X.L V -.5X",
"O.g 8.I x x x C O y r I C.$XH.}.2 F T x M b 1 y c i t F T Y R - j T 3.$XR.&.c 3.u - p.b + s.j X.: < g s y y | j x Z m V t P L 5X",
"J.z G s L N U { V M h ) w.T.&.+._  .( c b 4 u Z G = = p V O { c.' m B.|.}.4 >.4.r g h 2 ; Z >.B 1.1 k h [ ) 1 s Z - T L N >.s.R.",
"S.k j I s j I N N [ X.H.4X.X}.+.o.n 6. .n C c ,.1 -.' ) =.C.L. X X<XtXqXG.< r /.B M i = M j M m C 1 B _ 0.V b B R R g p. .v B D.",
".X8 * N K K j 5 L { o.V.$X,XC.@.&.6 7 f.-.@.;.c.U.z.F.`.;XR.}.-XC.R.yXsXy.M W t I e A K b Z I y | } ' A | N d.i n 2 c v ,.7.<.F.",
"4Xm.2 & t _ ` M.m ) -.}.7X}.u.V.W.dX9Xh.0.l.2.j.t d N Q.X.L z ~.{ I F.uX#.>.N 1 W L V c c B C = 5.2.X.[ 6.8.>.g.) 1 C B ! 8.3.8.",
",X7Xt.8 n ` G.-.} 2.[.J.*X}.J.e.A.B.f.C z L L N N H y S y d ,.4.w r.7.'.I.] V w ^ W Y j d l = ' k } ` l B Z ~.*.%.{ = <.N 6.Q.Z ",
"1XhX{.H.V.G.=.C.B.E.&X%XN.r.~.6.I w.n Z L B d j G L v % * ; (.i y L N g.&Xv.1 A L >.z g W 6.C { | x.7 ) ..R Y K k.m Z i u k.7.6.",
"1XjX@XG.G.*X$X$XS.1.B :.y l :.r.s z - j K i p s N z N s $ % 3.~.l j i Z ].|.) I ,.b i & B I w Z >.j.} } n l 6.V ~.m F <.D <.>.W ",
").aX1X4X1XE.E.} { z 9.>.z h { 5.N { { L l B j s J B ; Y t L x.8.g.& V i z.J.{ ^.S I M s B M <.V ` W A d.X.; y B !.<.w U >.^.T P "
};
