/* XPM */
static char *_387ff75842446d5a971f96d26ae2821Twwwh3wtzmlOgzaL[] = {
/* columns rows colors chars-per-pixel */
"64 64 203 2 ",
"   c #090303",
".  c #160A04",
"X  c #190905",
"o  c gray12",
"O  c #151313",
"+  c #29120A",
"@  c #3A170A",
"#  c #261B15",
"$  c #2B150E",
"%  c #372219",
"&  c #28221E",
"*  c #222121",
"=  c #2E2622",
"-  c #362B26",
";  c #3B322E",
":  c #3B3B3B",
">  c #3C3532",
",  c #481D09",
"<  c #541E06",
"1  c #5A2307",
"2  c #4C2714",
"3  c #5C321D",
"4  c #4F2916",
"5  c #6C2603",
"6  c #6F2903",
"7  c #6B2A0B",
"8  c #612609",
"9  c #722703",
"0  c #742903",
"q  c #792C06",
"w  c #732C08",
"e  c #7B2E09",
"r  c #7B3007",
"t  c #7E330D",
"y  c #71310F",
"u  c #692E12",
"i  c #683215",
"p  c #773513",
"a  c #422E26",
"s  c #483329",
"d  c #5C3A29",
"f  c #473A35",
"g  c #523D34",
"h  c #6B3F2B",
"j  c #3F463F",
"k  c #48433E",
"l  c #59463D",
"z  c #774B35",
"x  c #674431",
"c  c #3E4343",
"v  c #474747",
"b  c #4D4D4D",
"n  c #484443",
"m  c #544A43",
"M  c #5D4D43",
"N  c #5C4F49",
"B  c #555555",
"V  c #5F5F5F",
"C  c #5A504A",
"Z  c #6C5246",
"A  c #6A544A",
"S  c #6B5C56",
"D  c #635957",
"F  c #6B544B",
"G  c #78635A",
"H  c #676767",
"J  c gray42",
"K  c #6D6765",
"L  c #726C69",
"P  c #7C716D",
"I  c gray45",
"U  c #7E7876",
"Y  c #7B7B7B",
"T  c #83340C",
"R  c #8B360E",
"E  c #89380E",
"W  c #843612",
"Q  c #8B3711",
"!  c #843912",
"~  c #8B3A12",
"^  c #8B3E19",
"/  c #913D14",
"(  c #8D401B",
")  c #9D4517",
"_  c #94411B",
"`  c #9D4419",
"'  c #9D491B",
"]  c #AF4F1D",
"[  c #A2471C",
"{  c #AF501E",
"}  c #B0511E",
"|  c #954522",
" . c #954823",
".. c #9B4A25",
"X. c #9F4F2C",
"o. c #9A4721",
"O. c #9F502C",
"+. c #8F4D2C",
"@. c #A34C25",
"#. c #A34E29",
"$. c #AB4E25",
"%. c #AD5124",
"&. c #A1512E",
"*. c #AB542B",
"=. c #B15323",
"-. c #B4592B",
";. c #B8592A",
":. c #A65633",
">. c #A85732",
",. c #A65934",
"<. c #AB5B35",
"1. c #AD5D3A",
"2. c #B95A33",
"3. c #B35B35",
"4. c #B2613D",
"5. c #BD6337",
"6. c #C05E2A",
"7. c #C65F30",
"8. c #CF6935",
"9. c #C5663E",
"0. c #C96738",
"q. c #D56B35",
"w. c #D86C36",
"e. c #D36B38",
"r. c #D76B38",
"t. c #E7793F",
"y. c #EC7A3E",
"u. c #965B42",
"i. c #895A44",
"p. c #9C6245",
"a. c #A56244",
"s. c #B36141",
"d. c #BC6745",
"f. c #BC6946",
"g. c #BB6949",
"h. c #B56A4A",
"j. c #B86F52",
"k. c #B6765A",
"l. c #B8775B",
"z. c #BA704F",
"x. c #8D776C",
"c. c #B57B65",
"v. c #C16744",
"b. c #C26A45",
"n. c #CC6D46",
"m. c #C46B48",
"M. c #CB6D49",
"N. c #D36E46",
"B. c #D36E49",
"V. c #CE7146",
"C. c #CE714A",
"Z. c #CE784A",
"A. c #D27246",
"S. c #DD7646",
"D. c #DC7846",
"F. c #D37249",
"G. c #DA7449",
"H. c #DD794A",
"J. c #D27C4A",
"K. c #D87C50",
"L. c #E47944",
"P. c #EC7B43",
"I. c #E27849",
"U. c #E47847",
"Y. c #F07F49",
"T. c #87827F",
"R. c #B3836F",
"E. c #B38978",
"W. c #D6865B",
"Q. c #CD805D",
"!. c #EF8149",
"~. c #F28246",
"^. c #FA8546",
"/. c #F28149",
"(. c #FA8549",
"). c #F8884B",
"_. c #C98868",
"`. c #D78C66",
"'. c #CC8D70",
"]. c #C89478",
"[. c #D59472",
"{. c #D3916C",
"}. c #7D7F84",
"|. c #7A8082",
" X c #838383",
".X c #8F8F8F",
"XX c #928A86",
"oX c #9B9B9B",
"OX c #949291",
"+X c #8A9090",
"@X c #A4968D",
"#X c gray67",
"$X c #ABABAB",
"%X c #B7B7B7",
"&X c #B7B7B7",
"*X c #C79B82",
"=X c #C2B6AE",
"-X c LightGray",
";X c LightGray",
":X c #DFDFDF",
">X c #DFDFDF",
",X c gray78",
"<X c #EFEFEF",
/* pixels */
"o : o : * : o : * : o : o : o : o : o : o : o : o : o : o : o : o : o : o : o : o : o : o : o : o : o : o : o : o : o : o : o : ",
"B B B b B b B b B b b ;X>X>X>X;X>X;X>X>X>X;X>X;X>X>X>Xo :  X$X%X;X,X;X;X,X;X%X,X#X XB * v v v v v v v v v v B b B b B b B B B b ",
"B B B B B B B B B B v >X;X,X;X&X;X;X;X,X;X;X%X;X;X,X.Xo :  X,X%X.X$X X.X.X.X.X X#Xb : o : J .X.X X.X.X.XY J H v b v b v v v b v ",
".X.X X.X.X.X X.X* B b >X,X,X&X;X%X,X,X%X,X,X%X%X;X.XV o : $X;X$X.X$X.X$X X$X.X$X XB : o : .X;X>X>X>X;X>X%X%X#X.X X.X.X.X X.X.X.X",
";X;X;X;X%X#X.X Xo B v >X;X$X$XoX$X.X$X$X$X$XoX$X$XY B # : +X%X.X.X X$X$X$X$X X.XI b : o :  X>X>X%X,X%X;X>X>X>X;X>X;X,X;X;X;X,X;X",
"#X#X#X#XoX#XY I o B v <X&XoX$X$X$X$XoX$X.X$X X$X$XJ B o : v $X.X$X$X XOXoX.X$XJ B B : o : .X;X%X#X.X#X.X#X#XoX.X.X#X.X#X X#X.XoX",
"%XoXoXoX#X.XY H o b v <X;X$X X$X.X$X.XoXoXoX.X.X$X.Xb & a 2 M F Z G S XXXXU $XI j : > * :  X>X%X.X#X XoX X.X.X#X X.XoX.X#XoX.XoX",
"%X#X X%X XoXH B o : v <X,X.XoX.X$X$XoX.XY .X.X$XT.g s < 9 9 q 9 9 9 9 9 1 , d l > : : * : .X>X#X#X XoXY #XoXY .X#X X#X#X.XY #XoX",
"oX#X#X.XoXI v b o o b ,X&X$XoX$X X$X.XoX XK F h 6 0 9 Q 8.>.&.:.&.&.:.&.W 9 9 9 7 , @ > : I >X>X.X$X X XoXI oX.X#X.X.XY #X#XI .X",
".X.X X.XI b v v o : v $X<X$XoX$X.X.Xx.C i 0 9 ^ o.#.T ` (.F.d.d.d.d.g.f.| T %.$._ 6 w 1 % n ,X,X.X.X.X.XoXoXoX X.X#X.X#X#X X#X.X",
"I J I I b b : : o o b .X;X.X$X.X.XA 9 9 W ....1.g.N._ ' ^.V.g.g.g.d.f.f.| R P.U.n.@...^ 0 w @X$X.X$X X$X.X X.XI J H V V H V H V ",
"B B v v v o o o o : : I >X#X X.Xh / =.[ <.g.g.h.b.N./ ` (.V.d.g.d.g.d.h.o.R y.S.M.N.b.1.o.o.~ z H I H V H B B B B v b v b v v b ",
"o o o o o : o : o : B v >X,XP p q { ^.G.M.d.g.v.m.V._ ` (.n.g.d.g.g.g.f.| E y.A.b.F.n.n.e.N.2.q 7 C B b v v : : : : : o : o : o ",
"o : o : o o : o : : b v  Xx.t ( q } ^.F.B.v.d.M.N.n./ ` ).A.b.g.m.b.f.f.| E y.A.b.n.N.N.A.N.2.q ` ~ 4 : : : : o o o o o o o o o ",
": : : : : : : : : : b v K 1 ( f.W } ^.n.M.N.g.M.N.g.^ ' (.C.b.m.A.M.d.f.| R y.G.g.g.n.N.B.N.3.T L.7.5 # o : o : c : : : : : : : ",
"B b : : : : : : o : B ; 7 r  .f.W } ^.b.M.F.g.M.F.b.^ ` (.A.m.N.A.n.g.d.| R y.A.g.d.n.G.B.b.*.T t.7.t 9 n v v b v v v v v v v : ",
"oXoX.XoX.XoX.XoXoXo o - 9 <.f.h.T { ).f.V.A.b.M.N.f.^ ) (.F.M.B.N.n.f.f.' R y.A.f.d.n.A.B.b.>.T y.S.4.q l oXoX.XoXoXoX.XoXoXoXoX",
";X,X;X;X,X;X%X#XI : % 7 W <.f.f.! } ^.b.b.F.B.n.N.d.^ ' (.C.M.B.N.n.f.f.| R y.A.f.d.d.b.B.b.>.T y.U.4.! +.x.$X>X>X;X>X>X>X;X>X;X",
"#XoX.X#X.X#X#XJ I o , T d.f.f.f.! { ^.5.f.v.A.M.g.g.^ ` (.V.b.B.N.n.f.h.| T y.G.f.g.d.b.B.b.:.T y.I.d.f.| 1 D %X$X&X&X&X$X&X&X&X",
"#X.XoX.X#X X.XJ I * 1 T d.f.f.f.! } ^.b.g.d.N.M.b.g.^ ` ^.V.b.F.n.n.f.f.| R y.G.g.f.d.n.B.F.2.T t.H.g.g.( 1 f oX$X.X$X.XoX XoXoX",
"#X.X.X#X X#X#XJ > 1 r ( h.f.f.f.W { ^.b.g.g.N.b.f.h.^ [ ^.N.M.F.b.n.M.b.| R y.F.d.g.f.m.S.N.;.T t.H.g.d.| y u  X XoX.XoXI  X.X X",
"#X.X#X.X#X X.XI o 5 0.D.f.f.f.f.W { ^.5.g.f.d.g.f.f.( ) ^.S.B.N.b.b.N.b.| E P.F.g.f.f.b.B.N.2.T t.H.f.g.d.1.y x.$X.X$X.XoX XoXoX",
".X#XI Y .X.X#XJ - 7 8.!.b.f.f.f.W %.^.b.g.g.d.g.f.f.^ ` (.U.n.b.f.m.M.d.| Q P.F.f.f.f.m.F.N.;.T t.H.d.d.f.4.w P .XoX XoXY Y .X.X",
".X X XY .X#X XH = 7 e.).5.f.f.f.W { ^.b.g.b.d.g.d.f._ ` (.U.V.g.f.m.C.b.` R P.Z.f.f.f.b.b.b.<.T P.H.f.g.f.4.y P $X X$X.XY Y .X.X",
".X.X#X#X X.X.XV 3 6 T T t t t T q e Q T t t t t t t w r E T t T t T T t r q R T t t T t t t t q E ! t t t r 0 z XXoX.X X#X.X#X.X",
"oX#X X.X$X XL ,.e.e.w.w.w.e.e.w.q.q.w.q.q.q.w.w.w.w.q.q.w.q.w.q.q.w.q.q.w.q.q.q.w.q.w.q.w.w.w.w.q.w.q.e.q.q.q.q.1.C H H J Y .X X",
"H V H V K B k ;.~.A.A.A.F.'._.A.V.V.A.A.A.Z.*XQ.A.Z.A.A.F.V.A.Z.].'.V.A.V.Z.A.A.V.V.'.'.A.A.A.Z.A.V.J.].Q.A.V.A.-.i b v v B B B ",
"B b v : : : & %.~.d.f.f.g.k.k.h.f.f.f.f.f.h.c.z.f.g.f.f.f.f.d.f.c.l.f.f.f.f.f.f.f.d.k.k.g.f.g.g.f.f.h.c.j.f.f.f.:.2 o o o : : v ",
"o o o o o o o M ) ^ ^ ^ ^ ^ ^ ^ ( ~ ^ ^ ^ ^ ^ ~ ^ ^ ^ ^ ^ ^ ^ ^ ^ ^ ^ ^ ( ( ~ ^ ^ ^ ^ ^ ^ ^ ^ ( ( ^ ( ! ^ ^ ^ ^ x : o : o o o o ",
"v H H H .XoX.X Xd 5 0 0 9 9 0 0 0 0 9 0 9 0 0 0 0 0 0 0 0 9 9 q 0 0 0 0 0 0 0 6 0 6 0 0 0 0 0 q 0 0 0 6 9 0 0 2 B B b B B : : : ",
"H .X&X>X;X>X;X;XK 5 [ -.........r / -.*.@.........o.t ! ;.%.#.........#.E T =.#...O.....o...( r =.*...#.X.| 9 a V B v v b v v B ",
"H $X;X,X,X%X#X#Xm 5 8.!.d.d.f.h.! { (.B.M.m.d.f.f.h.( ) ^.L.m.g.f.d.d.N.' R y.J.f.f.f.f.f.f.>.T y.D.f.A.b.4.w m >X;X>X>X>X+X: B ",
"K >X%X#X#X X#X.X; 5 8.!.b.4.h.d.W ] (.n.A.A.f.d.f.g.( ) ^.S.M.m.d.d.b.N.o.E y.A.g.d.f.f.f.f.:.T P.U.n.N.n.5.q f  X.X#X.X X X: b ",
"H ;X%XoX X#X.X#X= 5 e./.b.p.p.d.W ] (.9.n.A.f.d.f.g.^ ) (.S.N.F.b.f.M.A.@.E y.F.g.d.g.d.f.g.:.T t.P.V.M.N.9.w a #X#X X#X.XV : v ",
"H >X#X.X#X.X#X#X= 5 8.I.u.K G i.p { (.v.n.F.b.b.f.d.^ ) (.A.m.F.b.m.A.n.o.Q y.G.d.g.g.b.g.f.<.T P.L.N.d.m.9.w s  X.X#X.X#XV : v ",
"H >X#X#X.X.XoXoX; 5 8.J.k +X|.c i { (.b.m.n.A.m.d.h.^ ` (.A.M.F.m.n.N.d.| R y.F.g.g.V.n.f.g.:.T t.P.N.d.n.9.w a #X X.X#XoXB : v ",
"H ;X%X.X#X#X.X#X= 5 e.D.M T.I M i ] ).d.f.d.G.b.b.d.^ ) ^.A.m.F.N.F.N.b.o.E y.F.g.d.C.n.d.g.:.T y.P.N.d.M.9.q s .X$X.X|.#XB f j ",
"H >X%X#XoX.X#X.X; 5 8.~.h.A F h.! { (.d.g.b.V.N.M.d.^ ) ).A.d.f.N.N.N.d.| E y.F.g.d.V.n.g.g.:.T L.P.N.b.B.9.w % B B B B B B : : ",
"H >X#X.X#X#X|.$X= 5 8.Y.d.M Z h.W { ).5.d.f.d.b.C.f.( ) ).F.g.b.N.N.n.b._ E y.F.d.g.N.n.d.g.:.T y.P.A.N.N.9.q $ o o o o o o o : ",
"H ;X%X.X XoX#X.X; 5 e.Y.d.M Z f.W { ).b.g.d.d.n.V.g.( ) ).F.f.f.N.B.F.b.| E P.F.g.d.C.n.g.d.:.T y.L.N.N.b.4.w $ : : : : : : : : ",
"H >X%X#X#X XoX#X- 5 e.!.d.M Z h.W { ^.f.f.f.f.b.N.d.^ [ (.N.f.f.N.N.M.v.| E y.F.d.d.C.n.d.g.<.T t.U.v.N.b.4.q - Y Y Y Y Y I : b ",
"H >X#X.X.X#X X#X- 5 e.Y.f.M Z h.W ] ^.b.f.d.f.V.N.n._ ` (.F.f.f.B.N.M.b.| E y.A.d.d.N.n.g.d.:.T t.I.b.N.n.4.r f ,X&X,X%X,XY : b ",
"H ,X%X#X#X.X#X.X> 5 e.!.h.M Z h.! } (.f.f.f.f.f.v.B./ ` ^.F.f.g.N.B.N.g.| E y.F.m.B.A.N.B.b.*.T y.I.g.N.N.9.w l ;X>X;X;X.XH * b ",
"H ;X%X.X#X.X#X#X= 5 e.J.m  XY l u } ^.d.g.g.f.f.v.B._ ` (.A.f.f.N.N.N.b.o.R y.F.m.B.N.N.N.d.:.T y.I.b.N.B.9.q g &X%X,X%XY B o b ",
"H %X%X#X.X#X X.X- 5 e.J.j .X|.v u { ^.b.g.f.g.f.g.N./ ` ^.V.f.g.B.N.N.d.| E P.A.b.N.N.A.N.v.>.T y.I.f.A.M.4.q s  X#X.X#XJ B : : ",
"b ,X X.X#X XI J = 5 e.!.a.D S a.t { ^.d.g.f.f.g.b.n._ [ (.Z.f.f.d.g.g.b.| E P.F.b.B.n.m.B.b.>.T y.D.d.A.b.s.y N #X#XoX.XJ B * : ",
"v %X#X#XoX+XB B # 5 e./.d.p.a.d.! { ).d.g.f.f.g.g.N._ ) (.A.f.f.g.d.g.g.| E y.I.M.F.b.m.B.b.>.T y.I.f.m.g.s.q S  X#X.X#XJ B : : ",
"v Y Y Y B B B B # 5 e.!.9.f.f.d.W { ^.d.g.g.f.f.b.n._ [ (.A.f.g.d.g.d.g.| Q y.U.N.m.v.b.B.M.>.T y.I.f.f.g.s.q C Y oX.X.XI B o : ",
"b : o o o B B B # 5 e.P.d.f.f.f.W } (.d.d.d.g.g.b.V._ ) ^.A.f.f.g.d.g.g.| R P.U.V.d.d.d.N.M.3.T y.D.d.f.d.s.r M #X.XI  XJ B * : ",
"B B B v : o o o O 6 q.~.d.d.f.f.T ] ).d.g.f.g.b.M.b./ ` (.A.f.f.g.g.d.d._ R P.U.N.C.b.f.M.N.2.T t.D.f.f.h.s.q k .X.X XY J B * : ",
"n b v v v b v f , 9 ' =. . .'  .q / -.| o... .o.@.| t W -.@.o.|  ...o. .! t { @.@.....| | ' _ r %.@. . .o._ 0 x  X.X.XoXJ B o : ",
"v Y $X$X#X#X Xu.;.6.;.6.6.6.6.;.6.6.6.6.;.6.6.6.;.6.6.6.6.6.;.6.6.;.6.6.6.6.6.6.6.6.6.6.6.6.6.6.6.6.6.6.6.6.;.;.1.I Y Y J b o : ",
"v $X,X;X>X;X=X-.~.L.D.D.D.{.`.D.S.S.S.H.H.J.[.W.L.D.D.U.D.D.S.H.{.W.U.S.H.S.D.H.S.D.`.`.G.S.S.S.D.D.K.[.W.D.D.S.5.d B B B o : : ",
"v $X;X$X$X.X@X;.~.d.d.d.g.R.c.d.d.d.d.g.d.h.E.k.g.d.g.d.d.d.g.g.E.R.d.d.d.d.d.d.d.d.R.R.h.g.d.f.d.d.j.E.c.g.f.d.&.2 o o o o : j ",
"v $X>X$X$X$X#Xp.5.#.&.#.O.#.O.O.&.&.O.#.&.O.O.O.&.&.&.&.X.X.X.#.O.#.&.&.#.X.X.X.X.X.O.O.#.#.X.&.&.&.&.#.X.#.:.X.x f * : : : v b ",
"v $X>X$X|.$XY L 1 0 0 0 0 0 0 0 9 0 0 q 0 0 0 0 0 0 0 0 0 0 9 0 0 q 0 0 9 0 9 9 q 0 q q 9 0 0 0 w q 0 0 9 9 9 1 : : : : : v b b ",
"v $X,X$X$X$X.X$XX 5 E ~ Q Q ! E r t ( ! T W Q ! W W q t / Q W W Q ! ! ! r q Q Q W ! ! Q Q ! t q R ^ ! ! ! T 0 % v c v v b B B B ",
"v $X,X$X|.$XY Y X 6 8.Y.N.N.n.f.T } ^.b.d.d.A.b.g.f.( ) ).A.g.b.B.M.b.f.| E P.F.b.F.m.b.F.d.<.T t.H.f.g.g.4.w P ;X,X$XoXY b v B ",
"v $X XH V H V H . 6 8./.b.n.n.d.W %.^.b.g.g.A.m.g.h.( ) (.C.m.B.C.N.A.f. .R y.F.d.C.m.m.F.g.:.T y.D.g.g.g.s.r S oX$X.X$X;XoXo B ",
"v .XH : : : : : . 5 8.!.b.n.n.b.W } ^.d.b.b.A.b.f.d.( ) ).A.m.N.b.b.n.d. .R P.G.d.d.V.A.N.b.:.T t.U.f.f.f.s.q m $X.X$X X$XB o B ",
"v : * o o o o o . 5 8.~.d.m.A.n.W =.^.v.m.N.b.d.f.h.^ ) (.A.n.F.b.b.N.b.| R P.G.f.f.V.n.b.g.,.T y.D.d.d.f.s.w S oXoX#X.X.Xb o B ",
"B v : : : o : o . 5 8.~.b.d.b.N.Q =.^.b.m.V.g.g.f.d.( ) (.S.F.N.b.m.N.M.o.Q y.F.f.f.f.f.g.d.,.T y.S.g.g.h.s.q ; B B B B b B o B ",
"B B b B v v v b . 7 8.~.d.g.d.b.! =.(.A.m.b.d.g.g.g.( ` ).H.C.b.g.d.v.N.@.Q ~.J.f.f.f.f.f.f.,.t L.H.g.h.g.s.w # o o o o o * o B ",
": : : : : : : :     2 w w w w w X @ w w w w w 9 q 6 + + w w 9 7 w w w 0 @ X 7 w 7 w 6 w 7 6 1 X 8 w 6 w w 1 . O : : : : : : : : "
};
