/* XPM */
static char *_04424aa6456457dc12ebd9f7194afcfwPBcv9LUYuLmpglO[] = {
/* columns rows colors chars-per-pixel */
"64 64 135 2 ",
"   c #37332C",
".  c #3C362E",
"X  c #3F382D",
"o  c #3E3931",
"O  c #40382E",
"+  c #443D34",
"@  c #483F34",
"#  c #474036",
"$  c #4A4236",
"%  c #464139",
"&  c #4C453A",
"*  c #4E483E",
"=  c #51473A",
"-  c #534A3D",
";  c #584D3F",
":  c #4E4A42",
">  c #544D43",
",  c #594E41",
"<  c #544F48",
"1  c #565046",
"2  c #5C5244",
"3  c #56524A",
"4  c #5B554C",
"5  c #5D584F",
"6  c #5D5750",
"7  c #5E5A52",
"8  c #625545",
"9  c #655847",
"0  c #625648",
"q  c #665A4A",
"w  c #6B5D4C",
"e  c #705F4E",
"r  c #625D54",
"t  c #685E50",
"y  c #6E604E",
"u  c #71614E",
"i  c #656056",
"p  c #6D6252",
"a  c #66625A",
"s  c #6A655C",
"d  c #6D685E",
"f  c #736552",
"g  c #786754",
"h  c #766956",
"j  c #7A6A56",
"k  c #736658",
"l  c #756A5A",
"z  c #7B6D5A",
"x  c #7E705D",
"c  c #6A6760",
"v  c #6D6A61",
"b  c #726D63",
"n  c #757166",
"m  c #7C7263",
"M  c #767369",
"N  c #7B756B",
"B  c #7E796E",
"V  c #7E7B71",
"C  c #816E5A",
"Z  c #83725D",
"A  c #89755E",
"S  c #847562",
"D  c #897761",
"F  c #867965",
"G  c #8B7A64",
"H  c #847B6C",
"J  c #8B7D6B",
"K  c #927D66",
"L  c #917F69",
"P  c #837D73",
"I  c #897F71",
"U  c #8E816E",
"Y  c #948067",
"T  c #93826C",
"R  c #9A856D",
"E  c #858176",
"W  c #8B8275",
"Q  c #868379",
"!  c #8B857A",
"~  c #8D897D",
"^  c #938673",
"/  c #988772",
"(  c #958876",
")  c #9C8B74",
"_  c #91877A",
"`  c #938A7C",
"'  c #9A8D7B",
"]  c #9D907E",
"[  c #A28E75",
"{  c #A18F7B",
"}  c #A4937B",
"|  c #AD997E",
" . c #8E8B81",
".. c #938D82",
"X. c #998E81",
"o. c #959185",
"O. c #9B9384",
"+. c #969489",
"@. c #9C968A",
"#. c #9E998C",
"$. c #9F9D91",
"%. c #A29583",
"&. c #A99681",
"*. c #A49986",
"=. c #AA9B86",
"-. c #A19788",
";. c #A39B8C",
":. c #AA9E8B",
">. c #B19D84",
",. c #B29F8C",
"<. c #A49E92",
"1. c #A99D90",
"2. c #AAA18D",
"3. c #B1A28E",
"4. c #B9A389",
"5. c #A7A093",
"6. c #ACA495",
"7. c #A6A398",
"8. c #ACA799",
"9. c #B2A694",
"0. c #B4A995",
"q. c #BCAB94",
"w. c #B0A798",
"e. c #B3AA9D",
"r. c #BDB19C",
"t. c #BBAFA0",
"y. c #B7B3A2",
"u. c #BCB2A2",
"i. c #C1AD96",
"p. c #C1AF98",
"a. c #C4B199",
"s. c #CEBAA2",
"d. c #C0B5A8",
"f. c #C4BDAE",
"g. c #CBBEAF",
/* pixels */
"u d _ S 0 = M _ q 8 < P I e @ b E d q 1 l N h X N ' S Z * Q ` j y s Q H u & N _ h y 7 V U F $ H y.x x 3 v U x = E H T Y * E ] m ",
"w 6 n l e & H P C 0 < M I 0 + n N p q 4 n N f & M B J F * Q 2.y 2 r M f 8 % M I h y 1 M H q $ N ` x t 7 v U h & E E U h * V ~ x ",
"q 6 b F e @ b  .C e < b S 0 @ H b x w 1 i W y * M N F z % Q ] h u q n m w & c P y y 1 a H 8 * M N h y 1 v F j $ s B S x o ~ E h ",
"w < c Z e % b Q k w < c H 0 + v d l y 3 i U h & n M Z G & Q ' x q s M x f > v n p 8 7 d n q @ N V h p 3 s ) Y = H ~ T p o M ( h ",
"e < v b e - N +.j f 4 v H 0 O c s l y 1 d U y $ n n m h * ~ @.A g 5 E F z - M P h q 3 v ^ f ; B v l q 1 n U h = E ~ Z y . V H y ",
"e 3 r S w , M ..z e 4 v I e + t l y 2 : d x 8 & n b z h * E #.y q 4 E m p & B +.h q 3 M ( j # Q V x x i V ' G & N Q x h . B ~ y ",
"w r b G j > P +.C z r N ' g : v N u q 1 n m 9 $ M B N z + ~ 5.y y s M E S - N +.x h a H ' y - Q n F x s E ^ h * H ~ U f # m ( f ",
"j r H I w , B ..m e r N :.t @ r N k 8 * N m y $ d M G p * E @.h f i E S S & B o.Z h a Q U h # Q ` x f s ` ^ F ; E ` / x # B 2.f ",
"f r k I j 1 I @.K g r V X.D : n N z 8 3 b b y $ d M l k % P #.C z i s U h - ~ +.x h i ! } h 1 E E x h a W U Z ; Q +.U Y + ~ @.y ",
"w n P H j : P ..S C r V X.K & S P S q > V J g $ d n x l % P ~ S x i V x q & ~ ` h p 7 ! ) p # ~ E z h 4 N U A = V E / z X Q ` x ",
"w r M S e @ B ..z D t  .( D @ N P k 9 < V W w + a V U y + B I z p a M m p % V Q h h 4 m J y # V n p y * d x 9 O a v x f % v ] q ",
"t 3 I b 2 + N P k w r P ( k @ b P S 8 > N _ 9 $ s M l 8   M H w ; 3 v l s + V Q p y 1 v B 9 # d n h 4 : d l ; # a v x i . V ` y ",
"0 r N b 8 @ v I p 0 6 N I e @ P P z 2 < N U 9 - d d s y   M N 2 i * i d f * M E p q 1 i F 9 # v v p 2 : v N 2 & v H U h o V ~ y ",
"f v  .l C : b ..k r 6 M ( e @ ! ..C f 2 N U f ; n V z ; . V P 0 ; 3 d h q & V +.p q 7 l N 9 # n n p y 1 V F 9 * v B E z o M W h ",
"S n P I e = b P g w r P I k % ~ ~ z f p E ( f ; n H U h + P o.q p i B U y ; M ~ p y i v x ; # M n y 5 < i m q $ n B F z % B ` z ",
"t r V S j @ v P 9 q 6 P %.C & P ! G z i ! U x - B E G z + P ;.D h a W U h 2 E +.x y 3 s m ; - v n z 2 * d d y & d d z 2 + B O.x ",
"z r B m 0 @ b P f 9 4 B 2.f * Q Q U x 4 m ' Z - I I S w @ ..o.D f i E U y ; ~ o.x y 4 s m 2 o s v p 9 * a m h @ s n h 2 o M ` h ",
"q < n m e @ B P y y a V ^ y * Q ~ U A 7 b m A ; P  .H e . P ..C 8 s M S f * M +.h y 1 n E y 1 i M 5 2 i a F U X M V h h X n #.h ",
"C r B l w , B ! y f 4 n ] h * E Q U y 4 b ^ z & Q ! S f :  .;.j q a V U f - ` Q z z 5 d U y p r ~ x 8 d n ~ F ; Q 2.( Y + ' *.U ",
"D s P Z 9 2 _ X.y h ; M ( h ; Q Q z y < N U j $ B ` F f : ! 1.f g s @.| f - ] _ Z A i E E x 9 N ~ U h b Q 2.x & +.$.T x % #.0.x ",
"S q ! J p & P O.f j 4 ! ( j & B ~ l q 5 N H j - M o.x y X E _ z j b I F R $ E @.x z r E 2.j 9 E Q / Y n ` 2.Y - ~ 7.Y y % ] 0.x ",
"p s E m p = ! ! f y s M ' f & ~ ! z C i V o.Z 8 E ` ' x X ~ #.h C b 1.^ Z 2 O.r.A Y M ~ ] Z ; ' #.) h B +.] U 2 ~ o.} A % O.W f ",
"w r N m z - ! ..y Z v ] ' h - ' W F Y a N ..J ; B E U x # ~ 6.h z s ! %.R 5 #.8.Y Y M +.q.x ; o.+.[ R n $.*.U 2 ~ o.U z * 5._ x ",
"f i N S h > B ;.j x i W ' h * ! ~ z G i ! H Z = M M T Z & o.#.A w M _ ,.R 1 f.r.Y Y V ~ q.) ; ' $.] Y n +.0.Y y O.$./ x * O.*.h ",
"w a ! F y - B @.x Y i E | t # Q W F f s E ] z & E Q T z % M ] z C V X.=.D 0  .w.[ | E 8.q.Y 9 *.$.) Y n ` r.Y 2 ~ Q ) h % Q ] p ",
"k a H F y ; m +.j y 5 ` ( f $ E B h u r B E h ; P ~ x h % N E l 0 a P S C : .._ Z z l #.2.R ; @.| Y Y v ~ 0.h - V ` ) y % ~ ` h ",
"f d ! ) u & E Q y z 5 ` ` S % ~ B z f i B U x $ B E U p o V E y e r n J C > ..X.R U s +.q.A 9 ` ~ ( h l H ] h = o.O.] z * Q +.U ",
"h a ~ U j $ E 2.z Y 5 E | y + ] B R h b ~ U f # ~ o.U f % ` ] f t r H / C 0 I 1.} } s ~ a.Y 2 ~ ` | Y i ~ 8.h & V O.| Y * ~ ! Y ",
"p a E U h = B #.Y U d ` ] f * E ! F x s H E y X Q V F h % Q ~ z k r _ { C 0 _ -.) R b 2.s.Z - E Q ( h v ~ 2.f $ E ] } Z * V ! h ",
"i 7 n F y & W r.x x a ^ 2.x $ B ! T h 7 N m y $ M M U 2 % ~ W j C a X.S A , I d./ Y B ;.q.Y & v ` } U H +.| q & V E Y y % Q ( y ",
"h 5 d U f = B @.Z x d N } h = E N m y 1 B x y & a E x x o E +.x q 6 H H C e _ 1.4.Y E +.q.Y # H E Y Y a $.2.p & M E T y + E ` h ",
"h 4 M W j $ B 2.x f s N 2.h X P B z y 5 n H 9 & d B N x * E +.x C s P _ C < X.t.} Y V ~ | h - Q Q } x v ` r.h - n E ) f % ~ *.h ",
"z s  .H e > B w.S C k n ,.k & ! B U y 3 P H e @ c I F m + V ..j k s 1.-.A 2 X.t.} A I <.q.z : O.X.>.D d 8.%.Z 2 P o.) j ; o.O.A ",
"z s P ' C > N 8.g z b M %.S : N B G f d P H C = v N S S & P w.e C I X.L A < X.g.[ G I o.9.R > I <.,.A N ..-.U q o.-.) g > +.O.G ",
"j s I F C , P 1.S z v @.1.D = ! N T f b o.P J > P I L p % P ;.z q H _ I C 0 1.d.[ j v ' ' S ; -.1.[ f H Q _ z - ~ ~ / j & o.] S ",
"z r m / g , I -.e Z v  .( D & X.` G f a ! I Z , P P H S % Q -.A e c ! I C : P 1.S g r ! ( z = `  .D f a I X.S > P ! J Z % +.:.Z ",
"t s N F j > n @.w t r ..' K , P ! x h s I I j , P  .F k +  . .j k r ! I C > C 1.A u y E ' f $ M ! S w 4 B O.e , c b Z z % B ! u ",
"w c B J e = P I f e c P -.k @ P E Y Y s  . .G = N I ) C & o.1.k e 6 I X.e : V P h y 4 n H y X M N z e 5 P ^ g = P n l 8 o B m w ",
"w 6 B H f @ ! @.j j 7 V X.e @ M E J x r I I S 2 v  .C D @ ..1.t C c P X.C : V X.h y : v U y # x H h e r P X.z - n m z w . P H f ",
"2 r b J e > P +.G j 6 V &.k $ M E J S q X.( A = b X.J Z @ V 1.D C b Q I e % P X.x h 5 x E y # n N f z a I I j - P I z e + ! _ f ",
"e r b H A = N 1.F C b P _ k @ S V x t r H I A > I  .I C @ I  .j k r V C f $ M ~ p w 5 b F y % d M y f a B U j $ b P k m   I ` e ",
"9 r M F C = Q t.C S c H L k & P V / F c I ;.g - P ! J C + V I k t r M b w $ M @.f f 7 s U y + d d p f 4 B ( j = N n C j + b H e ",
"2 r I I z <  .-.k C b P _ e & C B F F r ..1.C @ I -.D k + c P w 6 6 b b h % M o.y z i M U f % M n z y 1 V U u $ S N S m O ..X.g ",
"w t I I e @ Q -.C C a I { C < b P z z 6 I O.C =  .@.G g % V  .t e 6 H k p & !  .p m 4 b U y * n V f x 4 E B f $ b V k k o I W e ",
"j c I I j 2 _ 1.C C b Q %.D 0 P _ { D r I _ k , ! ;.) p * E ! h t 6 M k p & !  .f U i Q 2.h & M M m h i ` H x # N n S h O ..! j ",
"t c I L D ,  .<.A C r H ,.L < @._ I D r @.-.D , N ;.L C : E ` h e 6 B S k & P Q z G i Q 2.h ; P V ^ l s E ] z $ N ~ S x + V I f ",
"f s n I D > ..1.k C s I &.G 0 N +.X.C c I X.j @ P ! J Z : N +.u e 6 b I z : P ..x l r E ) h ; B W U l a E ` j = b E F S @ ! ' z ",
"e r P I D > ..@.A C b X.1.C > P _ { G v X.X.l , ..Q D x * V 2.x C b Q @.l 1 B  .Y z 7 V U z ; s E Y i 5 M ^ j - b b z S o Q X.e ",
"j r H W h * E 5.f j r ~ r.G , ! #.U x B ~ ` f 1 E ~ T ) * ~ 2.S f v W ( f 4 B O.z l r P I e = b B h y 1 v ! A & N m x F o Q ` y ",
"e r P J Z 2 @.5.A x i E 3.C = _ $.l z s #.] D 2 ^ +.U D * ~ ' f h 7 m b q @ V _ z p 3 v L e @ I B h y s s l A = n W ) x *  .O.Z ",
"S a ! ^ x y Q $.A x p ~ q.j > ! ~ U Z N W ( A 2 E  .U x + M ' f p 4 s l t + N  .j p : v H 0 @ M B h ; r b ! f w  .! x A % E *.A ",
"z 7 ..( Z 4 E #.j g r ~ } f > k o.x h 7 N ( Z ; N V ^ u + N ` j q 3 v p w + b ! j 0 4 n J e @ b B x y 2 H O.Z 8 +.I } A # ~ %.A ",
"S a ~ S p 1 E 6.y x b N ` w = c E F f i m E y $ n V F q + M E y 5 3 i l w O v ! j e 4 n J e @ M B x p a V @.K ; +.8.] Z $ #.0.G ",
"Z d ~ ' h ; ~ o.f g s b J f > b B x f 7 n U h * n V F h % V E y f 3 d l w + c _ t 8 4 N I q = P B h f r n o.G = E ] 2.U % ~ 9.x ",
"f d  .H A 4 H o.Z Z s E *.h - Q W x y 3 n ^ y & v V l f . d ~ f q 7 d l f + b P q 9 3 M I w @ P M z y 4 M W y & d  .U Z 1 ` O.A ",
"j s ~ ( Z - o.` A Z i H *.Z = E Q x p p N ` f & v E F y + E W q p 7 v x t + c I w 9 3 M X.p @ M B p q 3 n W q + v M U p % ' @.Y ",
"f d B U h = Q 8.z f d +.*.x $ Q ! G w q B 5.x - P ! H h o V I C q 5 V l w $ N P e q r B _ e & M Q x 2 5 s x 8 # a c x h * B O.Z ",
"y r n F f & ` 7.Y h d ` 0.y 1 ~ o.T j s H @.G $ B ! T z + N _ k q 7 V l q # V E k w r N X.e & b N h y 1 v U ; X n B x Z * ` ` h ",
"y i B Z y = ` y.A Z d ~ ] z & ` ~ T z a V O.h $ ! ! F e :  .I k 9 r ~ x w & V Q k g 6 N %.C > P M x 9 : N m ; ; M Q F h % ~ ` h ",
"9 i N U f * Q 5.A f s W 2.x * o.E D j p E ] Z = b P _ C .  .! j 9 4 N S q & M ! e 0 r b ' w , I Q m 2 1 E W f $ B o.m T * E ` h ",
"f a Q ( Z 2 o.6.U x N ~ 2.Z $ b P z j 4 I ^ f = b  .^ C & +.I w k < P r g @ M I w w r m { C $ I ~ T y r B W y # B ` ( A * B Q y ",
"9 s ` T Z ; ~ ~ Y x d W 2.z = B  .S u r b H f > B B F j % P I k g 4 b k f @ M  .e e r H &.f $ n o.F z i ~ 3.z # N E ) f * B Q y ",
"x i ` m h - E ` x y 5 B ) f $ E ! S j a H I e & P B F A &  .%.t w r ! S l @ I  .p e r  .{ h $ N +.J x 6 W 2.A $ E ~ ] y * N ' p ",
"j d W U A * V ^ y y 3 N U f X E  .L w 2 b W z @ n H ^ z @  .I g g r I ^ e & P I j f r ..' g = ! ;.| f a B ] x ; Q W / f * ~ @.x "
};
