/* XPM */
static char *_1b6a516bf7f48838b4b4e1648fce6f8N66AKmdm5DR89dOJ[] = {
/* columns rows colors chars-per-pixel */
"64 64 179 2 ",
"   c #191513",
".  c #1D1A16",
"X  c #1B1A1A",
"o  c #241C17",
"O  c #241E1B",
"+  c #24201E",
"@  c #2A221C",
"#  c #1F1E22",
"$  c #242322",
"%  c #2B2625",
"&  c #2E2A26",
"*  c #27292B",
"=  c #2C2B2B",
"-  c #312720",
";  c #322C26",
":  c #322E2B",
">  c #34312D",
",  c #38302A",
"<  c #343332",
"1  c #3A3633",
"2  c #3C3936",
"3  c #313439",
"4  c #393738",
"5  c #363939",
"6  c #3D3A3A",
"7  c #403127",
"8  c #42342B",
"9  c #48382F",
"0  c #433B35",
"q  c #4A3D35",
"w  c #423E3B",
"e  c #483F3B",
"r  c #4E4136",
"t  c #44413D",
"y  c #4A433C",
"u  c #51463D",
"i  c #53483E",
"p  c #614B3D",
"a  c #3B3E43",
"s  c #3E4144",
"d  c #454342",
"f  c #4A4643",
"g  c #4C4945",
"h  c #47494B",
"j  c #4D4C4A",
"k  c #514741",
"l  c #534B45",
"z  c #594D43",
"x  c #524D4B",
"c  c #5C5147",
"v  c #55514D",
"b  c #5B534D",
"n  c #5D584F",
"m  c #4E4E51",
"M  c #524F51",
"N  c #4F5151",
"B  c #555352",
"V  c #5B5652",
"C  c #5D5955",
"Z  c #575758",
"A  c #575A5C",
"S  c #5D5C5A",
"D  c #635347",
"F  c #62554C",
"G  c #68554A",
"H  c #6B5A4A",
"J  c #635750",
"K  c #635C55",
"L  c #6A5E54",
"P  c #625D5A",
"I  c #695E5A",
"U  c #6D6156",
"Y  c #65615D",
"T  c #6B635D",
"R  c #6F685F",
"E  c #756456",
"W  c #73655C",
"Q  c #73685E",
"!  c #79695B",
"~  c #5E5F61",
"^  c #656362",
"/  c #6A6662",
"(  c #6D6965",
")  c #676768",
"_  c #696668",
"`  c #676B6C",
"'  c #6D6C6A",
"]  c #716762",
"[  c #736B65",
"{  c #7A6D64",
"}  c #736E6A",
"|  c #796F6A",
" . c #777167",
".. c #7B7066",
"X. c #75716D",
"o. c #7A736D",
"O. c #757473",
"+. c #7A7672",
"@. c #7D7975",
"#. c #757678",
"$. c #7D7C7A",
"%. c #7E7D7A",
"&. c #81756D",
"*. c #807771",
"=. c #807872",
"-. c #827B75",
";. c #847B76",
":. c #817C76",
">. c #877D77",
",. c #827D79",
"<. c #817E7A",
"1. c #827E7B",
"2. c #827F7D",
"3. c #847F7C",
"4. c #897E7A",
"5. c #80807F",
"6. c #84817D",
"7. c #85817D",
"8. c #89817C",
"9. c #8A837D",
"0. c #8D867F",
"q. c #8F887F",
"w. c #7B7F82",
"e. c #858482",
"r. c #878684",
"t. c #888280",
"y. c #898482",
"u. c #8A8683",
"i. c #888785",
"p. c #8A8784",
"a. c #8B8A87",
"s. c #8F8884",
"d. c #8C8986",
"f. c #8E8A86",
"g. c #868788",
"h. c #898788",
"j. c #878989",
"k. c #8B8A89",
"l. c #8F8B89",
"z. c #8D8C8A",
"x. c #8E8D8A",
"c. c #908983",
"v. c #928B85",
"b. c #908B89",
"n. c #928E8B",
"m. c #908F8C",
"M. c #948F8C",
"N. c #998F8B",
"B. c #8F908D",
"V. c #94918D",
"C. c #98908B",
"Z. c #9A928D",
"A. c #8F9091",
"S. c #939291",
"D. c #949392",
"F. c #9A9592",
"G. c #9B9894",
"H. c #9C9995",
"J. c #959799",
"K. c #989798",
"L. c #9C9B9A",
"P. c #9F9D9B",
"I. c #A09592",
"U. c #A09B95",
"Y. c #A29E9A",
"T. c #9FA09E",
"R. c #A3A19E",
"E. c #AAA19D",
"W. c #9D9FA0",
"Q. c #9FA1A2",
"!. c #A3A3A2",
"~. c #A9A6A3",
"^. c #A7A8A7",
"/. c #A9A8A5",
"(. c #A9A9A7",
"). c #ACABA9",
"_. c #B0AEAB",
"`. c #B0AFAC",
"'. c #B3B3B1",
/* pixels */
"/ T Y X.+.+.b.d.0.+.M.l.O._ $.} T X.C O.R X.R [ v $ V.^.).@.X.^ ' T Y X.@.@.d.d.s.:.v.e.+.+.8.-.[ ( S O.W +.T [ b $ V.^.`.+.X.^ ",
"i.r.@.Y.z.O.l w w ( g B T ^ $.+.+.5.$.N > g > ..+.g v 6.+.V f @.z.r.@.P.n.X.f w 2 X.f j Y C x V V ( O.x : g < { o.f v 7.X.V y <.",
"P } f / Z % # = / 3.V t g T r.+.' V.o.v @ + b  .t n T B d V j j ^ ' f / C * # = T 6.b t x ^ f.k.X.u.( V - O b o.j C T v t B N j ",
"^ o.O.= 3 B P z c y D E { B Y / K t $.V.+.U [ G.' +.Y C | &.v = S o.} = 3 B P z c t D Q W x } S g f _ a.-.[ { V./ } Y C o.@.v $ ",
"<.3.' v s j B P 7.7.b 9.N.+.b ( n V 6.j.v.R R B n $.+.K Y [ K t f h j d a m B P 8.e.b $.q.@.C ( o.( #.} ' o.Q / V 2.6.J Y ] P x ",
"r.g Z g > B v l } <.R d.O.x V ^ $.$.f 5 ` ` ( Y 6.X./ ( x f x v : # 4 d * M l z X.6.R 6.X.N C ) @.$.g 4 _ ' } [ o.[ / ^ l l f ( ",
"#.S s t j ~ X.v V / T ^ Y } n.z.d.O.C ( ' P 5 C R v g O.W k 1 > X * < 6 h P ' x l S ^ n Z } v.j.e.' P [ ' ^ d B T / B O.W x x u.",
"f d x J s B B ^ Y K R C T T Y e.$.' 5.+.j.$.O.X.( #.<.5.D.D.h . 6 5 x P d Z S | $.Y R B R T P 7.@.` e.#.a.$.O.} / O.<.6.D.S.j x ",
"} Y [ Y j 3 #./ B / Y Y l j <.7.e.B.$.S ' O.) Y r V %.5.O.$.s f } Y } Y B s O.+.C X./ Y j j 7.7.r.B.$.K X.X./ Y q C :.7.+.@.d f ",
"<.O.O.Z ) ~ w._ 7.z.0.$.K.D.o.T X.X.Y t g 5 y Y o.[ g Z ` ~ d O.3.+.O.A ) ^ 5.Y V.H.c.$.K.A.X.R X.X.Y t h 2 t Y | [ f Z ` S d O.",
"O.@.S m S Z #.^ S X.( m.T.T.$.1 t f > y > t i R T ^ P 6 N ~ ^ ) X.@.P m A B / v X.o.( V.T.Q.$.2 t t > y > 0 y ( / ^ P 4 m ~ ) ) ",
"T f h a d j #.e.d / Y C ( Q Y z t l Y l n n B ) B $.) / X.~ S R T f h 6 s B e.$.Y Y v R o.X.R i t j Y g b C B / B w._ / O.Y S _ ",
"V , s #.$.#.2 w ; = = ^ #.5.Y & & Q R F 2 Y B Y 7.X.a V 0 x < C V > a #.$.O.t j 1 Y P $.G.B.( & ; R U n 2 Y B Y @./ 6 b 6 x < K ",
"4 4 = h h = ; @ > + w V Z d ( $.C K l r O.D.a.} V.+.B / @.T > > 6 4 = h h = , ; t V K N ' d ( $.S K c r +.V.a.' 5.X.Z R @.T : : ",
"o.V v +   & q q g t C Z / J y t b c n c  .9.6.L _ ( @.g g j > b | V v +   & q 9 f t 4 5.j.X.i t n n n c X.9.7.K ( _ @.j f j : B ",
"g f l 0 y w r r 2 t t f d V $.b Y [ f 6.+.K +.8./ T P } f = 5 b l f l 0 e 0 y q 2 t b O.^ ( $.C Y ( y 7.O.K +.9.T K P } h = 1 b ",
"y 1 1 q 0 : h d j B ^ ) V O.V d x x +./ O.2.u.C X.T ^ g ( -.o.Y f 1 4 q 0 & j d x Z } +.b X.S h v l +.^ O.7.7.C X.Y Y j ( @.o.Y ",
"7.P k } z.$.+.( ( x C O.&.v.o.$.g./ V.O.S !.L.Y u.K.e.X.} P Y ' 3.P u [ A.w.O.I _ M M O.[ [ o.$.r.^ V.+.S Q.P.Y e.V.5.X.X.K Y } ",
"g ( R 7.S.g.P ] T P b Y T } V X.< V <.X.V.m.+.5 _ @.e.!.R.L.z.' l ( / t.A.r.I T _ _ k T / B v ' 1 C 7.X.V.a.#.2 ~ ' $.!.R.L.s.X.",
"W } b x Z ] J _ O.g V / *.s.P $.c K [ V j.D.( V z.S O.^.R.'.R.X.W } J x B _ K _ } x / <.@.S t ( z K ( B k.D.( K p.K X.(.R.'.T.X.",
"T O.t.~ M V V w j h +.X.+.v.K H.V.C + z / ' 7 c +.[ i ( C 4 B @.^ X.e.~ x C V 6 j h O.3.+.x B $.p.C @ c / ' 8 b ( } l ' b 6 B $.",
"#.Z M x w w X.#.#.P @.[ Y C c @.+.r D p [ 7.0 0 v t c } S $.^.P.$.B M x w w X.5.#.P 3.#.O.6.} #.' u H p [ 7.0 t / b b } S $.^.P.",
"$.#.^ O.v $.$.$.z.@.Q i.v.&.).`.B.( R =.H.V.d.C G.D./ @.e.e.!.g.$.O.) O.x 5.$.#.K.*.I ;.#.} e.x.5.[ R +.P.V.r.C a.u.Q @.5.5.!.j.",
"g.P K _ P m.h.O.#.4 / X.X. .r.g.Y Z.V.0.` Y / X.R.R.9.$.S.V.e.j.e.~ K _ P n.b.2.O.4 ^ } | / w.e.^ V.n.0.( Y Y / e.V.9.$.B.D.e.j.",
"m ' @.O.x | T 4.l.' t.l.@.} ` ' v Y 7.@.D 8.6.p i  .D a.D.e.' ` m ' #.O.v | I t.A.[ h.l._ _ } ' v T 6.+.D 6.8.c i } D d.K.e.' ` ",
"@.P.W.b.G ] 4.O.2.@.h.z.^ Y e.r.X.7.R.R.q.Y q.o.R.D.D >.@.Y g.A.$.Y.P.m.G ] 4.+.t.*.h.h._ C $.i.X.6.R.R.s.Q 6.X.V.v.F :.@.P g.D.",
"_ K.h.f 4 =.] b T I <.w.$.C G.L.:.o.( 7.U :.H.+.X.v P.'.).G.K K.' K.h.f 1 @.] x _ I *.O.[ K h.G.@.o./ 6.Y @.D.o.( v G.'.).F.P K.",
"] ' h.h.5.A.m.O.b.' D.t.X.X.3.v 7.:.o.9.@.Y 6.B.( J X.+.5.e.X.X.] _ h.l.5.S.S.@.M.] S.t.t.} O.B 5.@.o.0.&.P e.z.} K O.+.e.r.} O.",
"+.t.F.a.9.@.O.g P x b.P w ' +.X.<.<. .X.@.` D.!.%.v.Z.R.G.O.$.Z.+.e.K.d.t.=.#.x Y x S./ > c X.} $.7. .( X.( A.!.-.n.F.Y.G.+.$.Z.",
"F.} G.u.P @.C *.] T _ | *.| X.y 5.D.7.D.D.y ) $.6.6.6.@.@.Z 8.E.Z.| F.u.K @.J *./ Y ' [ 9.b B t Y k.5.0.s.f ^ $.<.<.3.@.+.Z 6.E.",
"] U i.l.+.@.Y g *.k.@.C ' | D.;.l X.( K j i 9.j.5.%.< ' n.%.Y =./ E u.l.#.@.~ f =.v.7.+.o.o.V.0.X.+.' Y g z e.u.5.$.< ' z.$.Y *.",
"o.+.e.d.a.i.Z J / F x k F v K B R 9.B.n Y R.@.R Z 2 ( 5.O.S T P +.@.5.b.h.h.P J I K V w b F x ( ' [ 7.C Y Y.+./ S 2 ( 5.O.S R P ",
"( I T O.@.@.h.h.q.+.V.a.X.( $.' T X.S O.R +./ { v $ V.(.).o.X./ ' T T o.*.@.l.s.d.-.h.t.+.+.*.*.' / P O.W @./ { b $ x.(.).+.X.^ ",
"i.i.<.H.n.} x w 4 ( f v T T $.$.@.6.<.v > f > ..+.f v 7.+.Z d $.l.t.$.P.m.} g 6 4 | f x P C V C J _ O.x : g 1 [ o.f v <.X.V y $.",
"P ' f _ C % # = ( 7.b t j ^ j.7.' V.+.Z @ o V o.t n T v t Z j j Y ' f ( C * # = / <.V w j T l.h.O.s.( S - O b o.f C T v d b B h ",
"Y +.O.= 3 B P z D y D ! [ V X.V t d ' s.5.o.! R.X.+.Y J o.@.x $ P @.X.* 3 B P z c e D ! W v ' S f g _ i.3.{ ] m.( } Y C o.@.v $ ",
"<.3.} M s m Z P e.7.V 4.Z.8.Y +.R.^.^.^ ^ X.Q ( C p.5.K U [ R l <.2.( B a m B P i.t.b 4.V.6.T +.H.F.Y.^ ) +.! [ b 5.5.K U { Y l ",
"i.x Y V q J u z X.u.W v.O.v Y o.5.`.G.~ O...:.o.o. .( ( 5.( z ' l.x Y V w P u z } s.W v.o.v Y $.l.K.z.P O.} o.} o. .( ' 5.[ l ( ",
"D.O.v v H / J u c 0 J U.p.X.Q v v < 2 Z V.9.o.v ( p.( P.Q.^.+.K.K.O.M B H / V k c 1 b Y.Z.Y C Y P d w S V.:.X.l / u.( P.!.^.@.D.",
"Y B A & 9 = 4 C n.v.E <.T b ( f & ~ T X.v.8.V.7.+.f d 5.K.B.Y X.^ B C & 9 : , V N.v.H ;.Y 0 U t t Y ' } z.:.0.@.| f d e.K.z.Y O.",
"K z ( > . = j v.v.o.F Q [ Q 6.0.6.X.i X.a.6.n X.Y  .' $.T e.d.R L c / > . = j v.d...n Q [  .G.V.<. .l  .k.7.x X.T o.' $.R j.d.R ",
"K Y 5.e.+ 4 9.( C H o./ b g _ T R v o.T./.+.d.X.R Q L P.D.P.a.o.K P 5.e.+ 4 9.( C H  .R b k X.X.R x +.T.E.+.d.X.( / U P.D.H.u.o.",
"b t Y P Y 7.G.v.v.o.] | ..;.7.R % T { o.%.6.B.Y $.R.V.7.Y V.<.+.V t Y S Y 6.H.v.s. .T [ o.o.' K = R { ..$.7.B.Y @.Y.V.6.Y V.$.@.",
"V J R x 9.Y X.K P g l [ o.O.D.7.U T { U n ) 6.T Q d.d.X.h b v Y n n Q x u.R +.Y Y n Y 7.o.+.T.j.R R  .T S R 7.Y W d.d.X.j b v Y ",
"$.X.q.d.f.X.$.f y D o.[ [ ( $.R c t t y Y f.<.n 6.V.z.> K Y Y o.$.X.7.d.v.$.$.d l [ Y X.[ ( 6. .c t y g Y a.7.F 7.V.z.> S K Y o.",
"6.+.a.C N 6.Z Y v.c.N.<.X.s.V.B.j.B.R K T X.%.o.( d.G.X.@.@.5.C 5.@.c.K B <.v Y V.v.( v v.a.B.B.a.V.R C Y X.@.o.( r.H.X.$.@.9.C ",
"V.+.V.6.( r.q.+.o.@.:.v V +.p.$.2 ( E.E.9.g ( g B d t K p [ j.T.V.O.V.3.' e.k.-.>.$.g g X.$.a.$.1 ( H.E.9.g ' f Z d t U p ( 5.R.",
"' ( X.$.G.R.r. .X.% t S Y 2 v q.+.q.v.V.V.( <.( 5.b X.R.q.0.(.^.X.( X.$.V.~.V. .@.V C V t 2 C v.X.0.q.V.V.( :.' 7.b X.R.v.7.(.).",
"v V.5.9.} d.B b.v.g j C S Y $.V.R.X.j K  .Y Y ( T.@.7.R.P.@.X.) x n.t.9.} v.B d.s.v v v Y ( Z.V.V.^ f C } / K ' P.+.6.R.H.@.X.) ",
"Y v / +.} N.3.[ x K ] o.$.o.3.2.d.X.Y 1 h #.O.9.T.H.E.[ v k.A.z.P V / +.} F.c.] g C ( X.e...7.' X.Y Y 2 h #.O.e.R.U.E.[ B l.S.l.",
"T 8.>.x v Z.i.4.o.X.( b.d.P ( } 5.d.Z.e.%.^ ( v.@.9.q...b $.| ( / u.;.x x D.h.n.:.X.( z.V...' [ O.6.v.9.5.( ( v.$.9.v.o.b <.} ' ",
"V.6.v.0.L x I } <.( / v.o.R D.N.H.<.6.u.<.@.d.G.' $.V.7.X.5.O.d.n.3.N.9.F k I [ 6.' T 0.@.' G.V.G.6.6.7.@.+.u.G.' :.V.<.X.5.O.r.",
"( R.~.G.| F 2.x.U.H.} 0.a.$.e.O.#.C / %.X.$.X.+.:.R.G.e.6.R.v.7.[ R.~.I.o.J 5.A.P.G.X.5.k.r.2.' X.S R <.X.$.o.$.$.R.K.a.<.R.v.e.",
"..6.' 6.v.v./ t.5.} o.$.o.} C ' S.x.6.Y V ( K.z.R.G.V.V n ( Y K { 3.' 3.v.c./ 9.$.[ o.<.@.X.' +.B.z.5.( b Y G.a.R.F.n.C b ' Y P ",
"p.D.u.o.V.n.P o.>./ K | V B v g.A.+.:.n.[ { ( [ &.$.B.O.( U.7.R i.S.i.o.V.V.Y o.>.W I } V B Z 5.a.+.$.v.....R ' +.6.V.O.Q H.9.L ",
"6.} ( } T P I o.V K 5.( n +.P.R.G.v.d.8.&.V.<.( X.Z.p.6.q.o.o.! 3.} ) | Y P T &.V P u./ F @.H.R.G.j.d.7.+.v.:.(  .n.a.<.s.o.o.! ",
"/ J $.$.b w &.s.7.v.%.>.T K / <.@.B ..o.v.V.v.[ u.u.0.;.I.N.*.v.Y J <.<.C 2 3.c.7.H.9.9.X.L ' 2.@.V [ o.v.Z.c.} 9.q.8.>.Z.Z.>.I.",
"u.b.D.d.L { W T a.s.n.z._ ( ' ( Y C 9.p.V...1 6.t.F.9.J ;.N.{ e.9.M.m.t.] &.E K F.~.Y.H.!.!.' T Y C 7.q.U.@.y 7.u.Z.>.Y :.v...*.",
"( D.g.f w *.{ V / T $.5.<.P h.n.V t R @.X.T R  .P ( b.N.m.S.O.F.' J.t.f w 2.&.H W | i.D.Y.A.X.d.V t [ o.=.[ W } b j V.!.H.F.6.a.",
"/ } h.h.2.D.m.O.s.[ V.t.O.} 2.x 6.$.X.8. .n 6.p.:.=.5.O.h.5.} O./ | g.i.e.l.N.| ] ] i.$.$.#.' v O.Q >.v.o.z o.a.O.U +.O.e.5.+.$.",
"+.t.F.l.9.@.} u P x d.S w [ +.X.5.7.X.X.@.' D.!.+.v.V.G.m.} $.N.o.e.D.a.t.*.O.j _ K <.B 2 l ( X.@.+.o.X.o.( D.!.=.n.F.Y.G.+.O.7.",
"F.[ K.u.P *.Z @.] ^ ( o.*.| X.y $.S.6.V.V.f ^ $.7.7.;.@.O.C 4.Y.G.} H.u.P +.K *.] K ( [ 4.F v f Y r.9.q.d.f ^ $.<.3.<.@.+.Z 8.Z.",
"Q U t.l.@.#.Y j -.d.@.V }  .V.:.l X.( C x z 7.a.5.$.< ' m.$.U *.] U i.l.@.#.Y f -.u.9.O.o.o.D.5.X.@.( C f z 7.d.5.$.< ' m.@.Y @.",
"+.@.e.l.b.h.B F I V x y b b C V Q 9.V.C Y Y.@./ Z 5 ( 7.} A / P +.+.e.b.b.h.B J T J v q v b f ( ( ' 9.C Y R.@./ Z 2 _ e.} Z / L "
};
