/* XPM */
static char *e305488bb04a4c03eef8592e2464812201H2lQ10m8e9voKo[] = {
/* columns rows colors chars-per-pixel */
"64 64 205 2 ",
"   c None",
".  c #31161A",
"X  c #3C240F",
"o  c #1B232D",
"O  c #182632",
"+  c #3B3D3B",
"@  c #511A1E",
"#  c #721507",
"$  c #4B270D",
"%  c #492C12",
"&  c #7B2E07",
"*  c #483C2F",
"=  c #722933",
"-  c #2B5F08",
";  c #3D6F12",
":  c #376A0F",
">  c #5D4D0D",
",  c #6B5615",
"<  c #765B19",
"1  c #68530E",
"2  c #44751B",
"3  c #4B7D1B",
"4  c #457917",
"5  c #46631A",
"6  c #7D6114",
"7  c #5D5B39",
"8  c #41562E",
"9  c #467A26",
"0  c #41783A",
"q  c #02185D",
"w  c #021757",
"e  c #02104A",
"r  c #18304C",
"t  c #021D66",
"y  c #04256D",
"u  c #08286C",
"i  c #022673",
"p  c #052E7D",
"a  c #0A347E",
"s  c #11387C",
"d  c #56065E",
"f  c #4E0457",
"g  c #433A5D",
"h  c #5A0A63",
"j  c #5B0865",
"k  c #640C6D",
"l  c #680C71",
"z  c #6C1174",
"x  c #72147B",
"c  c #75247D",
"v  c #721351",
"b  c #3A7053",
"n  c #114477",
"m  c #314B73",
"M  c #336B78",
"N  c #675F79",
"B  c #5B6A64",
"V  c #8B1A17",
"C  c #BB0B0B",
"Z  c #AA180F",
"A  c #AC1A18",
"S  c #B31313",
"D  c #BD1311",
"F  c #B81D1D",
"G  c #B8140F",
"H  c #883806",
"J  c #922D14",
"K  c #A32607",
"L  c #B91F22",
"P  c #882025",
"I  c #C40D0D",
"U  c #CB0D0D",
"Y  c #C6100F",
"T  c #C31212",
"R  c #CC1313",
"E  c #C41919",
"W  c #CB1D1D",
"Q  c #D21515",
"!  c #D11D1D",
"~  c #D91D1C",
"^  c #D10E0E",
"/  c #E11F1F",
"(  c #CE2A19",
")  c #DB1F20",
"_  c #E01F20",
"`  c #CE272C",
"'  c #9C4D09",
"]  c #9A5816",
"[  c #90480D",
"{  c #A64708",
"}  c #B2490A",
"|  c #B55A0C",
" . c #AD5B13",
".. c #B05610",
"X. c #936D1C",
"o. c #9E7A19",
"O. c #AB641F",
"+. c #8E502C",
"@. c #896820",
"#. c #C85909",
"$. c #C74A0C",
"%. c #DA680B",
"&. c #C86C19",
"*. c #DC7316",
"=. c #CC771F",
"-. c #E87B17",
";. c #DA5325",
":. c #D67D26",
">. c #D77D2A",
",. c #CD7829",
"<. c #B93942",
"1. c #8D287D",
"2. c #824252",
"3. c #A24754",
"4. c #568D1F",
"5. c #51861E",
"6. c #4A8016",
"7. c #558A22",
"8. c #5D9325",
"9. c #4F8122",
"0. c #62942D",
"q. c #689839",
"w. c #48824D",
"e. c #76A24D",
"r. c #AC8A0E",
"t. c #8E8239",
"y. c #B68D38",
"u. c #CA9B16",
"i. c #C6970C",
"p. c #DAAC0C",
"a. c #D7AA19",
"s. c #DEB111",
"d. c #E4B70E",
"f. c #EBA11F",
"g. c #E5B919",
"h. c #C09421",
"j. c #D78432",
"k. c #EA8624",
"l. c #ED8926",
"z. c #ED8B2A",
"x. c #F18E2C",
"c. c #F3922E",
"v. c #E99336",
"b. c #F39530",
"n. c #E58D34",
"m. c #DAAA2A",
"M. c #E5BA23",
"N. c #ECC21D",
"B. c #EDC214",
"V. c #F2C91D",
"C. c #FAD225",
"Z. c #F8D63B",
"A. c #EFCA2C",
"S. c #F8D747",
"D. c #F8DC58",
"F. c #053484",
"G. c #0B3584",
"H. c #0D3985",
"J. c #0C3A8A",
"K. c #103A84",
"L. c #0B3E91",
"P. c #7C1885",
"I. c #7D2A85",
"U. c #15498D",
"Y. c #164A86",
"T. c #15518A",
"R. c #144693",
"E. c #165598",
"W. c #225B8C",
"Q. c #28668C",
"!. c #0C59A8",
"~. c #145BA3",
"^. c #1658A4",
"/. c #155EB1",
"(. c #225CA9",
"). c #1762AD",
"_. c #1464B4",
"`. c #1B6ABB",
"'. c #1967B7",
"]. c #0F62B4",
"[. c #2E69AD",
"{. c #5D728F",
"}. c #60798C",
"|. c #1A6CC1",
" X c #1C70C6",
".X c #2471C3",
"XX c #95178E",
"oX c #8C1794",
"OX c #9D139D",
"+X c #99179A",
"@X c #86158E",
"#X c #932295",
"$X c #9A17A2",
"%X c #A217A7",
"&X c #AB1DB5",
"*X c #B61FBF",
"=X c #B423BD",
"-X c #B32AB6",
";X c #AF2FB4",
":X c #B943B2",
">X c #B61FC0",
",X c #B720C2",
"<X c #B822C2",
"1X c #BD38C6",
"2X c #6187A9",
/* pixels */
"                                                                                                                                ",
"                                                                                                                                ",
"                                                                                                                                ",
"                                                                                                                                ",
"                                                                                                                                ",
"                                                                                                                                ",
"                                                                                                                                ",
"                                                                                                                                ",
"                                                                                                                                ",
"                                                                                                                                ",
"                                                                                                                                ",
"                                                                                                                                ",
"                                                                                                                                ",
"                                                                                                                                ",
"                                                                                                                                ",
"                                                                                                                                ",
"                                                                                                                                ",
"                                                                                                                                ",
"                                                                                                                                ",
"                                                                                                                                ",
"                                                                                                                                ",
"                                                                                                                                ",
"                                                                                                                                ",
"                                                                                                                                ",
"                                                                                                                                ",
"                                                                                                                                ",
"                                                                                                                                ",
"                                                                                                                                ",
"                                                                                                                                ",
"                                                                                                                                ",
"                                                                                                                                ",
"                                                                                                                                ",
"                                                                                                                                ",
"                                                                                                                                ",
"                                                                                                                                ",
"                                                                                                                                ",
"                                                                                                                                ",
"                                                                                                                                ",
"                                                                                                                                ",
"                                                                                                                                ",
"                                                                                                                                ",
"                                                                S.D.              0.0.e.                                        ",
"                                                        S.Z.Z.N.N.A.        q.0.5.: 4 5.                                        ",
"                                                S.Z.A.N.d.g.g.g.p.N.Z.    3 4 2 3 3 4 4.8.                                      ",
"                                        S.C.C.N.s.s.g.N.d.g.f.f.g.N.M.    5 2 b E.w.9.- 4 7.                                    ",
"                                        M.s.p.M.N.B.V.N.N.*.~ ) ( ( ;.;.+.8 W.|.p H.b 6.4 4.8.                                  ",
"                                        m.g.V.C.N.g.u.a.M.( R C E E E S P m `.^.t y F.M 2 - ; 4.                                ",
"                                        m.a.p.i.a.a.r.t.+.) _ ! W ) D S = E.'.K.q H.J.p Q.9.4 4.7.q.                            ",
"                                1X>X1X    u.h.r.< 1 7 2X<.I I E W W E A g !._.s y p a u i W.0 - 4 5.                            ",
"                            ;X<X<X>X<X;X  h.X.6 , > B N ) ~ Q ! ! C C P Y.!.!.].R.G.K.t a F.Y.0 2 2                             ",
"                            I.$X<X>X<X<X1Xy.X.< , > }.3.R ~ E W ) ) E = U.E.!.!._.R.w p i J.i U.b 9                             ",
"                            I.j &X<X>X>X<X:X@., , 7 {.` R U W W Y R F @ r U.E.!.!._.U.p H.J.y p K.b                             ",
"                            c f x *X>X>X<X=X        2.~ _ W ) ~ Q R A @ o r n E.E.~.'.^.H.u G.H.p H.[.                          ",
"                            c h l P.*X>X>X=X=X      L ^ ^ W W Q ~ W P . o o O r T.E.~.).~.u J.y J.t H.                          ",
"                            I.d k h oX,X<X>X*X-X    C I U R Q U U W V $ $ $ X % + Y.E.~.).'.J.H.u w R.                          ",
"                              z h k l $X>X>X*X*X;X  S T I I I I U G # & { 1 [ { ] * T.E.)._.`.s e y (.                          ",
"                                z k k d oX<X>X*X%X1.A I C T T Y Y Z & H ..' ' | | ]   T.)._.'.`.E.J.                            ",
"                                  k k k l %X%X$XOX  V K ( Z S D T Z H | &. . .&.=.O.    E.).`.|. X[.                            ",
"                                  I.j k l oX$XOX+X    | %.{ H } $.} } #.*.=.&.%.-.,.      E.`.`..X                              ",
"                                    x h d @X%XOXXXv >.l.l.k.k.k.z.x.x.c.c.b.c.c.b.v.        [.                                  ",
"                                      z d oX%X$XXX  >.x.z.x.x.x.x.x.c.c.c.c.c.c.b.v.                                            ",
"                                        z @X%X$XXX  >.l.k.l.k.k.l.l.l.l.l.l.l.x.x.v.                                            ",
"                                          oX$X#X      >.:.:.:.:.:.:.:.:.:.:.:.:.j.j.                                            ",
"                                                                                                                                "
};
