/* XPM */
static char *_03c03f70ffa4c20b88bfa8f46b94358AwyVxt4tPlJrt4ZM[] = {
/* columns rows colors chars-per-pixel */
"64 64 26 1 ",
"  c None",
". c black",
"X c #171A0F",
"o c #3A1F1D",
"O c #243117",
"+ c #302D21",
"@ c #3D3734",
"# c #364922",
"$ c #4E5332",
"% c #6B3840",
"& c #62784A",
"* c #796E67",
"= c #80592D",
"- c #8D4953",
"; c #B34D5C",
": c #AB7B44",
"> c #BD7247",
", c #A47556",
"< c #84AE56",
"1 c #9F8965",
"2 c #CD9757",
"3 c #E2B179",
"4 c #9C8C81",
"5 c #E6DAAD",
"6 c #FDFFD6",
"7 c white",
/* pixels */
"7777777777777777777777777777777777777777777777777777777777777777",
"7777777777777777777777777777777777777777777777777777777777777777",
"7777777777777777777777777777777777777777777777777777777777777777",
"7777777777777777777777777777777777777777777777777777777777777777",
"7777777777777777777777777777777777777777777777777777777777777777",
"7777777777777777&&7777777777777777777777777777&&7777777777777777",
"7777777777777777O&&77777777777777777777777777&&X7777777777777777",
"7777777777777777O&&&&77777777777777777777777&&$X7777777777777777",
"7777777777777777O$&&&&77777777777777777777&&&&$X7777777777777777",
"777777777777777XO$$&&&&777777777777777777&&&$$$OX777777777777777",
"777777777777777XO$$$$&&&&77777777777777&&&&$$$$OX777777777777777",
"777777777777777XO$$$$$&&&&&&&&&&&&&&&&&&&$$$$$$OX777777777777777",
"777777777777777XO$$$$$$&&$$$$$$$$$$$$$$&&$$$$$$OX777777777777777",
"777777777777777XO$$$O$&$$$$$$$$$$$$$$$$$$&$$$$$OX777777777777777",
"777777777777777XOO$O&$$$$$$$$$$$$$$$$$$$$$$O$$$OX777777777777777",
"777777777777777XOOO&$$$$$$$$$$$$$$$$$$$$$$$&O$OOX777777777777777",
"777777777777777XOOO&$$$$$$$$$$$$$$$$$$$$$$$$&OOOX777777777777777",
"7777777777777777XO&$$$$$$$$&&&&&&&&&&$$$$$$$&OOX7777777777777777",
"7777777777777777XX$$$$$$$&&@@@@111@@@&&$$$$$$&XX7777777777777777",
"7777777777777777X$$$$$$&&>11@@11111@@@@&&$$$$$$X7777777777777777",
"777777777777777X$$$$$$&>>>1111111111@@@@@&$$$$$$X777777777777777",
"777777777777777X$$$$$&>>>115555555551@@@@@&$$$$$X777777777777777",
"77777777777777X$$$$$$&==::25555555555**@@@&$$$$$$X77777777777777",
"7777777777777X$$$$$$$&>>22:2++5555++55**@1&$$$$$$$X7777777777777",
"777777777777X$$$$$$$>>225555555555555555551X$$$$$$$X777777777777",
"77777777777XOO$$$$$X=:::++<<65555556<<++5551X$$$$$OOX77777777777",
"777777777777XXOO$$$X>22223<#<655556<#<<66551X$$$OOXX777777777777",
"77777777777777XXOOOOX=:::23#<<5555<<#<65551XOOOOXX77777777777777",
"7777777777777777XXOOOX>2255555566555555551XOOOXX7777777777777777",
"777777777777777777XXXXX15555555++55555551XXXXX777777777777777777",
"777777777777777777777 XXXX555555555555XXXX 777777777777777777777",
"777777777777777777777 .XXOXXXXXooXXXXXOXX. 777777777777777777777",
"777777777777777777777 ..XOOo---oo---oOOX.. 777777777777777777777",
"777777777777777777777 .XOOo;;-o11o-;;oOOX. 777777777777777777777",
"777777777777777777777 XOOOo;-%o11o%-;oOOOX 777777766777777777777",
"777777777777777777777 XOOOo%%o1111o%%oOOOX 777776555677777777777",
"777777777777777777777X$$$OOoo11551>ooOO$$$X777715551177777777777",
"777777777777777777777X$$$$OX115555>>XO$$$$X777155517777777777777",
"77777777777777777777X$$$$$X11555552>=X$$$$$X7+111777777777777777",
"77777777777777777777X$$$$X115555522=>>X$$$$X+11+7777777777777777",
"7777777777777777777X$$$$$X1555555::22=X$$$$$X1+77777777777777777",
"7777777777777777777X$$$$$X555555522::2X$$$$$X+777777777777777777",
"7777777777777777777X$$$$X55155555552>22X$$$$X7777777777777777777",
"777777777777777777XO$$$$X55155611655155X$$$$OX777777777777777777",
"777777777777777777XO$$$$X551+561165+155X$$$$OX777777777777777777",
"77777777777777777XOO$$$$X555+66++66+555X$$$$OOX77777777777777777",
"77777777777777777XO$$$$$X2551+6++6+1555X$$$$$OX77777777777777777",
"7777777777777777XO$$$$$X=::551++++155551X$$$$$OX7777777777777777",
"777777777777777X$$$$O$$X>255551111555551X$$O$$$$X777777777777777",
"77777777777777X$$$$$$$$X,555555555555551X$$$$$$$$X77777777777777",
"7777777777777X$$O$$$$$$X1555555555555551X$$$$$$O$$X7777777777777",
"777777777777X$$$$$$O$$$X1555555555**5551X$$$O$$$$$$X777777777777",
"77777777777X$$O$$$$$$$$X15555555****5551O$$$$$$$$$$$X77777777777",
"77777777777X$$$$$$O$$$$OX555556644**555XO$$$$O$$$$$$X77777777777",
"777777777777XOO$$OO$$$$OX5555511@@***55XO$$$$OO$$OOX777777777777",
"7777777777777XXOOOOOOOOOX15551++++@**51XOOOOOOOOOXX7777777777777",
"777777777777777XXXOOOOOOX1111+7777+@@11XOOOOOOXXX777777777777777",
"777777777777777777XXXXXX7+666+7777+666+7XXXXXX777777777777777777",
"77777777777777777777777777+++777777+++77777777777777777777777777",
"7777777777777777777777777777777777777777777777777777777777777777",
"7777777777777777777777777777777777777777777777777777777777777777",
"7777777777777777777777777777777777777777777777777777777777777777",
"7777777777777777777777777777777777777777777777777777777777777777",
"7777777777777777777777777777777777777777777777777777777777777777"
};
