/* XPM */
static char *be438122da9a428ae2005bc98e37368ccTkQxggGuye3TRzT[] = {
/* columns rows colors chars-per-pixel */
"64 64 24 1 ",
"  c #171A0F",
". c #3A1F1D",
"X c #243117",
"o c #302D21",
"O c #3D3734",
"+ c #364922",
"@ c #4E5332",
"# c #6B3840",
"$ c #62784A",
"% c #796E67",
"& c #80592D",
"* c #8D4953",
"= c #B34D5C",
"- c #AB7B44",
"; c #BD7247",
": c #A47556",
"> c #84AE56",
", c #9F8965",
"< c #CD9757",
"1 c #E2B179",
"2 c #9C8C81",
"3 c #E6DAAD",
"4 c #FDFFD6",
"5 c #FFFFFF",
/* pixels */
"5555555555555555555555555555555555555555555555555555555555555555",
"5555555555555555555555555555555555555555555555555555555555555555",
"5555555555555555555555555555555555555555555555555555555555555555",
"5555555555555555555555555555555555555555555555555555555555555555",
"5555555555555555555555555555555555555555555555555555555555555555",
"5555555555555555555555555555555555555555555555555555555555555555",
"555555555555555 $5555555555555555555555555555$ 55555555555555555",
"555555555555555 $$55555555555555555555555555$@ 55555555555555555",
"555555555555555 @$$555555555555555555555555$$@ 55555555555555555",
"55555555555555 X@@$$$55555555555555555555$$@@@X 5555555555555555",
"55555555555555 X@@@@$$$5555555555555555$$$@@@@X 5555555555555555",
"55555555555555 X@@@@@$$$$$$$$$$$$$$$$$$$@@@@@@X 5555555555555555",
"55555555555555 X@@@@@@$$@@@@@@@@@@@@@@$$@@@@@@X 5555555555555555",
"55555555555555 X@@@X@$@@@@@@@@@@@@@@@@@@$@@@@@X 5555555555555555",
"55555555555555 XX@X$@@@@@@@@@@@@@@@@@@@@@@X@@@X 5555555555555555",
"55555555555555 XXX$@@@@@@@@@@@@@@@@@@@@@@@$X@XX 5555555555555555",
"55555555555555 XXX$@@@@@@@@@@@@@@@@@@@@@@@@$XXX 5555555555555555",
"555555555555555 X$@@@@@@@@$$$$$$$$$$@@@@@@@$XX 55555555555555555",
"555555555555555  @@@@@@@$$OOOO,,,OOO$$@@@@@@$  55555555555555555",
"555555555555555 @@@@@@$$;,,OO,,,,,OOOO$$@@@@@@ 55555555555555555",
"55555555555555 @@@@@@$;;;,,,,,,,,,,OOOOO$@@@@@@ 5555555555555555",
"55555555555555 @@@@@$;;;,,333333333,OOOOO$@@@@@ 5555555555555555",
"5555555555555 @@@@@@$&&--<3333333333%%OOO$@@@@@@ 555555555555555",
"555555555555 @@@@@@@$;;<<-<oo3333oo33%%O,$@@@@@@@ 55555555555555",
"55555555555 @@@@@@@;;<<333333333333333333, @@@@@@@ 5555555555555",
"5555555555 XX@@@@@ &---oo>>43333334>>oo333, @@@@@XX 555555555555",
"55555555555  XX@@@ ;<<<<1>+>433334>+>>4433, @@@XX  5555555555555",
"5555555555555  XXXX &---<1+>>3333>>+>4333, XXXX  555555555555555",
"555555555555555  XXX ;<<3333334433333333, XXX  55555555555555555",
"55555555555555555     ,3333333oo3333333,     5555555555555555555",
"5555555555555555555555   333333333333   555555555555555555555555",
"55555555555555555555555 X            X 5555555555555555555555555",
"5555555555555555555555 XX.==*.,,.*==.XX 555555555555555555555555",
"555555555555555555555 XXX.=*#.,,.#*=.XXX 55555555555555555555555",
"555555555555555555555 XXX.##.,,,,.##.XXX 55555555555555555555555",
"55555555555555555555 @@@XX..,,33,;..XX@@@ 5555544445555555555555",
"55555555555555555555 @@@@X ,,3333;; X@@@@ 555,333334555555555555",
"5555555555555555555 @@@@@ ,,33333<;& @@@@@ 5o,,,,,,3455555555555",
"5555555555555555555 @@@@ ,,33333<<&;; @@@@ o,,o555o,,55555555555",
"555555555555555555 @@@@@ ,333333--<<& @@@@@ ,o55555oo55555555555",
"555555555555555555 @@@@@ 3333333<<--< @@@@@ o5555555555555555555",
"555555555555555555 @@@@ 33,3333333<;<< @@@@ 55555555555555555555",
"55555555555555555 X@@@@ 33,334,,433,33 @@@@X 5555555555555555555",
"55555555555555555 X@@@@ 33,o34,,43o,33 @@@@X 5555555555555555555",
"5555555555555555 XX@@@@ 333o44oo44o333 @@@@XX 555555555555555555",
"5555555555555555 X@@@@@ <33,o4oo4o,333 @@@@@X 555555555555555555",
"5555555555555555X@@@@@ &--33,oooo,3333, @@@@@X 55555555555555555",
"555555555555555 @@@X@@ ;<3333,,,,33333, @@X@@@@ 5555555555555555",
"55555555555555 @@@@@@@ :33333333333333, @@@@@@@ 5555555555555555",
"5555555555555 @X@@@@@@ ,33333333333333, @@@@@@X@ 555555555555555",
"5555555555555 @@@@X@@@ ,333333333%%333, @@@X@@@@ 555555555555555",
"555555555555 X@@@@@@@@ ,3333333%%%%333,X@@@@@@@@X 55555555555555",
"555555555555 @@@@X@@@@X 333334422%%333 X@@@@X@@@@ 55555555555555",
"555555555555XX@@XX@@@@X 33333,,OO%%%33 X@@@@XX@@XX55555555555555",
"555555555555  XXXXXXXXX ,333,ooooO%%3, XXXXXXXXX  55555555555555",
"55555555555555   XXXXXX ,,,,o5555oOO,, XXXXXX   5555555555555555",
"55555555555555555      5o444o5555o444o5      5555555555555555555",
"5555555555555555555555555ooo555555ooo555555555555555555555555555",
"5555555555555555555555555555555555555555555555555555555555555555",
"5555555555555555555555555555555555555555555555555555555555555555",
"5555555555555555555555555555555555555555555555555555555555555555",
"5555555555555555555555555555555555555555555555555555555555555555",
"5555555555555555555555555555555555555555555555555555555555555555",
"5555555555555555555555555555555555555555555555555555555555555555"
};
