/* XPM */
static char *_b31865a61b94bdc96dc28d333bd9a0c92LsTDsuVl93plod[] = {
/* columns rows colors chars-per-pixel */
"64 64 21 1 ",
"  c #FFFFFF",
". c #171A0F",
"X c #62784A",
"o c #4E5332",
"O c #243117",
"+ c #3D3734",
"@ c #9F8965",
"# c #BD7247",
"$ c #E6DAAD",
"% c #80592D",
"& c #AB7B44",
"* c #CD9757",
"= c #796E67",
"- c #302D21",
"; c #FDFFD6",
": c #3A1F1D",
"> c #B34D5C",
", c #8D4953",
"< c #6B3840",
"1 c #A47556",
"2 c #9C8C81",
/* pixels */
"                                                                ",
"                                                                ",
"                                                                ",
"                                                                ",
"                                                                ",
"                                                                ",
"                                                                ",
"               .X                            X.                 ",
"               .XX                          Xo.                 ",
"               .oXX                        XXo.                 ",
"              .OooXXX                    XXoooO.                ",
"              .OooooXXX                XXXooooO.                ",
"              .OoooooXXXXXXXXXXXXXXXXXXXooooooO.                ",
"              .OooooooXXooooooooooooooXXooooooO.                ",
"              .OoooOoXooooooooooooooooooXoooooO.                ",
"              .OOoOXooooooooooooooooooooooOoooO.                ",
"              .OOOXoooooooooooooooooooooooXOoOO.                ",
"              .OOOXooooooooooooooooooooooooXOOO.                ",
"               .OXooooooooXXXXXXXXXXoooooooXOO.                 ",
"               ..oooooooXX++++@@@+++XXooooooX..                 ",
"               .ooooooXX#@@++@@@@@++++XXoooooo.                 ",
"              .ooooooX###@@@@@@@@@@+++++Xoooooo.                ",
"              .oooooX###@@$$$$$$$$$@+++++Xooooo.                ",
"             .ooooooX%%&&*$$$$$$$$$$==+++Xoooooo.               ",
"            .oooooooX##**&*--$$$$--$$==+@Xooooooo.              ",
"           .ooooooo##**$$$$$$$$$$$$$$$$$$@.ooooooo.             ",
"          .OOooooo.%&&&$$$$$$$$$$$$$$$$$$$@.oooooOO.            ",
"           ..OOooo.#****#$$;$$$$$$;$$@$$$$@.oooOO..             ",
"             ..OOOO.%&&&*---@$$$$@---$$$$@.OOOO..               ",
"               ..OOO.#**$$$$$$;;$$$$$$$$@.OOO..                 ",
"                 .....@$$$$$$$--$$$$$$$@.....                   ",
"                      ...$$$$$$$$$$$$...                        ",
"                       .O............O.                         ",
"                      .OO:>>,:@@:,>>:OO.     ;;                 ",
"                     .OOO:>,<:@@:<,>:OOO.   ;$$;                ",
"                     .OOO:<<:@@@@:<<:OOO.   @@$$;               ",
"                    .oooOO::@@$$@#::OOooo.    $$$               ",
"                    .ooooO.@@$$$$##.Ooooo.   -$$@               ",
"                   .ooooo.@@$$$$$*#%.ooooo. -@$@                ",
"                   .oooo.@@$$$$$**%##.oooo.-@@-                 ",
"                  .ooooo.@$$$$$$&&**%.ooooo.@-                  ",
"                  .ooooo.$$$$$$$**&&*.ooooo.-                   ",
"                  .oooo.$$@$$$$$$$*#**.oooo.                    ",
"                 .Ooooo.$$@$$;@@;$$@$$.ooooO.                   ",
"                 .Ooooo.$$@-$;@@;$-@$$.ooooO.                   ",
"                .OOoooo.$$$-;;--;;-$$$.ooooOO.                  ",
"                .Oooooo.*$$@-;--;-@$$$.oooooO.                  ",
"                Oooooo.%&&$$@----@$$$$@.oooooO.                 ",
"               .oooOoo.#*$$$$@@@@$$$$$@.ooOoooo.                ",
"              .ooooooo.1$$$$$$$$$$$$$$@.ooooooo.                ",
"             .oOoooooo.@$$$$$$$$$$$$$$@.ooooooOo.               ",
"             .ooooOooo.@$$$$$$$$$==$$$@.oooOoooo.               ",
"            .Ooooooooo.@$$$$$$$====$$$@OooooooooO.              ",
"            .ooooOooooO.$$$$$;;22==$$$.OooooOoooo.              ",
"            OOooOOooooO.$$$$$@@++===$$.OooooOOooOO              ",
"            ..OOOOOOOOO.@$$$@----+==$@.OOOOOOOOO..              ",
"              ...OOOOOO.@@@@-    -++@@.OOOOOO...                ",
"                 ...... -;;;-    -;;;- ......                   ",
"                         ---      ---                           ",
"                                                                ",
"                                                                ",
"                                                                ",
"                                                                ",
"                                                                "
};
