/* XPM */
static char *_98f6648d2b34c29d48b5fc9c653c5a1u4rpypv6hqbJdJOX[] = {
/* columns rows colors chars-per-pixel */
"64 64 23 1 ",
"  c #171A0F",
". c #3A1F1D",
"X c #243117",
"o c #302D21",
"O c #3D3734",
"+ c #364922",
"@ c #4E5332",
"# c #6B3840",
"$ c #62784A",
"% c #796E67",
"& c #80592D",
"* c #8D4953",
"= c #B34D5C",
"- c #AB7B44",
"; c #BD7247",
": c #A47556",
"> c #84AE56",
", c #9F8965",
"< c #CD9757",
"1 c #9C8C81",
"2 c #E6DAAD",
"3 c #FDFFD6",
"4 c #FFFFFF",
/* pixels */
"4444444444444444444444444444444444444444444444444444444444444444",
"4444444444444444444444444444444444444444444444444444444444444444",
"4444444444444444444444444444444444444444444444444444444444444444",
"4444444444444444444444444444444444444444444444444444444444444444",
"4444444444444444444444444444444444444444444444444444444444444444",
"4444444444444444444444444444444444444444444444444444444444444444",
"4444444444444444 $4444444444444444444444444444$ 4444444444444444",
"4444444444444444 $$44444444444444444444444444$@ 4444444444444444",
"4444444444444444 @$$444444444444444444444444$$@ 4444444444444444",
"444444444444444 X@@$$$44444444444444444444$$@@@X 444444444444444",
"444444444444444 X@@@@$$$4444444444444444$$$@@@@X 444444444444444",
"444444444444444 X@@@@@$$$$$$$$$$$$$$$$$$$@@@@@@X 444444444444444",
"444444444444444 X@@@@@@$$@@@@@@@@@@@@@@$$@@@@@@X 444444444444444",
"444444444444444 X@@@X@$@@@@@@@@@@@@@@@@@@$@@@@@X 444444444444444",
"444444444444444 XX@X$@@@@@@@@@@@@@@@@@@@@@@X@@@X 444444444444444",
"444444444444444 XXX$@@@@@@@@@@@@@@@@@@@@@@@$X@XX 444444444444444",
"444444444444444 XXX$@@@@@@@@@@@@@@@@@@@@@@@@$XXX 444444444444444",
"4444444444444444 X$@@@@@@@@$$$$$$$$$$@@@@@@@$XX 4444444444444444",
"4444444444444444  @@@@@@@$$OOOO,,,OOO$$@@@@@@$  4444444444444444",
"4444444444444444 @@@@@@$$;,,OO,,,,,OOOO$$@@@@@@ 4444444444444444",
"444444444444444 @@@@@@$;;;,,,,,,,,,,OOOOO$@@@@@@ 444444444444444",
"444444444444444 @@@@@$;;;,,222222222,OOOOO$@@@@@ 444444444444444",
"44444444444444 @@@@@@$&&--<2222222222%%OOO$@@@@@@ 44444444444444",
"4444444444444 @@@@@@@$;;<<-<oo2222oo22%%O,$@@@@@@@ 4444444444444",
"444444444444 @@@@@@@;;<<222222222222222222, @@@@@@@ 444444444444",
"44444444444 XX@@@@@ &---oo223222222322oo222, @@@@@XX 44444444444",
"444444444444  XX@@@ ;<<<<>>+23222232+>>3322, @@@XX  444444444444",
"44444444444444  XXXX &---<>+>>2222>>+>3222, XXXX  44444444444444",
"4444444444444444  XXX ;<<2222223322222222, XXX  4444444444444444",
"444444444444444444     ,2222222oo2222222,     444444444444444444",
"44444444444444444444444   222222222222   44444444444444444444444",
"444444444444444444444444 X            X 444444444444444444444444",
"44444444444444444444444 XX.==*.,,.*==.XX 44444444444444444444444",
"4444444444444444444444 XXX.=*#.,,.#*=.XXX 4444444433444444444444",
"4444444444444444444444 XXX.##.,,,,.##.XXX 4444443222344444444444",
"444444444444444444444 @@@XX..,,22,;..XX@@@ 4444,222,,44444444444",
"444444444444444444444 @@@@X ,,2222;; X@@@@ 444,222,4444444444444",
"44444444444444444444 @@@@@ ,,22222<;& @@@@@ 4o,,,444444444444444",
"44444444444444444444 @@@@ ,,22222<<&;; @@@@ o,,o4444444444444444",
"4444444444444444444 @@@@@ ,222222--<<& @@@@@ ,o44444444444444444",
"4444444444444444444 @@@@@ 2222222<<--< @@@@@ o444444444444444444",
"4444444444444444444 @@@@ 22,2222222<;<< @@@@ 4444444444444444444",
"444444444444444444 X@@@@ 22,223,,322,22 @@@@X 444444444444444444",
"444444444444444444 X@@@@ 22,o23,,32o,22 @@@@X 444444444444444444",
"44444444444444444 XX@@@@ 222o33oo33o222 @@@@XX 44444444444444444",
"44444444444444444 X@@@@@ <22,o3oo3o,222 @@@@@X 44444444444444444",
"44444444444444444X@@@@@ &--22,oooo,2222, @@@@@X 4444444444444444",
"4444444444444444 @@@X@@ ;<2222,,,,22222, @@X@@@@ 444444444444444",
"444444444444444 @@@@@@@ :22222222222222, @@@@@@@ 444444444444444",
"44444444444444 @X@@@@@@ ,22222222222222, @@@@@@X@ 44444444444444",
"44444444444444 @@@@X@@@ ,222222222%%222, @@@X@@@@ 44444444444444",
"4444444444444 X@@@@@@@@ ,2222222%%%%222,X@@@@@@@@X 4444444444444",
"4444444444444 @@@@X@@@@X 222223311%%222 X@@@@X@@@@ 4444444444444",
"4444444444444XX@@XX@@@@X 22222,,OO%%%22 X@@@@XX@@XX4444444444444",
"4444444444444  XXXXXXXXX ,222,ooooO%%2, XXXXXXXXX  4444444444444",
"444444444444444   XXXXXX ,,,,o4444oOO,, XXXXXX   444444444444444",
"444444444444444444      4o333o4444o333o4      444444444444444444",
"44444444444444444444444444ooo444444ooo44444444444444444444444444",
"4444444444444444444444444444444444444444444444444444444444444444",
"4444444444444444444444444444444444444444444444444444444444444444",
"4444444444444444444444444444444444444444444444444444444444444444",
"4444444444444444444444444444444444444444444444444444444444444444",
"4444444444444444444444444444444444444444444444444444444444444444",
"4444444444444444444444444444444444444444444444444444444444444444"
};
