/* XPM */
static char *cd5d85d110c04b69f19a7756d3bb2153BcyOGMYhZu0sblZ2[] = {
/* columns rows colors chars-per-pixel */
"64 64 248 2 ",
"   c #351107",
".  c #66021D",
"X  c #6C0C22",
"o  c #573224",
"O  c #5A2A16",
"+  c #7E5433",
"@  c #785638",
"#  c #754E30",
"$  c #614E44",
"%  c #7D5D4B",
"&  c #82140F",
"*  c #A41E18",
"=  c #8C351F",
"-  c #AF221C",
";  c #993827",
":  c #B13C2E",
">  c #D31F1D",
",  c #D3241C",
"<  c #D2321F",
"1  c #CA2723",
"2  c #D72A23",
"3  c #D53824",
"4  c #C83C25",
"5  c #E63226",
"6  c #F4332A",
"7  c #FB342D",
"8  c #FA392E",
"9  c #EC3129",
"0  c #87542D",
"q  c #8A5631",
"w  c #8D5934",
"e  c #855836",
"r  c #915D3A",
"t  c #995A37",
"y  c #894929",
"u  c #AB503A",
"i  c #9A643D",
"p  c #95623A",
"a  c #8F603A",
"s  c #A3673D",
"d  c #D95B1B",
"f  c #DB771A",
"g  c #D54636",
"h  c #CC5436",
"j  c #F14D35",
"k  c #A55645",
"l  c #B55A43",
"z  c #8B694A",
"x  c #9C6A43",
"c  c #946847",
"v  c #8E714F",
"b  c #937553",
"n  c #997756",
"m  c #916D51",
"M  c #A66C44",
"N  c #A86946",
"B  c #AC7145",
"V  c #AB744A",
"C  c #A7764B",
"Z  c #B4754B",
"A  c #B3794D",
"S  c #B97B4D",
"D  c #B07447",
"F  c #AE7B52",
"G  c #A67856",
"H  c #B27D53",
"J  c #BC7E51",
"K  c #BB7D5C",
"L  c #B56041",
"P  c #D85441",
"I  c #C75755",
"U  c #F45642",
"Y  c #D76751",
"T  c #F37456",
"R  c #F26F52",
"E  c #EF7267",
"W  c #DE8518",
"Q  c #DF971E",
"!  c #E5881B",
"~  c #E89A17",
"^  c #E7A617",
"/  c #ECB613",
"(  c #EEB70F",
")  c #E78C27",
"_  c #EAB93B",
"`  c #F2D10F",
"'  c #9C835B",
"]  c #BB814D",
"[  c #B7854F",
"{  c #AB8258",
"}  c #B48254",
"|  c #BC8254",
" . c #B48259",
".. c #BC855B",
"X. c #B58A5E",
"o. c #BB8B5C",
"O. c #BE8852",
"+. c #9B8677",
"@. c #BC8C62",
"#. c #B78B67",
"$. c #BC9266",
"%. c #BE9468",
"&. c #B3926A",
"*. c #B98C6E",
"=. c #B5A172",
"-. c #C2824E",
";. c #C28455",
":. c #C38955",
">. c #CA8A56",
",. c #C28659",
"<. c #C38B5C",
"1. c #CA8C5A",
"2. c #C88652",
"3. c #D18D58",
"4. c #CC915D",
"5. c #D3925E",
"6. c #DD965D",
"7. c #E59C5E",
"8. c #E19A47",
"9. c #C48D61",
"0. c #C88F67",
"q. c #C69264",
"w. c #CC9464",
"e. c #CD9B67",
"r. c #C1946B",
"t. c #C89469",
"y. c #CD9B6A",
"u. c #C69A6B",
"i. c #D39562",
"p. c #D49A65",
"a. c #DA9A64",
"s. c #D39C6B",
"d. c #DB9D6A",
"f. c #D39568",
"g. c #CB9A73",
"h. c #D89D71",
"j. c #DA896D",
"k. c #E39C62",
"l. c #E89F62",
"z. c #E79B6C",
"x. c #F19A6F",
"c. c #D4A26D",
"v. c #DCA26D",
"b. c #DCAA6A",
"n. c #CDA373",
"m. c #C9A876",
"M. c #D3A473",
"N. c #DBA573",
"B. c #D6AA74",
"V. c #DCAA74",
"C. c #D4AB7A",
"Z. c #DCAC7A",
"A. c #D7A57A",
"S. c #DCB27C",
"D. c #D9B57B",
"F. c #CFA46F",
"G. c #E2A46C",
"H. c #EBA66D",
"J. c #E5A96E",
"K. c #EEA564",
"L. c #E4A472",
"P. c #E3AB74",
"I. c #EBAD74",
"U. c #E4AE7A",
"Y. c #E8A978",
"T. c #F2AD74",
"R. c #ECB075",
"E. c #E4B27B",
"W. c #EBB47B",
"Q. c #EDB97E",
"!. c #E0B57B",
"~. c #F2B47C",
"^. c #F4B97E",
"/. c #F9B87E",
"(. c #F0AC6F",
"). c #F9C97F",
"_. c #BEAB96",
"`. c #BDA085",
"'. c #BFB1AB",
"]. c #B09A90",
"[. c #DBBA85",
"{. c #D2B08A",
"}. c #E4B582",
"|. c #EBB583",
" X c #E4BB83",
".X c #EDBB83",
"XX c #EEBC89",
"oX c #E8B68B",
"OX c #F4BC83",
"+X c #FABD82",
"@X c #F2BE8B",
"#X c #FBBD8A",
"$X c #F7B483",
"%X c #EAAF82",
"&X c #D59592",
"*X c #D8C193",
"=X c #E7C184",
"-X c #EDC286",
";X c #E5C48A",
":X c #ECC38A",
">X c #ECC98C",
",X c #E7CB8F",
"<X c #F3C286",
"1X c #FBC486",
"2X c #F4C38B",
"3X c #FCC58C",
"4X c #F2CB8D",
"5X c #FDCA8D",
"6X c #F8C880",
"7X c #F8D18C",
"8X c #E9CC96",
"9X c #FBC690",
"0X c #F4CD92",
"qX c #FCCC92",
"wX c #F0C092",
"eX c #EDD397",
"rX c #F4D395",
"tX c #FCD395",
"yX c #FCDB95",
"uX c #F6D69A",
"iX c #FCD499",
"pX c #F5DB9B",
"aX c #FCDC9C",
"sX c #F7D994",
"dX c #E6D285",
"fX c #F7E19E",
"gX c #FCE29E",
"hX c #ECE09F",
"jX c #FDDEA1",
"kX c #F5DAA5",
"lX c #FADEB2",
"zX c #E9D4AA",
"xX c #F7E3A2",
"cX c #FDE4A3",
"vX c #FDEBA5",
"bX c #FEECAA",
"nX c #F9E1AC",
"mX c #FEF2AC",
"MX c #FDF5B3",
"NX c #FEFBB5",
"BX c #FDF8BB",
"VX c #F7E3B2",
"CX c #D8CAC4",
"ZX c #F2D8C2",
"AX c #FDF6CA",
"DX c #FCFAF6",
"DX c #FFFFFF",
"FX c #ECEBE5",
/* pixels */
"DXDXDXDXDXDXDXDXDXDXDXDXDXDXDXDXDXDXDXDXDXDXDXDXDXDXDXDXDXDXDXDXDXDXDXVXrX;XDXDXDXDXDXDXDXDXDXDXDXDXDXDXDXDXDXDXDXDXDXDXDXDXDXDX",
"DXDXDXDXDXDXDXDXDXDXDXDXDXDXDXDXDXDXDXDXDXDXDXDXDXDXDXDXDXDXDXDXDXDXDXDXuXrXW.g.DXDXDXDXDXDXDXDXDXDXDXDXDXDXDXDXDXDXDXDXDXDXDXDX",
"DXDXDXDXDXDXDXDXDXDXDXDXDXDXDXDXDXDXDXDXDXDXDXDXDXDXDXDXDXDXDXDXDXDXDXDXDXiX2XE.w.DXDXDXDXDXDXDXDXDXDXDXDXDXDXDXDXDXDXDXDXDXDXDX",
"DXDXDXDXDXDXDXDXDXDXDXDXDXDXDXDXDXDXDXDXDXDXDXDXDXDXDXDXDXDXDXDXDXDXDXDXkXfX5XQ.v.o.B DXDXDXDXDXDXDXDXDXDXDXDXDXDXDXDXDXDXDXDXDX",
"DXDXDXDXDXDXDXDXDXDXDXDXDXDXDXDXDXDXDXDXDXDXDXDXDXDXDXDXDXDXDXDXDXDXDXkXxXcXqX<XU.w.A DXDXDXDXDXDXDXDXDXDXDXDXDXDXDXDXDXDXDXDXDX",
"DXDXDXDXDXDXDXDXDXDXDXDXDXDXDXDXDXDXDXDXDXDXDXDXDXDXDXDXDXDXDXDXDXkXvXbXvXaX5X<XW.N.;.DXDXDXDXDXDXDXDXDXDXDXDXDXDXDXDXDXDXDXDXDX",
"DXDXDXDXDXDXDXDXDXDXDXDXDXDXDXDXDXDXDXDXDXDXDXDXDXDXDXDXDXDXDXDXcXmXNXMXcXiX5X1X^.P.0.V DXDXDXDXDXDXDXDXDXDXDXDXDXDXDXDXDXDXDXDX",
"DXDXDXDXDXDXDXDXDXDXvXjXDXDXDXDXDXDXDXDXDXDXDXDXDXDXDXDXDXMXNXMXMXNXNXbXcXyXtX3XOXP.1.A  .DXDXDXDXDXDXDXDXDXDXDXDXDXDXDXDXDXDXDX",
"DXDXDXDXDXDXDXDXDXgXvXgXgXaXDXDXDXDXDXDXDXDXDXDXDXDXDXDXDXxXvXvXvXvXgXrX4XOX.X.XU.d.i.S B DXDXDXDXDXDXDXDXDXDXDXDXDXDXDXDXDXDXDX",
"DXDXDXDXDXDXDXcXiXiXiX<X5XgXiXDXDXDXDXDXDXDXDXDXDXDXDXDXDXZXoX@.{.A.@.} H C c C c.L.i.J Z i DXDXDXDXDXDXDXDXDXDXDXDXDXDXDXDXDXDX",
"DXDXDXDXDXDXbXvXiXiXyXiX2X<XtX5X2XDXDXDXDXDXDXDXDXDXDXDXDX_.`._.DXFXCX%     o |.+XJ.5.J Z B DXDXDXDXDXDXDXDXDXDXDXDXDXDXDXDXDXDX",
"DXDXDXDXDXcXaXiX7X~.1XqXiX3XR.(.(.DXDXDXDXDXDXDXDXDXzXhXdXm.gXyX*X$ $ '.o O [.1XR.z.1.Z D B DXDXDXDXDXDXDXDXDXDXDXDXDXDXDXDXDXDX",
"DXDXDXDXcXcXtXiXiX7XR.~.+X3X^.6.K.DXDXDXDXDXZXVXkX0XpXgXcXgXgXiXrX{.+.].G }.1XOXI.i.;.D D B DXDXDXDXDXDXDXDXDXDXDXDXDXDXDXDXDXDX",
"DXDXDXcXvXiX~./.3XqX5XJ.a.I.H.7.7.DXDXDXDX%Xk k P.qXqXtXyXiXyXtX5X2X XZ.Y.Y.I.J.a.;.S p.p.] DXDXDXDXDXDXDXDXDXDXDXDXDXDXDXDXDXDX",
"DXDXtXtXtXqX5XP.G.W.OX/.5.>.K.>.>.r.DXDXDX0.. . X N Q.2XqXqX9X9X2X2XXX.XE.P.d.5.;.J b.D s s DXDXDXDXDXDXDXDXDXDXDXDXDXDXDXDXDXDX",
"DXDXwX|.Z.U.OX5X+Xa.p.d.K.-.7.-.1.i.DXDXDXaX*.K r.*.f.U.W.OX2X<X2XXX}.}.}.|.Z.q.1.b.B y p [ DXDXDXDXDXDXDXDXDXDXDXDXDXDXDXDXDXDX",
"DXDXZ.C.o. .t.U.^.T.1.1.7.S >.k.k.7.DXDXDXU.P.N.P.W.OX3X3XOXU.P.P.Z.Z.Z.Z.V.B.B.e.O.0 y V S DXDXDXDXDXDXDXDXDXDXDXDXDXDXDXDXDXDX",
"DXDX@.$.X.H C  .w.k.6.3.-.B 5.l.P.DXDXDXDXDXOXOX1X5XqX5X5X5X1X|.U.N.c.s.e.y.Z.c.o.s A O.B DXDXDXDXDXDXDXDXDXDXDXDXDXDXDXDXDXDXDX",
"DXDXe.@.{ } } G } 5.] B V A | $.DXDXDXDXDXDXqX5X1X5X5X5X5X5X5X1X/.I.P.G.s.p.q.@.o.s s = & y C DXDXDXDXDXDXDXDXDXDXDXDXDXDXDXDXDX",
"DXDXv.!.B.F.u.q.o.o.F S | O.O.K DXDXDXDXDXDX5X3X5X3X5X5X5X5X1X+XW.I.J.v.p.4.<.D.D.@.L * * u M H A F H DXDXDXDXDXDXDXDXDXDXDXDXDX",
"DXDX}.Q.=X=X;X;X;X[.B.w.<.o.,.| V Z A A S S v.3X1X3X5X5X5X1X^.~.I.J.G.a.4.b.xXmXmXgX|.j.g.M.q.w.i.s.p.p.t.DXDXDXDXDXDXDXDXDXDXDX",
"DXDXDXU.4XsXsXpXxXfX>X!.v.4.1.| H <.<.,.;.;.;.^.1X1X1X1X1X1X^.I.J.G.6.5.>XvXgXvXgXqX5X3X>XrXqXW.W.XXXX|.R.M.DXDXDXDXDXDXDXDXDXDX",
"DXDXDXi.=XrXsXfXxXvXeXD.P.c.w.o.w.i.f.i.4.>.;.J.).1X+X+X/./.I.H.v.6.4.).yXyXvXvXcXqX5X2XXXXX|.XX2X0XqXtX0X-XZ.DXDXDXDXDXDXDXDXDX",
"DXDXDXo.P.4XpXpXxXxXrX).E.e.<.S. XE.V.v.i.w.eXMXgX/./.T.(.H.l.6.3.2.[ 4XvXvXcXvXvXaXqX0X2XXXXXXXXXpXxXjXjXxXpX8XDXDXDXDXDXDXDXDX",
"DXDXDXDX<.U.4XpXxXpX>X XM.q.=XpXpX0X|.d.c.bXNXBXx.U E.H.k.6.>.2.] ] ] yXyXsXvXbXcXiXiX9X2X2X2X2XXXS.N.M.s.c.B.S.=X:XDXDXDXDXDXDX",
"DXDXDXDXDX1.V.:XsX>X Xc.c.8XxXmXcXrXW.Z.xXNXBXNXR 3 pX:XN.o.C C x t N.5XyXvXvXgXaXqX9X2X2X9X9X2X@X@X2X2X2X2X.XW.N.N.W.oXDXDXDXDX",
"DXDXDXDXDXDX9.s.V.V.S.=XrXbXmXbXjX0XU.pXNXNXNXNXT 8 U U T $X@Xx.j 7 x.yXvXyXyXvXcXiXqX2X2XqX9X2X2X2X0XqXrXiXtX0X2X.XW.P.oXDXDXDX",
"DXDXDXDXDXDXDX@.4.s.!.>XpXxXxXjXrX.X XbXNXNXNXbX>X8 8 8 7 9 7 6 3 u U.yX6X7XmXvXiXqX9XqX9X9X9X2X9X0X0XiXrXiXaXiXrXqX2X^.I.DXDXDX",
"DXDXDXDXDXDXDXDXDX} w.P.<X0X9X3X2XP.iXbXbXbXbXcXjXj 6 2 - : l K [.tX1X).xXmXaXtX2X@X2X2X9X2X9X2XqXqXiXuXuXaXpXuXuXrXqX2X|.I.DXDX",
"DXDXDXDXDXDXDXDXDXDXDXDXw.P.W.~.~.Y.jXjXnXjXiXiXqXj 1 ; r C.jXjXiXtXQ.vXyXqX2X.X[.S.|.@X2X2X2X2X0X0XiXuXgXpXcXpXjXrXiXqX2XU.A.DX",
"DXDXDXDXDXDXDXDXDXDXDXDXDXH ..w.f.d.9XtXiXqXqX3XT 7 ; % #.iXtXiX9X#X1X<X!.M.A.A.M.C.{.}.}.oXoX:X2X0XuXpXxXgXxXfXiXuXiX0X2XU.w.DX",
"DXDXDXDXDXDXDXDXDXDXDXDXDXDXDXDXDXDX@X#X#X#X$XR 7 5 @ # g.3X9X#X#X$XN.c.X.C o.u.g.M.M.n.n.C.C.}. X:X0XrXuXxXpXjXuXiXqX2XXXV.<.r.",
"DXDXDXDXDXDXDXDXDXDXDXDXDXDXDXDXDXDXDXh.v.E j 7 6 h z # K $X$X$X$XY.f.G F A X.G X.$.$.$.%.%.r.M.N.S. X>XeXrXuXuXrX0X2X XZ.y.<...",
"DXDXDXDXDXDXDXDXDXDXDXDXDXDXDXDXDXDXDXE j 7 7 7 h G.m @ + z.Y.L.h.j.9.H x x x p x V F }  .} ..9.w.y.M.S. X=X:X>X:X:X}.Z.y.w.X.Y ",
"DXDXDXDXDXDXDXDXDXj.P h Y 8._ ) j 6 7 7 7 7 9 P 2X}.b v z 9.f.w...H V x p w w w w w w p G DXDX..<.q.r.y.F.M.A.Z.Z.B.M.e.q.9.o.O.",
"DXDXDXDXDXDXY 2 d f / ^ ~ ^ ( ! ! j 6 9 9 9 Y 0XjXm.b b n rX3XW.d...i e q q q q q q 0 z DXDXDXDX*.<.9.q.t.t.w.t.e.w.0.9.9.,.@.DX",
"DXDXDXDXDXDX> > > W W ^ ~ ~ ^ ^ ! ~ 5 2 1 j.cXvXbX&.b b =.mXmXjX9X%XV q q q q q q 0 m DXDXDXDXDXDX@.K ,.<.q.9.9.9.9.<.<.,...DXDX",
"DXDXDXDXDXDXDX1 2 ~ f ^ ` / / ( ( ! < &XDXzXnXvXxX' v b {.mXmXvXiX#XZ q q q 0 q e DXDXDXDXDXDXDXDXDXDXH J O.,.,.,...O.DXDXDXDXDX",
"DXDXDXDXDXDXDXDXI f f / f 3 , < h DXDXDXDX8XuXvXeX' m b [.bXbXcXtX#XZ q q q q q e DXDXDXDXDXDXDXDXDXDXDXDXDXg.=.DXDXDXDXDXDXDXDX",
"DXDXDXDXDXDXDXDXDXDXh.4 1 1 I DXDXDXBXvXpX}.[.nX,Xn z b [.bXjXjX9X$XV q q q w q q DXDXDXDXDXDXDXDXDXDXDXDXDXDXDXDXDXDXDXDXDXDXDX",
"DXDXDXDXDXDXDXDXDXDXDXDXDXDXDXDXDXmXvXpX4XB.o.>X[.' m m A.jXiXtX#XL.k e w i o.<.[ V V DXDXDXDXDXDXDXDXDXDXDXDXDXDXDXDXDXDXDXDXDX",
"DXDXDXDXDXDXDXDXDXDXDXDXDXDXDXMXmXbXpX0X:Xb...o.n.G b b r.9X#X@XY.9.r r { D.,X,XD.c.:.A DXDXDXDXDXDXDXDXDXDXDXDXDXDXDXDXDXDXDXDX",
"DXDXDXDXDXDXDXDXDXDXDXDXDXDXAXMXbXpXrX<XQ.J.4.A x n n n G N.Y.h.9.M w H =XpXxXfXrX:XN.O.A DXDXDXDXDXDXDXDXDXDXDXDXDXDXDXDXDXDXDX",
"DXDXDXDXDXDXDXDXDXDXDXDXDXDXMXmXnXsX=XW.I.J.p.;.x e r c c K K G i w i c.rXxXxXxXfXrX-Xs.| B DXDXDXDXDXDXDXDXDXDXDXDXDXDXDXDXDXDX",
"DXDXDXDXDXDXDXDXDXDXDXDXDXDXBXbXpX<XQ.R.Y.d.i.1.Z i + + + 0 q q q q V P.>XyXxXxXfXaX4XE.5.S DXDXDXDXDXDXDXDXDXDXDXDXDXDXDXDXDXDX",
"DXDXDXDXDXDXDXDXDXDXDXDXDXDXAXxXrX.XR.I.G.a.5.1.;.V e + # % b n r w } P.-X4XpXpXpXsXrX.XV.:.DXDXDXDXDXDXDXDXDXDXDXDXDXDXDXDXDXDX",
"DXDXDXDXDXDXDXDXDXDXDXDXDXDXDXxXrXQ.R.I.G.p.4.1.;.Z r + DXDXDXDXDXDXM c.Q.<XrXpXpXpX0X-XE.4.DXDXDXDXDXDXDXDXDXDXDXDXDXDXDXDXDXDX",
"DXDXDXDXDXDXDXDXDXDXDXDXDXDXDXDXrXQ.I.I.G.;.A B x x w e DXDXDXDXDXDXDXDXs.E.2XrXpXsX0X:XQ.d.DXDXDXDXDXDXDXDXDXDXDXDXDXDXDXDXDXDX",
"DXDXDXDXDXDXDXDXDXDXDXDXDXDXDXDXDXXXR.I.J.i.1.J V M i t e DXDXDXDXDXDXDXDXDX.X4XrXrX0X<XW.d.DXDXDXDXDXDXDXDXDXDXDXDXDXDXDXDXDXDX",
"DXDXDXDXDXDXDXDXDXDXDXDXDXDXDXDXDXDXDXJ.J.d.1.>.;.D M s p DXDXDXDXDXDXDXDXDXwX<X0XsX4X-XW.G.DXDXDXDXDXDXDXDXDXDXDXDXDXDXDXDXDXDX",
"DXDXDXDXDXDXDXDXDXDXDXDXDXDXDXDXDXDXDXDX|.d.i.1.;.J A B M DXDXDXDXDXDXDXDXDX}.^.-X4X4XXXW.N.DXDXDXDXDXDXDXDXDXDXDXDXDXDXDXDXDXDX",
"DXDXDXDXDXDXDXDXDXDXDXDXDXDXDXDXDXDXDXDXDXDXd.f.i.1.>.| V M DXDXDXDXDXDXDXDXDXW.Q.>X-XOXW.L.DXDXDXDXDXDXDXDXDXDXDXDXDXDXDXDXDXDX",
"DXDXDXDXDXDXDXDXDXDXDXDXDXDXDXDXDXDXDXDXDX@XXXoX|.U.V.s.H V  .DXDXDXDXDXDXDXDX|.Q.Q.OXQ.E.G.DXDXDXDXDXDXDXDXDXDXDXDXDXDXDXDXDXDX",
"DXDXDXDXDXDXDXDXDXDXDXDXDXDXDXDXDXgX5X5X9X#X@X@X@X@X0X Xt.H F %.DXDXDXDXDXDXDXDXE.W.Q.Q.U.z.DXDXDXDXDXDXDXDXDXDXDXDXDXDXDXDXDXDX",
"DXDXDXDXDXDXDXDXDXDXDXDXDXDXDXDXmXiX9X9X9X9X#X#X9XtXvXsXA. .F  .DXDXDXDXDXDXDXDX}..XOX.XW.b.4.} DXDXDXDXDXDXDXDXDXDXDXDXDXDXDXDX",
"DXDXDXDXDXDXDXDXDXDXDXDXDXDXDXBXaXqX#XtXyX9X3X3X9XiXvXfXS. . .DXDXDXDXDXDXDXDXDX<X4X7X3X<XQ.V.y.q...%.DXDXDXDXDXDXDXDXDXDXDXDXDX",
"DXDXDXDXDXDXDXDXDXDXDXDXDXDXDXlX2XZ.%..XqX#X|.U.|.^.gX0Xg...DXDXDXDXDXDXDXDXDXqXyXgXgXyXtX5X<XE.D.B.n.u.DXDXDXDXDXDXDXDXDXDXDXDX",
"DXDXDXDXDXDXDXDXDXDXDXDXDXDXDXDXDXDXDXDXDXDXDXDXDXDXcXiXN.DXDXDXDXDXDXDXDXDXtX1XtXvXvXgXyXyX5X.X.XU.B.!.y.DXDXDXDXDXDXDXDXDXDXDX",
"DXDXDXDXDXDXDXDXDXDXDXDXDXDXDXDXDXDXDXDXDXDXDXDXDXDXiX2Xg.DXDXDXDXDXDXDXvXcX5X/./.yXvXbXcXiX5X}.W.3XQ.E.:X4X=X8XDXDXDXDXDXDXDXDX",
"DXDXDXDXDXDXDXDXDXDXDXDXDXDXDXDXDXDXDXDXDXDXDXDXDXDXDXDXDXDXDXDXDXDXDXcXcXyX^.W.I.W.aXbXvXaXyXyX7X=X7XgX>XD.>XX.{.DXDXDXDXDXDXDX",
"DXDXDXDXDXDXDXDXDXDXDXDXDXDXDXDXDXDXDXDXDXDXDXDXDXDXDXDXDXDXDXDXDXDXDXDX:XE.M.M.DXDXDXcXcXaXvXmXmXsXD.B.qXn.%.%.&.DXDXDXDXDXDXDX",
"DXDXDXDXDXDXDXDXDXDXDXDXDXDXDXDXDXDXDXDXDXDXDXDXDXDXDXDXDXDXDXDXDXDXDXDXDXDXDXDXDXDXDXDX0X<XaXvXvXsXD.{ n.u.{ $.DXDXDXDXDXDXDXDX",
"DXDXDXDXDXDXDXDXDXDXDXDXDXDXDXDXDXDXDXDXDXDXDXDXDXDXDXDXDXDXDXDXDXDXDXDXDXDXDXDXDXDXDXDXDXDXDXiXaX[.n.{ #.DXDXDXDXDXDXDXDXDXDXDX",
"DXDXDXDXDXDXDXDXDXDXDXDXDXDXDXDXDXDXDXDXDXDXDXDXDXDXDXDXDXDXDXDXDXDXDXDXDXDXDXDXDXDXDXDXDXDXDXDXDXDXDXDXDXDXDXDXDXDXDXDXDXDXDXDX"
};
