/* XPM */
static char *_a66e862e74c408596094010d70018b5prJ7rLe8BxBfN44Y[] = {
/* columns rows colors chars-per-pixel */
"64 64 254 2 ",
"   c #351107",
".  c #66021D",
"X  c #573224",
"o  c #631B1C",
"O  c #7C5535",
"+  c #754E30",
"@  c #6F5548",
"#  c #AF221C",
"$  c #993827",
"%  c #99291D",
"&  c #D31F1D",
"*  c #D3291D",
"=  c #CA2723",
"-  c #D72A23",
";  c #CE3A24",
":  c #E63226",
">  c #F4332A",
",  c #FB342D",
"<  c #FA392E",
"1  c #EC3129",
"2  c #87542D",
"3  c #8A5631",
"4  c #8D5934",
"5  c #855836",
"6  c #915D3A",
"7  c #995A37",
"8  c #894929",
"9  c #AB503A",
"0  c #9A643D",
"q  c #95623A",
"w  c #8F603A",
"e  c #A3673D",
"r  c #DB771A",
"t  c #D04E36",
"y  c #F14D35",
"u  c #D95B1B",
"i  c #AA5744",
"p  c #8B694A",
"a  c #9C6A43",
"s  c #946847",
"d  c #8E714F",
"f  c #937553",
"g  c #997756",
"h  c #8D6C52",
"j  c #A76B44",
"k  c #AC7145",
"l  c #AB744A",
"z  c #A7764B",
"x  c #B4754B",
"c  c #B3794D",
"v  c #B97B4D",
"b  c #B07447",
"n  c #AE7B52",
"m  c #A67855",
"M  c #B27D53",
"N  c #BB7E51",
"B  c #BB7D5C",
"V  c #AE674C",
"C  c #CF534A",
"Z  c #F45642",
"A  c #D76751",
"S  c #F37254",
"D  c #CF7D79",
"F  c #EF7267",
"G  c #DE8B1A",
"H  c #E89A17",
"J  c #E5881B",
"K  c #E7A617",
"L  c #ECB613",
"P  c #EEB70F",
"I  c #E78C27",
"U  c #EAB93B",
"Y  c #F2D10F",
"T  c #9C835B",
"R  c #BA824D",
"E  c #AB8258",
"W  c #B48254",
"Q  c #BC8255",
"!  c #B48259",
"~  c #BC855A",
"^  c #BB8B5C",
"/  c #B6895C",
"(  c #BC8C62",
")  c #B78B67",
"_  c #BE9369",
"`  c #B99367",
"'  c #BD9876",
"]  c #B48A70",
"[  c #A89475",
"{  c #C2824E",
"}  c #C28455",
"|  c #C48956",
" . c #C28659",
".. c #C38B5C",
"X. c #CA8C5A",
"o. c #CA8955",
"O. c #D18D58",
"+. c #CC915D",
"@. c #D3925E",
"#. c #DD965D",
"$. c #E39B56",
"%. c #C48E62",
"&. c #C88F67",
"*. c #C59264",
"=. c #CC9464",
"-. c #C1946B",
";. c #CD9B6A",
":. c #C99869",
">. c #D39562",
",. c #D49A65",
"<. c #DA9A64",
"1. c #D39C6B",
"2. c #DB9D6A",
"3. c #D39568",
"4. c #C79A76",
"5. c #D89D71",
"6. c #DA896D",
"7. c #E39C62",
"8. c #E89D66",
"9. c #F19A6F",
"0. c #D4A26D",
"q. c #DCA26D",
"w. c #DCAA6A",
"e. c #CDA373",
"r. c #C9A876",
"t. c #D3A473",
"y. c #DBA572",
"u. c #D6AA74",
"i. c #DCAA74",
"p. c #D4AB7A",
"a. c #DCAC7A",
"s. c #D7A57A",
"d. c #DCB27C",
"f. c #D9B57B",
"g. c #CFA46F",
"h. c #E2A46C",
"j. c #E9A76C",
"k. c #E4A472",
"l. c #E3AB74",
"z. c #EBAD74",
"x. c #E4AE7A",
"c. c #E8AA78",
"v. c #E4B27B",
"b. c #EBB47B",
"n. c #EDB97E",
"m. c #E8B277",
"M. c #F2B47C",
"N. c #F4B97D",
"B. c #F9B87E",
"V. c #F1AC72",
"C. c #F9C97F",
"Z. c #B49A89",
"A. c #BEA894",
"S. c #BDA085",
"D. c #BFB1AB",
"F. c #C59E81",
"G. c #C9A788",
"H. c #DBB987",
"J. c #C7AC95",
"K. c #CDB29C",
"L. c #D3B59C",
"P. c #DAB796",
"I. c #D1AF83",
"U. c #E4B582",
"Y. c #EBB583",
"T. c #E4BB83",
"R. c #EDBB83",
"E. c #EDBC8A",
"W. c #E5B58A",
"Q. c #F4BC83",
"!. c #FABD82",
"~. c #F2BE8B",
"^. c #FBBD8A",
"/. c #F7B483",
"(. c #ECB389",
"). c #D5BEAD",
"_. c #DABFA8",
"`. c #D4B5AC",
"'. c #EEA9A6",
"]. c #D8C193",
"[. c #EDC286",
"{. c #ECC38A",
"}. c #ECC98C",
"|. c #E6C488",
" X c #F3C286",
".X c #FBC486",
"XX c #F4C38B",
"oX c #FCC58C",
"OX c #F2CB8D",
"+X c #FDCA8D",
"@X c #F8C880",
"#X c #F8D18C",
"$X c #EACB96",
"%X c #FBC690",
"&X c #F4CD92",
"*X c #FCCC92",
"=X c #EDD397",
"-X c #F4D395",
";X c #FCD395",
":X c #FCDB95",
">X c #F6D69A",
",X c #FCD499",
"<X c #F5DB9B",
"1X c #FCDC9C",
"2X c #F7D994",
"3X c #E6D285",
"4X c #F7E19E",
"5X c #FCE29E",
"6X c #ECE09F",
"7X c #DAC8B8",
"8X c #D6C2B3",
"9X c #E6C8AA",
"0X c #FDDEA1",
"qX c #F6D9AA",
"wX c #E4CBBA",
"eX c #ECD3B6",
"rX c #F6DAB4",
"tX c #E9D4AA",
"yX c #F7E3A2",
"uX c #FDE4A3",
"iX c #FDEBA5",
"pX c #FEECAA",
"aX c #FBE1AD",
"sX c #FEF2AC",
"dX c #FAE5B7",
"fX c #FDF5B3",
"gX c #FEFBB5",
"hX c #FDF8BB",
"jX c #DDD0C8",
"kX c #E4CBC6",
"lX c #E7D8C9",
"zX c #E9DBD4",
"xX c #F4DDCF",
"cX c #F9E7C6",
"vX c #FCF5C8",
"bX c #ECE3DB",
"nX c #EBE0D4",
"mX c #FAECD4",
"MX c #F6E9D9",
"NX c #FCF4D8",
"BX c #EDE8E4",
"VX c #F2EAE3",
"CX c #F4EFEB",
"ZX c #F2E5E3",
"AX c #F6F1EC",
"SX c #FBF4EA",
"DX c #FDFBEC",
"FX c #FBF4E5",
"GX c #F7F4F2",
"HX c #F9F6F3",
"JX c #FBF9F5",
"KX c #FFFFFF",
"LX c #FEFEFD",
"PX c #FFFFFF",
/* pixels */
"KXKXKXKXKXKXKXKXKXKXKXKXKXKXKXKXKXKXKXKXKXKXKXKXKXKXKXKXKXKXKXKXKXKXFXaX=X|.9XGXLXLXKXKXKXKXKXKXKXKXKXKXKXKXKXKXKXKXKXKXKXKXKXKX",
"KXKXKXKXKXKXKXKXKXKXKXKXKXKXKXKXKXKXKXKXKXKXKXKXKXKXKXKXKXKXKXKXKXKXmXmX>X-XU.1.wXLXKXKXKXKXKXKXKXKXKXKXKXKXKXKXKXKXKXKXKXKXKXKX",
"KXKXKXKXKXKXKXKXKXKXKXKXKXKXKXKXKXKXKXKXKXKXKXKXKXKXKXKXKXKXKXKXKXKXKXKXrX,XOXl.=.8X8XAXKXKXKXKXKXKXKXKXKXKXKXKXKXKXKXKXKXKXKXKX",
"KXKXKXKXKXKXKXKXKXKXKXKXKXKXKXKXKXKXKXKXKXKXKXKXKXKXKXKXKXKXKXKXKXKXKXSX0X<X&XR.0.^ k GXKXKXKXKXKXKXKXKXKXKXKXKXKXKXKXKXKXKXKXKX",
"KXKXKXKXKXKXKXKXKXKXKXKXKXKXKXKXKXKXKXKXKXKXKXKXKXKXKXKXKXKXKXKXKXJXmXqXuXuX*XQ.x.=.c bXKXKXKXKXKXKXKXKXKXKXKXKXKXKXKXKXKXKXKXKX",
"KXKXKXKXKXKXKXKXKXKXKXKXKXKXKXKXKXKXKXKXKXKXKXKXKXKXKXKXKXKXKXKXmXqXiXpXpX<X+X Xb.y.| J.HXKXKXKXKXKXKXKXKXKXKXKXKXKXKXKXKXKXKXKX",
"KXKXKXKXKXKXKXKXKXKXJXLXKXKXKXKXKXKXKXKXKXKXKXKXKXKXKXKXKXJXNXcXuXfXgXfXiX,X+X.XN.l.&.l 7XKXKXKXKXKXKXKXKXKXKXKXKXKXKXKXKXKXKXKX",
"KXKXKXKXKXKXKXKXJXvXpX0XdXHXKXKXKXKXKXKXKXKXKXKXKXKXKXKXFXfXgXfXfXgXgXsX5X,X;XoXR.k.@.M E CXKXKXKXKXKXKXKXKXKXKXKXKXKXKXKXKXKXKX",
"KXKXKXKXKXKXKXFXdX5XiX5X5X1XcXLXKXKXKXKXKXKXKXKXPXPXPXPXaX5XiXiXiXiX5X2X}. Xn.n.v.q.@.N k G.KXKXKXKXKXKXKXKXKXKXKXKXKXKXKXKXKXKX",
"KXKXKXKXKXKXmXuX,X,X,X X+X5X,XqXSXKXKXKXKXKXKXKXPXPXPXPXmXxXP.^ s.G.( W W z s z 0.k.>.v x 0 BXKXKXKXKXKXKXKXKXKXKXKXKXKXKXKXKXKX",
"KXKXKXKXKXNXpXiX:X,X:X,XXX@X;X+X~.LXKXKXKXKXKXKXPXPXPXPXSXA.S.A.GXBXjX@     X T.!.k.@.N x j ).KXKXKXKXKXKXKXKXKXKXKXKXKXKXKXKXKX",
"KXKXKXLXdXuX1X,X+XM..X*X;XoXz.V.V.FXKXKXKXKXKXKXPXSX6X6X3Xr.5X,X8X@ @ `.X o H..Xb.8.X.x x k A.KXKXKXKXKXKXKXKXKXKXKXKXKXKXKXKXKX",
"KXKXSXqXuX5X;X,X,X+Xz.M.!.oXN.#.j.mXKXKXKXSXrXrXqX-X:X5X5X5X5X:X3Xp.[ Z.g W..X/.z.>.R b b k A.KXKXKXKXKXKXKXKXKXKXKXKXKXKXKXKXKX",
"KXJXrXuXpX,XB.N.+X;X+Xh.2.z.j.#.7.lXKXKXKXs.i V a.%X*X;X,X,X:X,X&X}.T.a.k.k.z.j.<.} R ,.0.R K.PXKXKXKXKXKXKXKXKXKXKXKXKXKXKXKXKX",
"KXmX;X,X*X*X+Xl.h.b.Q.B.>.o.8.O.o.*.AXKXLX&.. . . V Y.XX*X*X*XoXXX~.Q.E.U.l.2.=.} A g.R e e :.PXKXKXKXKXKXKXKXKXKXKXKXKXKXKXKXKX",
"KXeX~.Y.x.x. X+XB.<.,.7.j.{ $.| +.@.W.LXSX1X] B 4.&.4.l.v.Q.XXXXXXE.U.U.U.Y.a.*.X.w.e 2 q R 4.LXKXKXKXKXKXKXKXKXKXKXKXKXKXKXKXKX",
"KXP.a.p.( / :.c.Q.V.X.O.7.v O.#.8.7.W.KXJXa.l.l.x.b.Q.oX.XQ.x.l.y.a.a.a.a.u.i.u.;.R 3 + l W kXLXKXKXKXKXKXKXKXKXKXKXKXKXKXKXKXKX",
"KXP.^ _ / n z ! =.7.#.O.{ k O.8.z.eXKXKXKXrXQ.Q..X+X*X+X*X+X!.R.v.l.0.1.;.;.i.t.^ e R R e V BXLXKXKXKXKXKXKXKXKXKXKXKXKXKXKXKXKX",
"KX9X,.( E W n m W @.R k k l Q -.bXKXKXKXLXmX+X.X+X.X+X+X+X+X+X.XN.z.l.h.2.;.*.^ ^ e e % % $ z K.).zXJXKXKXKXKXKXKXKXKXKXKXKXKXKX",
"KXlXw.i.u.r.;.*.^ / n R Q ~ | W ).GXCXCX7X4.+X+X.X+X+X+X+X+X.X!.M.z.h.h.,.+...f.f...9 # % 7 k c M l n K.AXKXKXKXKXKXKXKXKXKXKXKX",
"KXMXq.n.|.|.|.|.3XH.t.=...| ~ Q n l c c N N h.oX+X+X.X+X+X.XB.M.z.j.h.<.@.w.yXsXsX5XR.6.1.e.*.=.>.1.1.>.&.lXKXKXKXKXKXKXKXKXKXKX",
"KXGXa.x.OX#X2X<X6X4X}.x.0.+.X.Q N  .X. . .N } N..X.X.X.X.XC.N.z.h.h.<.@.3X5X5XiX5X;X*X X}.>X*XU.n.R.Q.R.m.y.nXKXKXKXKXKXKXKXKXKX",
"KXKXP.,.[.-X2X4XiXiX=Xn.l.0.=.~ =.=.3.>.+.X.} i..X.X!.!.B.B.V.h.w.@.X.n.5X5XiXiX0X*X+XXX~.Y.E.Y.XX&X*X-X&X{.d.AXKXKXKXKXKXKXKXKX",
"KXKXzX( w.}.>X4X5X4X=X|.v.,...d.T.x.l.q.>.=.=XsX:XB.B.V.V.j.h.#.O.o.| #X5XiXuXiXiXuX*XoXXXE.E.E.E.>XyX0X0X0X<X$XeXAXKXKXKXKXKXKX",
"KXKXLX)...x.}.<XyX4X}.n.0.*.|.4X<X&XY.2.1.pXhXhX9.Z m.h.7.#.O.{ R R R ,X:X:XiXiXuX,X,X%XXXXXXX{.E.a.y.t.1.0.p.d.[.{.eXLXKXKXKXKX",
"KXKXLXLX4.X.a.{.-X}.|.0.0.$XuXsXuX-Xn.i.uXgXhXgXS ; <X[.t.%.z z e 7 y.#X:XpXuXuX1X;X%XXXXX%X%X%X~.~.XXXXXXXXR.b.y.0.v.W.SXKXKXKX",
"KXKXLXKXGXF...1.i.f.u.|.-XpXsXpX0XOXa.<XgXgXgXgXS < Z Z S Q.$X9.y , 9.:X5X5X5XiXuX;X*XXXXX%X%XXXXXXX*X&X-X;X;X&XOXQ.v.z.W.MXKXKX",
"KXKXKXKXLXLXwX( +.1.x.}.<XyXyX0X>XR.E.pXgXgXgXpX&X< < < > > , 1 ; 9 l.:XC.#XsXuX,X*X%X%X%X%X%XXX&X*X-X;X>X;X,X,X-X%XXXM.b.W.HXKX",
"KXKXKXKXKXKXKXCX) W &.l.XXOX%XoXQ.x.0XpXpXpXpX0X1Xy < - # 9 i A H.;X+XC.5XiX5X;XXX~.XX%X%XXXoXXX%X;X;X1X<X1X<X<X>X;X&X%XM.z.9XKX",
"KXKXKXKXKXKXKXKXJX8XG.( =.l.b.Y.M.k.,X0X0X0X0X,X*Xy = $ 6 s.0X0X,X*Xn.iX5X+XXXY.H.v.U.~.XXXXXXXX&X&X-X>X5X<X0X<X1X>X;X*XXXx.s.bX",
"KXKXKXKXKXKXKXKXKXKXKXGXJ.M N =.1.2.%X,X,X,X%X^.F > $ O ) ,X,X,X*X^..X Xv.t.u.p.u.s.I.U.U.W.W.E.XX&X>X1XyXyX5X<X1X>X;X&XXXx.=.P.",
"KXKXKXKXKXKXKXKXKXKXKXKXKXJXzX).L.L.~.^.^.^./.S , : 5 + ;.^.^.%X^./.y.0./ z ( -.4.t.t.r.e.p.a.H.W.{.&X-X<X<X0X<XqX;X*XXXE.y.%.-.",
"KXKXLXLXKXKXLXLXKXKXKXKXKXKXKXKXKXLXxX5.5.S y , > t p + B /./././.k.3.m n n / m / ( _ ` _ _ -.1.y.d.T.}.$X>X>X>X>X&XOXY.a.;...Q ",
"KXKXLXLXKXKXKXLXKXKXKXKXKXKXKXKXLXZX'.F y , , , t k.d O 5 5.k.k.5.3.%.M a a j q a l n ! W ! / %.:.;.t.a.T.[.|.OX{.[.U.a.;.=...Q ",
"KXKXLXLXKXKXLXHXwXD t t A $.U I y > , , , , > C OXU.f d p ..3.=. .B z a 6 4 4 4 4 4 6 q m 7XkX^ ..*.:.;.t.t.u.i.i.y.0.:.&.%. .Q ",
"KXKXLXLXbX'.A = u r L K H K L J J y > 1 1 1 A &X0Xr.f f g -XoXn.3...q 3 3 3 3 3 2 2 3 p lXKXKXlX-. .%.-.*.*.:.:.:.:.*.%.%...Q L.",
"KXKXKXKXZXC & & & J G K H H K K J H : : - 6.aXaXuX` f f ' sXsX5X%XM.z 3 3 3 3 3 3 O d CXKXKXKXKXzX( N  ...*.*.%.*.....X. .~ 8XJX",
"KXKXKXKXKXGXD & - H r H Y L L P P J ; D zXtXuXpXyXT d f I.sXsXiX,X^.x 3 3 3 3 3 O Z.HXKXKXKXKXKXLXCX`.M v ~ } ~ } ~ ~ G.kXAXKXKX",
"KXKXKXKXKXKXLXkXA r J K r ; - * t I.zXSXNX=X>XpX=Xg h f ].iXpXuX,X/.x 3 3 3 3 3 5 zXKXKXKXKXKXKXKXKXKXGXkXJ.4.4.G.9XbXKXKXKXKXKX",
"KXKXKXKXKXKXKXPXPXlX0.; = = C `.CXNXhXiX<XH.T.uX].T d f H.uXuX0X*X/.z 3 3 3 3 3 4 ] BXKXKXKXKXKXKXKXKXKXKXKXKXKXKXKXKXKXKXKXKXKX",
"KXKXKXKXKXKXKXKXKXKXKXHXkXBXKXDXvXsXpX<X}.i.^ }.P.E p h p.<X,X,X^.8.a 2 4 0 ^ ( W b z jXJXKXKXKXKXKXKXKXKXKXKXKXKXKXKXKXKXKXKXKX",
"KXKXKXKXKXKXKXKXKXKXKXKXKXKXDXgXsXiX<X#X[.i.Q ^ r.m f f -.%X^.~.U.D 6 4 W f.}.}.f.0.| c J.LXKXKXKXKXKXKXKXKXKXKXKXKXKXKXKXKXKXKX",
"KXKXKXKXKXKXKXKXKXKXKXKXKXLXvXsXsX4X#X Xn.h.+.c s z z f m k.U.5.%.j 4 M |.=XyX5X-X|.w. .c K.KXKXKXKXKXKXKXKXKXKXKXKXKXKXKXKXKXKX",
"KXKXKXKXKXKXKXKXKXKXKXKXKXDXhXpXyX=X|.b.m.h.<.~ 0 O s a f M B V 6 4 0 0.$XyXiXyX5X-X[.0.Q k ).KXKXKXKXKXKXKXKXKXKXKXKXKXKXKXKXKX",
"KXKXKXKXKXKXKXKXKXKXKXKXKXJXhXpX4X Xn.z.z.q.@.+.l q O + O O 5 3 3 4 z l.}.2XyXyX4X2XOXv.=.v n GXKXKXKXKXKXKXKXKXKXKXKXKXKXKXKXKX",
"KXKXKXKXKXKXKXKXKXKXKXKXKXPXvXuX>X[.z.z.h.<.@.X.| z w O + 5 f g 4 6 W x. XOX<X<X<X2XOXR.l.| l 7XKXKXKXKXKXKXKXKXKXKXKXKXKXKXKXKX",
"KXKXKXKXKXKXKXKXKXKXKXKXKXKXDXyXOXn.z.z.h.,.+.X.A E 6 O jXLXKXKXBXZ.z q.n.[.-X2X<X2X&X[.v.+.c K.JXKXKXKXKXKXKXKXKXKXKXKXKXKXKXKX",
"KXKXKXKXKXKXKXKXKXKXKXKXKXKXKXNX-Xn.z.z.h. .x k j s 6 O h GXKXKXKXKXkX' ,.v.OX-X<X<X-XXXn.<.Q ' CXKXKXKXKXKXKXKXKXKXKXKXKXKXKXKX",
"KXKXKXKXKXKXKXKXKXKXKXKXKXKXKXKXFXR.b.z.h.>.X.N x j 0 q 3 8XKXKXKXKXKXKXVX9XR.OX-X-X-X{.b.2.} ) BXKXKXKXKXKXKXKXKXKXKXKXKXKXKXKX",
"KXKXKXKXKXKXKXKXKXKXKXKXKXKXKXKXKXSX$Xz.k.<.X.o.N x j e q Z.KXKXKXKXKXKXKXVXz.Q.#X-XOXR.b.h. .] ZXKXKXKXKXKXKXKXKXKXKXKXKXKXKXKX",
"KXKXKXKXKXKXKXKXKXKXKXKXKXKXKXKXKXKXKXxX(.2.@.o.} N x k j m KXKXKXKXKXKXKXLXb.M.{.OXXX[.n.h...' CXKXKXKXKXKXKXKXKXKXKXKXKXKXKXKX",
"KXKXKXKXKXKXKXKXKXKXKXKXKXKXKXKXKXKXKXKXLXW.2.1.3.X.| Q k j jXKXKXKXKXKXKXKXeXb.n.[.XXR.b.k.X.F.AXKXKXKXKXKXKXKXKXKXKXKXKXKXKXKX",
"KXKXKXKXKXKXKXKXKXKXKXKXKXKXKXKXKXFXaXqXrX~.(.W.Y.x.a.1.N l M jXKXKXKXKXKXKXHXR.n.R.Q.n.m.k.X.G.GXKXKXKXKXKXKXKXKXKXKXKXKXKXKXKX",
"KXKXKXKXKXKXKXKXKXKXKXKXKXKXKXLXvX5X+X+X*X^.oX~.~.~.OXT.&.n M _ CXKXKXKXKXKXKXMXv.b.n.n.z.q.| G.JXKXKXKXKXKXKXKXKXKXKXKXKXKXKXKX",
"KXKXKXKXKXKXKXKXKXKXKXKXKXKXKXNXiX:X*XoX*X%X^.^.oX;XiX<Xp.! E ! nXKXKXKXKXKXKXSXv.R.Q.R.b.h.+.W K.AXKXKXKXKXKXKXKXKXKXKXKXKXKXKX",
"KXKXKXKXKXKXKXKXKXKXKXKXKXLXLXhX0X%X^.;X,X%XoX%X%X:XiX5Xa.! / ( VXKXKXKXKXKXJX&XXXOX#XoX Xn.u.;.*.~ ' zXKXKXKXKXKXKXKXKXKXKXKXKX",
"KXKXKXKXKXKXKXKXKXKXKXKXKXKXLXrXXXI.-.T.*X.XY.x.b.M.5X&X1./ _ 7XKXKXKXKXKXKXcX*X,X5X5X:X;X+X[.v.v.u.r.:.wXJXPXPXKXKXKXKXKXKXKXKX",
"KXKXKXKXKXKXKXKXKXKXKXKXKXKXKXMXI.' K.xXP.t.4.P.nXmXuX,Xs.%.AXKXKXKXKXLXvXdX;X.X#XiXiX5X:X;X+XR.n.d.u.v.g.wXPXPXKXKXKXKXKXKXKXKX",
"KXKXKXKXKXKXKXKXKXKXKXKXKXKXKXKXKXKXKXKXKXGXJXKXKXmX:XXX;.-.LXKXKXKXKXdXiXiX+XB.B.:XiXpXiX,X+XY.v.OXn.v. XOX|.$XAXKXKXKXKXKXKXKX",
"KXKXKXKXKXKXKXKXKXKXKXKXKXKXKXKXKXKXKXKXKXKXKXKXKXJX9XG.' kXKXKXKXKXKXyXuX2XN.b.z.b.<XpXiX5X:X:XOX[.#X5X}.f.}./ G.JXKXKXKXKXKXKX",
"KXKXKXKXKXKXKXKXKXKXKXKXKXKXKXKXKXKXKXKXKXKXKXKXKXKXKXKXKXKXKXKXKXKXLXmXE.R.t.1.9XlXlXuXuX1XiXsXsX2Xf.u.-Xe.` _ ` VXKXKXKXKXKXKX",
"KXKXKXKXKXKXKXKXKXKXKXKXKXKXKXKXKXKXKXKXKXKXKXKXKXKXKXKXKXKXKXKXKXKXKXKXCXlXlXAXKXKXKXdX*XXX<XpXiX2Xf.E e.e.E ( S.HXKXKXKXKXKXKX",
"KXKXKXKXKXKXKXKXKXKXKXKXKXKXKXKXKXKXKXKXKXKXKXKXKXKXKXKXKXKXKXKXKXKXKXKXKXKXKXKXKXKXKXKXAXzXeX:X<X|.e.E ) ' G.bXKXKXKXKXKXKXKXKX",
"KXKXKXKXKXKXKXKXKXKXKXKXKXKXKXKXKXKXKXKXKXKXKXKXKXKXKXKXKXKXKXKXKXKXKXKXKXKXKXKXKXKXKXKXKXKXKXrXE.I.7XlXbXLXPXKXKXKXKXKXKXKXKXKX"
};
