/* XPM */
static char *e723f652c0764ea3850583f4c8d038f4OTXrFwuyBCCFstm2[] = {
/* columns rows colors chars-per-pixel */
"64 64 222 2 ",
"   c gray12",
".  c #3B3B3B",
"X  c #2A2929",
"o  c #4B381B",
"O  c #5F3419",
"+  c #67361A",
"@  c #633B28",
"#  c #336139",
"$  c #544419",
"%  c #544A19",
"&  c #5A4C19",
"*  c #5C4419",
"=  c #5D5319",
"-  c #4B461B",
";  c #614C18",
":  c #67471C",
">  c #645419",
",  c #6C5519",
"<  c #6C5C18",
"1  c #665918",
"2  c #755E18",
"3  c #795719",
"4  c #766318",
"5  c #7B6518",
"6  c #7B6B19",
"7  c #7A6617",
"8  c #796D1B",
"9  c #554F24",
"0  c #694F2A",
"q  c #746B35",
"w  c #7C3B49",
"e  c #38594C",
"r  c #474747",
"t  c #4D4D4D",
"y  c #4C4649",
"u  c #555555",
"i  c #5F5F5F",
"p  c #5D5454",
"a  c #655C41",
"s  c #694E48",
"d  c #696343",
"f  c #736941",
"g  c #796D45",
"h  c #7E7445",
"j  c #676A56",
"k  c #564F6D",
"l  c #6D4967",
"z  c #676767",
"x  c gray42",
"c  c gray45",
"v  c #7B7B7B",
"b  c #566C61",
"n  c #FB1819",
"m  c #E71D19",
"M  c #FC3419",
"N  c #F51725",
"B  c #EC2B22",
"V  c #DA3624",
"C  c #8C581B",
"Z  c #826B18",
"A  c #87671A",
"S  c #95681A",
"D  c #857318",
"F  c #8B7218",
"G  c #8D7818",
"H  c #937419",
"J  c #957B18",
"K  c #9B7D19",
"L  c #AA7A19",
"P  c #AC7119",
"I  c #815D20",
"U  c #90702A",
"Y  c #B3782A",
"T  c #FA4F19",
"R  c #DE7A1E",
"E  c #BE1975",
"W  c #AE2375",
"Q  c #9A375E",
"!  c #DA1A54",
"~  c #C3187F",
"^  c #D01A67",
"/  c #D22669",
"(  c #837441",
")  c #907350",
"_  c #AA7373",
"`  c #9D645D",
"'  c #C47F75",
"]  c #B0262A",
"[  c #539F3E",
"{  c #1DBB63",
"}  c #38B971",
"|  c #1CA75E",
" . c #768B56",
".. c #6FA44D",
"X. c #5E9C7B",
"o. c #6AA47E",
"O. c #37C558",
"+. c #1CC366",
"@. c #1BC46B",
"#. c #24C079",
"$. c #5CCA54",
"%. c #9C8318",
"&. c #958419",
"*. c #A48319",
"=. c #A48C18",
"-. c #AB8C19",
";. c #AB8619",
":. c #B6871B",
">. c #AD9519",
",. c #B39419",
"<. c #BB9B19",
"1. c #B99619",
"2. c #BCA419",
"3. c #B18C29",
"4. c #B4AF2D",
"5. c #C78719",
"6. c #C69919",
"7. c #D8941B",
"8. c #FB9A18",
"9. c #E9911A",
"0. c #C2A419",
"q. c #CBA519",
"w. c #CBAB19",
"e. c #C5AB19",
"r. c #D4AC1A",
"t. c #DCAC1A",
"y. c #D8A519",
"u. c #CEB418",
"i. c #D5B219",
"p. c #DBB419",
"a. c #DDBA18",
"s. c #D5BB19",
"d. c #FCA518",
"f. c #E4B71A",
"g. c #F9BA1A",
"h. c #E6AA1A",
"j. c #CD902B",
"k. c #D0BA27",
"l. c #F7BE23",
"z. c #9DCF38",
"x. c #A7D635",
"c. c #DCC41A",
"v. c #E3C318",
"b. c #EBCC19",
"n. c #E8C619",
"m. c #F3C419",
"M. c #F6C919",
"N. c #EED418",
"B. c #EEDC1C",
"V. c #F3D418",
"C. c #F5DB19",
"Z. c #FCDD1A",
"A. c #FBD619",
"S. c #FBE21A",
"D. c #FDEA1C",
"F. c #FEE317",
"G. c #CFDA28",
"H. c #FBDA21",
"J. c #EFD727",
"K. c #EEE124",
"L. c #FEED21",
"P. c #FBE422",
"I. c #8E904E",
"U. c #AA8B59",
"Y. c #A99B57",
"T. c #ABA44E",
"R. c #908C75",
"E. c #BC9C6D",
"W. c #A2926B",
"Q. c #B7AF71",
"!. c #C0B76E",
"~. c #744E93",
"^. c #725493",
"/. c #796E9B",
"(. c #7058AF",
"). c #776DA5",
"_. c #7338E7",
"`. c #7C22D0",
"'. c #6947E8",
"]. c #625AEC",
"[. c #694CF1",
"{. c #4D7EEE",
"}. c #674CDE",
"|. c #9B18B5",
" X c #8533B0",
".X c #AC1899",
"XX c #C21F82",
"oX c #C32A85",
"OX c #817885",
"+X c #8217D3",
"@X c #3985B2",
"#X c #26A49D",
"$X c #6C938E",
"%X c #6BA7B5",
"&X c #629DAB",
"*X c #1EC585",
"=X c #22C5BA",
"-X c #3E9BEC",
";X c #34ACEB",
":X c #2CB7C5",
">X c #4A86EE",
",X c #26C6C5",
"<X c #25C9EE",
"1X c #26C5EA",
"2X c #26CBF2",
"3X c #838383",
"4X c gray56",
"5X c #838D88",
"6X c #9B9B9B",
"7X c #8C8A94",
"8X c #9790A5",
"9X c #ABABAB",
"0X c #A7A3A3",
"qX c #B7B7B7",
"wX c #B3B2AF",
"eX c #9EA29D",
"rX c #C2AAAA",
"tX c gray78",
"yX c LightGray",
"uX c #DFDFDF",
"iX c #D1D0C8",
"pX c #EFEFEF",
/* pixels */
"  .   .   .   .   .   .   .   .   .   .   .   .   .   .   .   .   .   .   .   .   .   .   .   .   .   .   .   .   .   .   .   . ",
"u u u t u t u u u t r yXuXuXuXyXuXyXuXuXuXyXuXyXuXuXuX  . 3X9XqXyXtXyXyXtXyXqXtX9X3Xu   r r r r r r r r r r u t u t u u u u u t ",
"u u u u u u u u u u r uXyXtXyXqXyXyXyXtXyXyXqXyXyXtX4X  . 3XtXqX4X9X3X4X4X4X4X3X9Xu .   . x 4X4X3X4X4X4Xv x z r r r t r r r t r ",
"4X4X3X4X4X4X3X4X  u t uXtXtXqXyXqXtXtXqXtXtXqXqXyX4Xi   . 9XyX9X4X9X4X9X3X9X4X9X3Xu .   . 4XyXuXuXuXyXuXqXqX9X4X3X4X4X4X3X4X4X4X",
"yXyXyXyXqX9X4X3X  u r uXyX9X9X6X9X4X9X9X9X9X6X9X9Xv u   . 4XqX4X4X3X9X9X9X9X3X4Xc t .   . 3XuXuXqXtXqXyXuXuXuXyXuXyXtXyXyXyXtXyX",
"9X9X9X9X6X9Xv c   u r pXqX6X9X9X9X9X6X9X4X9X3X9X9Xx u   . r 9X4X9X9X3X4X6X4X9Xx u u .   . 4XyXqX9X4X9X4X9X9X6X4X4X9X4X9X3X9X4X6X",
"qX6X6X6X9X4Xv z   t r pXyX9X3X9X4X9X4X6X6X6X4X4X9X4Xt   . r v 4X3X9X4X9X9X3X9Xc . . .   . OXuXqX4X9X3X6X3X4X4X9X3X4X6X4X9X6X4X6X",
"qX9X3XqX3X6Xz u   . r pXtX4X6X4X9X9X6X4Xv 4X4X9X4Xi u   . r r 4X9X9X6X4X4X4X9Xx . . .   . 4XuX9X9X3X6Xv 9X6Xv 4X9X3X9X9X4Xv 9X6X",
"6X9X9X4X6Xc r r     t tXqX9X6X9XOX9X4X6X3X6X4X4X9Xx u     t u r v . . . . . . . .     . . c uXuX4X9XR.OX6Xc eX4X9X4X4Xv 9X9Xc 4X",
"4X4X3X7Xc u r r   . r 9XpX9X6X9X4X4X4X4X4X4X3X9X5Xu c     . r . . . . . . .   .       t r r tXtX4X4X4X4X6X6X6X/.4X9X4X9X9X3X9X4X",
"c x c c t t . .     t 4XyX4X9X4X4Xv 4X7X9X3X9X4X9Xx u .   . r .               .   .   t p y tX9X4X9X$X0X4XR.7Xc z z i i z i z i ",
"u u r r r         . . c uX9X3X6Xv v v 9X6X4X3Xv 4Xx z .   . r t t r c v $X9XeXeX9X6Xc . t y qX4Xx c z i z u u u u r t r r r r t ",
"          .   .   . u r uXtX4X4X4X6X6XR.4X9X$X4X9X4Xt .   . . c 9X9XyXuXpXyXyXyX6Xx u   u r 7Xz z i p y 9 r . . . . .   .   .   ",
"  .   .     .   . . t r 0XrX_ ` U.U.U.U.U.Y.Y.Y.Y.Y. .b     . 9XqXuXyXqX5X$X_ /./.).^.~.~.^.~.~.~.l s y . . .                   ",
". . . . . . . . . . t i Q B n T d.d.8.8.d.A.S.S.S.S.z...a . . 9XuXqX9XR.T.4.U.) c (.'.`.`.`.+X+X|.XXW Q . .   . . . . . . . . . ",
"u t . . . . . .   . u Y T T T 9.g.g.g.g.g.x.x.x.x.x.z.p.<.j u 9XpX9XR.k.n.p.0.>.;.D l  X|.|.|.|..X! ! ^ Q p r t r t r r r r r . ",
"6X6X4X6X4X6X4X6X6X  . j.d.d.8.l.P.F.S.F.K.$.+.+.+.+.$.r.6.D b eXyXI.k.N.b.a.i.0.,.J = w ~ ~ ~ XX^ N n n B _ 6X7X6X6X6X4X6X6X6X6X",
"yXtXyXyXtXyXqX9Xc . 0 9.8.d.d.l.J.P.D.K.G.O.+.+.@.@.} I.H A j $XT.k.C.V.v.a.i.q.1.%.< 9 W ~ ~ XX^ n n n n _ uXuXuXyXuXuXuXyXuXyX",
"9X6X4X9X4X9X9Xz c . d h.d.g.M.P.L.D.B.c.4...} #.@.*X#X;X@Xk I.,.M.Z.C.b.s.i.i.q.1.%.1 = w ^ ^ ^ ! M M M M ' qXqX9XqXqXqX9XqXqXqX",
"9X4X6X4X9X3X4Xx c . ( b.P.L.P.L.L.S.c.u.>.8  .X.&X,X;X].].].Y.a.Z.Z.r.3.:.q.r.q.0.*.< = : ] N N M R 8.8.8.E.9X6X9X4X9X4X6X3X6X6X",
"9X4X4X9X3X9X9Xx u . I.K.L.L.D.D.F.n.u.e.=.8 8  . .I.I.Y.W.E.C.Z.C.b.r.<.K A A :.,.:.5 0 & + m n V P 5.8.8.E.4X6X3X6X4X6Xc 3X4X3X",
"9X4X9X4X9X3X4Xc t t Q.K.D.D.D.S.N.s.e.2.&.8 6 6 D 8 &.u.c.Z.Z.A.M.f.6.6.*.A A *.;.H > $ o o + C C , I 7.h.E.9X6X9X4X9X4X6X3X6X6X",
"4X9Xc v 4X4X9Xx u t Q.K.D.D.F.C.b.u.2.-.6 6 6 6 6 6 D c.S.F.Z.A.g.t.j.Y + , K ,.L , o % $ o o $ % & 7 c.F.Q.3X6X4X6X3X6X/. .4X4X",
"4X3X3Xv 4X9X3Xz r a 0XB.D.D.C.N.a.e.2.%.7 6 D 6 6 8 G c.S.F.Z.A.H.l.y.,.S S 6.6.H * & $ $ $ S 9.:.&.s.C.S.!.6X4X9X3XwX7X ./.4X4X",
"4X4X9X9XOX4X4Xi t 9 W.J.F.S.N.a.u.0.-.F 7 Z Z Z Z Z %.N.F.F.A.Z.H.m.f.f.t.y.t.1.K ; , o o ; 5.d.g.F.F.F.F.!.9X4X4X6X7X3X9X4X9X4X",
"6X9X3X4X0X$Xc p . . q c.b.n.v.e.<.,.H Z 7 7 Z Z Z F ,.N.F.F.V.b.f.t.6.6.h.g.t.6.;.7 & $ ; 1 e.F.G.O.O.O.O.o.i u u u z z z v 4X3X",
"z i z i z u r . . . q u.s.i.0.>.;.J Z 2 7 7 7 Z Z F <.N.F.V.b.r.r.p.r.6.6.t.h.6.:.F & 1 < 1 2.F.G.{ +.+.+.X.r r y r t r y u u u ",
"u t r . . .         q w.0.2.%.6 Z 7 2 2 3 7 Z Z Z J 0.N.F.F.A.V.m.m.m.m.y.L 6.5.L A $ 1 1 = 2.F.G.+.+.+.+.X.              . . r ",
"              .   t h 4.<.=.G 6 7 2 2 2 2 7 Z Z Z =.w.V.C.F.C.A.h.L h.M.m.6.L S 3 ; & > 9 - [ $.$.,X=X,X=X&X. . . .   .         ",
"r z z z 4X6X4X3X7X7Xg <.>.%.8 4 7 1 , 1 3 7 7 Z Z ,.a.V.N.C.V.V.n.5.C j.f.t.6.6.;., & & - # { @.*X2X2X2X2X%Xt u t u u u u . . . ",
"z 4XqXuXyXuXyXyXtX9X) >.%.F 5 4 1 ; 1 < 7 7 Z 7 F 0.f.f.b.N.N.b.V.m.j.Y j.Y :.L A ; $ % # { @.@.*X;X2X2X;X%XqX4Xi u r r r r r u ",
"z 9XyXtXtXqX9X9X6X9Xd &.G 5 4 4 > ; < 7 7 7 7 2 %.u.a.p.p.b.N.N.n.n.l.9.Y C U : : ; % - #X=X=X=X:X{.{.-X{.%XqXuXuXyXuXuXuX4X. u ",
"z uXqX9X9X3X9X4X0X$XR.U A 4 7 < & 1 4 4 5 4 6 6 J e.i.6.1.1.a.b.f.f.p.p.q.P P P A , & e ;X<X<X<X;X[.[.[.[.).wX9X5X7X9X4X3X3X. u ",
"z yXqX6X3X9X4X9XOX0XR.8 2 4 4 ; * > 2 4 4 5 7 7 F >.<.-.*.K 2.v.a.a.r.0.,.H A 3 , > $ # 1X<X<X<X;X[.[.[.[.OX3X7X9X9X3X9X4Xi . r ",
"z uX9X4X9X4X9X9X_ 9Xz 0 2 2 < : O ; < 4 4 6 5 4 7 J K F H H %.0.v.f.a.<.K A 3 ; = % - - @X-X-X-X{._._._.(.7X9X9X3X4X9X4X9Xi . r ",
"z uX9X9X4X4X6X6X0X$Xi X g , > + O O ; < 4 7 4 4 4 4 < 4 G K F 3 =.0.q.1.-.K 2 > % % & - k }.'.'._.+X+X(.0X6X9X4X9X3X4X9X6Xu . r ",
"z yXqX4X9X9X4X9X$X9Xp   qXeXg s s s a d f f f f q d d g ( ( f a a g ( h U h d d a a d a i (.(.(.(.(.k 8X9X4X9X6X4X9X4XOX9Xu . . ",
"z uXqX9X6X4X9X4X0X4Xt   qXuXv 9X_ 5X4X9Xc u     . t 4XqX9X4Xv z i u r t . . . .   . . b . . . . . y   c t y u u u u u u u u . . ",
"z uX9X4X9X9X3X9Xv 9Xp   6XyX6Xv 9X9X$X4Xx u     . u r 4X4Xz u r .                 . r t r r t u p u u                         . ",
"z yXqX4X3X6X9X4X9X3Xp   v uX9X6X9XOX4X9Xz t       t r .   .         .   .     .   . r u u r r t r r r t y y . . . . . . . . . . ",
"z uXqX9X9X3X6X9X4X9Xu   u pX4X6X4X4X9X3Xz u     . r r r . . . . . r r t . u r r t r r u u v v v v v v v v v v v v v v v v c . t ",
"z uX9X4X4X9X3X9X4Xz u   r pX9X4X$X_ 4X9Xz u       . z v v v v v v v v v v v v v 4X4X4X6X9XqX9XtXqXtXqXtXqXqXtXqXtXqXtXqXtXv . u ",
"z tXqX9X9X4X9X4X9Xu     u pX6X4X0X4X4X3Xz u .     . v tXqXtXqXtXqXtXtXqXtXqXtXqXtXqXyXuXuXpXpXpXpXpXpXpXpXpXpXpXyXuXyXyX4Xz   r ",
"z yXqX4X9X4X9X9X3Xu   . . pX4X9Xv 6X3X9Xz t .       v tXtXpXpXpXpXpXuXuXpXpXuXpXpXpXpXpXuXuXyXyXqXqXqXtXqX9XqXtXqXqXtXqXv u   u ",
"z qXqX9X4X9X3X4X4Xt   . r uX9X9X3X9X4X4Xz u .       v tXtXqXtXqXtXqXtX9XqXtX9XqXtXqXqX9X9X6X6X4X4X9X4X9X3X4X4X9X3X9X4X9Xz u . . ",
"t tX3X4X9X3Xc x x u   . r yX3X4X9X3X9X4Xz u .       z qXuXqX4X4X3X4X4X4X9X3X9X9X4X4X6X9X9X9X4Xv 6X3X9X9X6X3X9X4X9X9X6X4Xx u   . ",
"r qX9X9X6X4Xu u u     r r qX9X3X4X9X4X3Xc u .       r tXuXqX4X4X4X9X4X6X4X6X9X3X4X6X9X9X3X6X4X6X4X4Xv 3X6X6X4X9X3X9X4X9Xx u . . ",
"r v v v u u u u u   . . . 6X6X9X3X4X4Xx z u .         qXuXyX9X9X3X4X4X4Xv 4X3X9X4X6X3X9X6Xv 3X4X9X3X4X9X4Xv c 4Xv 6X4X4Xc u   . ",
"r .       u u u u   . . t /.j i z z b z u u .       . 9XyXyX4X3X9X4X9X3X4X9X4Xv v 6X6X_ 9X4X9X4X4X9X3X4Xv 4X4X3X9X4Xc 3Xz u   . ",
"u u u r .         . . . . . . . . . . . . . .         7XyXqX9X4X4X9X3X9Xv 4X3X6Xv 6X$X6X_ 0X$X4Xv 4X4X4X3X9X4Xv 4X4X3Xv x u   . ",
"r r r r r t r .     . t . .                         . $X6Xz c c x c c x 9X4X9X9X3X4Xv $X5X7Xv 4X4X9X3X9X4X4X9X3X4X4X4X6Xx u   . ",
"r v 9X9X9X9X4X4Xz t t t . .     .     .     .   .   . p r . .   .   .   u c x v 4Xv v v v v v v v v v v v v v v v v v v z u   . ",
"r 9XtXyXuXyXuXuXqX9X9X7Xx i p t . . . . . . . . . . . p y y . . . . . .   t t u u u u u u u u u u u u u u u u u u u u u u   . . ",
"r 9XyX9X9X4XqXyXuXuXuXqX9X9X9X9X9X9X9X6X4X4X$Xv v z z z u u r r r . r . .   .   .   .   .   .   .                           . . ",
"r 9XuX9X9X9XqX9X4X9XqXuXuXuXyXuXyXuXyXuXuXuXuXtXyXtXqX9X9X9X9X9X3Xt u y . . . . . . . . .     .   .   .   .   .   .   . . . r t ",
"r 9XuX9X3X9Xv v 9X6X8X .9X3X9X4X9X5X9X9X_ 0X4X9X0X9XtXyXuXyXyXqX3X. r t t r y . . .   . . . . . . . . . . . . . . . . . . r t u ",
"y 9XtX9X9X9X4X9X4X4X4X6X9X3X4X9Xv c 4X9Xv 4XR.7X9X3X9X4X9X9X9Xv z   . t t 9XyXuX6Xv t r r u u u r r r r r r . y r . r r u u u u ",
"y 9XtX9X$X9Xv v 6X9X3X9X9X6X3Xv 9Xv 4Xv eX/.9X4X9X4X9X3X9X9X6Xz u   . r r uX9X9XuXuXuXyXqXu u t qXuXuXyXuXuXuXyXyXtX9X6Xv r r u ",
"r 9XOXx p z i z i z z i z i z z i z i z j i z i z i z i z i z u u .   . r yXqX9XqX9XqXqXqXi u v uX6X9X9X4X9X3X9X6X9X4X9XyX6X  u ",
"r 4Xz . . . . . . . . . . . . . . . . . . . . . . . . . . . . . . .     r qX9XqXqX6Xi 6X3Xz r qX9X4X9X3X9X9X9X3X9X4X9X3X9Xu   u ",
"r .                                                                     u . r . t z i z z i r uX6X6X6X9X9X4X6X9X6XeX9X4X4Xt   u ",
"u y . . .   .     .     .     .   .     .     .     .     .     .   .   . t u . .           . u u u u u u u u t u u u u t u   u ",
"u u t u r r r t t r t r . . . . . . . . . . . . . . . . . . . . . . . . . t u u u . . . . . . r u                             u ",
". . . . . . . . . . . . . . . . . . . . . . . . . . . . . . . . . . . . . . . . . . . . . . . . . . . . . . . . . . . . . . . . "
};
