/* XPM */
static char *_20b9bff72424f26cde7de7474cec311gBeyvujhzkZlwUAO[] = {
/* columns rows colors chars-per-pixel */
"64 64 239 2 ",
"   c #1A1519",
".  c #130F13",
"X  c #2B191C",
"o  c #2C0C0E",
"O  c #1F1E21",
"+  c #2B272C",
"@  c #70121F",
"#  c #4F3739",
"$  c #045333",
"%  c #0B6C2F",
"&  c #316C32",
"*  c #59441C",
"=  c #6E5616",
"-  c #7F643F",
";  c #5D4A37",
":  c #09285C",
">  c #2F3874",
",  c #443043",
"<  c #4E3462",
"1  c #037C48",
"2  c #086A6F",
"3  c #39636B",
"4  c #18526D",
"5  c #58494D",
"6  c #49464C",
"7  c #624143",
"8  c #7C4268",
"9  c #74576B",
"0  c #576F6B",
"q  c #6F6E70",
"w  c #515568",
"e  c #AA111B",
"r  c #8E1823",
"t  c #AD0A22",
"y  c #B11B39",
"u  c #BC222D",
"i  c #B12339",
"p  c #912129",
"a  c #D31016",
"s  c #EB071C",
"d  c #F20F1B",
"f  c #EE3A1B",
"g  c #CB182E",
"h  c #ED1722",
"j  c #F31120",
"k  c #DE2228",
"l  c #EC272B",
"z  c #EC2B34",
"x  c #F22A33",
"c  c #F33D36",
"v  c #E8343B",
"b  c #A1463C",
"n  c #B17321",
"m  c #AC6D10",
"M  c #C25615",
"N  c #E34112",
"B  c #D4751D",
"V  c #F24B2E",
"C  c #E3642E",
"Z  c #A63B56",
"A  c #8B3D6D",
"S  c #CD3743",
"D  c #F53A46",
"F  c #9F4B48",
"G  c #A54D4F",
"H  c #9C6655",
"J  c #B6717E",
"K  c #A25F6A",
"L  c #DB4849",
"P  c #D05554",
"I  c #E84748",
"U  c #F1474D",
"Y  c #E84C56",
"T  c #E95B59",
"R  c #D75D61",
"E  c #D46D71",
"W  c #E16966",
"Q  c #E26F72",
"!  c #C76E5A",
"~  c #0A9C38",
"^  c #0F8F32",
"/  c #24862A",
"(  c #08A838",
")  c #76A21E",
"_  c #568C1B",
"`  c #33984A",
"'  c #298751",
"]  c #37A45E",
"[  c #2FAE73",
"{  c #73AD43",
"}  c #5D9E6E",
"|  c #42A473",
" . c #79B57E",
".. c #69935C",
"X. c #57C145",
"o. c #819713",
"O. c #A3AB15",
"+. c #AFB12D",
"@. c #8FA937",
"#. c #D9831E",
"$. c #ED9D07",
"%. c #F5B510",
"&. c #F79C3B",
"*. c #F8A628",
"=. c #F3B231",
"-. c #D1B21E",
";. c #96C226",
":. c #DBC516",
">. c #F9CC0E",
",. c #F9D90B",
"<. c #F2CB17",
"1. c #FADB13",
"2. c #EBD014",
"3. c #FAE20C",
"4. c #F3E415",
"5. c #F9D629",
"6. c #EDCF23",
"7. c #FCE32D",
"8. c #ADB240",
"9. c #878372",
"0. c #90B26C",
"q. c #AAA86D",
"w. c #FAB541",
"e. c #F7BD5E",
"r. c #E5877D",
"t. c #E2A866",
"y. c #D2D64F",
"u. c #FDD854",
"i. c #F7CB4A",
"p. c #FAEC5A",
"a. c #FDCC6C",
"s. c #F9D368",
"d. c #FCCF73",
"f. c #FBCE7B",
"g. c #FDD57B",
"h. c #FAE87C",
"j. c #FBE669",
"k. c #D8C774",
"l. c #054482",
"z. c #2A5A8D",
"x. c #0B7697",
"c. c #226B84",
"v. c #0958B3",
"b. c #0C59AF",
"n. c #0369BF",
"m. c #1D69B8",
"M. c #6D5B84",
"N. c #637EB8",
"B. c #516AA2",
"V. c #0769C8",
"C. c #176BCA",
"Z. c #1870C7",
"A. c #0A6BD5",
"S. c #096AD7",
"D. c #0971D7",
"F. c #1D79D3",
"G. c #216CCD",
"H. c #2E7BCA",
"J. c #0C7BE5",
"K. c #837798",
"L. c #BA7D80",
"P. c #C67E87",
"I. c #318F8E",
"U. c #0EA389",
"Y. c #0684A1",
"T. c #548192",
"R. c #5A8FBF",
"E. c #73A1B7",
"W. c #6ECF97",
"Q. c #3987CD",
"!. c #2A83D6",
"~. c #2D80C9",
"^. c #1881E1",
"/. c #5199CE",
"(. c #759FC8",
"). c #76A9DA",
"_. c #6DADC7",
"`. c #5C9AE2",
"'. c #59A1E2",
"]. c #7FB5E7",
"[. c #A3A19D",
"{. c #939FB2",
"}. c #8DA8AB",
"|. c #B9B4A7",
" X c #ADB3AD",
".X c #BB9692",
"XX c #E9898C",
"oX c #EF928F",
"OX c #C3BDB9",
"+X c #D4ADAE",
"@X c #EBA9AD",
"#X c #ECB6B4",
"$X c #F4B8AE",
"%X c #92CDA5",
"&X c #A3E3BE",
"*X c #ACD1A4",
"=X c #D8C394",
"-X c #E6CD93",
";X c #EFC58A",
":X c #FCEB88",
">X c #DCC8B4",
",X c #F7D8A8",
"<X c #EFCFB3",
"1X c #FBE4AD",
"2X c #F9E5BA",
"3X c #FCF5AB",
"4X c #8AB7DE",
"5X c #97B1C3",
"6X c #BFB8CB",
"7X c #98BDE2",
"8X c #E7BDC2",
"9X c #BED1DF",
"0X c #BAD4CB",
"qX c #BAD3E6",
"wX c #AECCE9",
"eX c #B1EBCF",
"rX c #D3D5D5",
"tX c #CFCCC8",
"yX c #EAD8CC",
"uX c #F0D5C6",
"iX c #F4CFCF",
"pX c #EAE2D8",
"aX c #F2E7D8",
"sX c #FDF7DA",
"dX c #FCE9C6",
"fX c #C8DBE9",
"gX c #D7DEE3",
"hX c #C5DFF7",
"jX c #D6E6F4",
"kX c #D5E9E8",
"lX c #EBECE9",
"zX c #F6EBE7",
"xX c #FDF5E3",
"cX c #FBF7E8",
"vX c #EDF5F7",
"bX c #FFFFFF",
"nX c #F9F8F6",
"mX c #E9F1EE",
"MX c #D7E5CF",
/* pixels */
"bXbXbXbXbXbXbXbXbXbXbXbXbXbXbXbXbXbXbXbXbXbXbXbXbXbXbXbXbXbXbXbXbXbXbXbXbXbXbXbXbXbXbXbXbXbXbXbXbXbXbXbXbXbXbXbXbXbXbXbXbXbXbXbX",
"bXbXbXbXbXbXbXbXbXbXbXbXbXbXbXbXbXbXbXbXbXbXbXbXbXbXbXbXbXbXbXbXbXbXbXbXbXbXbXbXbXbXbXbXbXbXbXbXbXbXbXbXbXbXbXbXbXbXbXbXbXbXbXbX",
"bXbXbXbXbXbXbXbXbXbXbXbXbXbXbXbXbXbXbXbXbXbXbXbXbXbXbXbXbXbXbXbXbXbXbXbXbXbXbXbXbXbXbXbXbXbXbXbXbXbXbXbXbXbXbXbXbXbXbXbXbXbXbXbX",
"bXbXbXbXbXbXbXbXbXbXbXbXbXbXbXbXbXbXbXbXbXbXbXbXbXbXbXbXbXbXbXbXbXbXbXbXbXbXbXbXbXbXbXbXbXbXbXbXbXbXbXbXbXbXbXbXbXbXbXbXbXbXbXbX",
"bXbXbXbXbXbXbXbXbXbXbXbXbXbXbXbXbXbXbXbXbXbXbXbXbXbXbXbXbXbXbXbXbXbXbXbXbXbXbXbXbXbXbXbXbXbXbXbXbXbXbXbXbXbXbXbXbXbXbXbXbXbXbXbX",
"bXbXbXbXbXbXbXbXbXbXbXbXbXbXbXbXbXbXbXbXbXbXbXbXbXbXbXbXbXbXbXbXbXbXbXbXbXbXbXbXbXbXbXbXbXbXbXbXbXbXbXbXbXbXbXbXbXbXbXbXbXbXbXbX",
"bXbXbXbXbXbXbXbXbXbXbXbXbXbXbXbXbXbXbXbXbXbXbXbXbXbXbXbXbXbXbXbXbXbXbXbXbXbXbXbXbXbXbXbXbXbXbXbXbXbXbXbXbXbXbXbXbXbXbXbXbXbXbXbX",
"bXbXbXbXbXbXbXbXbXbXbXbXbXbXbXbXbXbXbXbXbXbXbXbXbXbXbXbXbXbXbXbXbXbXbXbXbXbXbXbXbXbXbXbXbXbXbXbXbXbXbXbXbXbXbXbXbXbXbXbXbXbXbXbX",
"bXbXbXbXbXbXbXbXbXbXbXbXbXbXbXbXbXbXbXbXbXbXbXbXbXbXbXbXbXbXbXbXbXbXbXbXbXbXbXbXbXbXbXbXbXbXbXbXbXbXbXbXbXbXbXbXbXbXbXbXbXbXbXbX",
"bXbXbXbXbXbXbXbXbXbXbXbXbXbXbXbXbXbXbXbXbXbXbXbXbXbXbXbXbXbXbXbXbXbXbXbXbXbXbXbXbXbXbXbXbXbXbXbXbXbXbXbXbXbXbXbXbXbXbXbXbXbXbXbX",
"bXbXbXbXbXbXbXbXbXbXbXbXbXbXbXbXbXbXbXbXbXbXbXbXbXbXbXbXbXbXbXbXbXbXbXbXbXbXbXbXbXbXbXbXbXbXbXbXbXbXbXbXbXbXbXbXbXbXbXbXbXbXbXbX",
"bXbXbXbXbXbXbXbXbXbXbXbXbXbXbXbXbXbXbXbXbXbXbXbXbXbXbXbXbXbXbXbXbXbXbXbXbXbXbXbXbXbXbXbXbXbXbXbXbXbXbXbXbXbXbXbXbXbXbXbXbXbXbXbX",
"bXbXbXbXbXbXbXbXbXbXbXbXbXbXbXbXbXbXbXbXbXbXbXbXbXbXbXbXbXbXbXbXbXbXbXbXbXbXbXbXbXbXbXbXbXbXbXbXbXbXbXbXbXbXbXbXbXbXbXbXbXbXbXbX",
"bXbXbXbXbXbXbXbXbXbXbXbXbXbXbXbXbXbXbXbXbXbXbXbXbXbXbXbXbXbXbXbXbXbXbXbXbXbXbXbXbXbXbXbXbXbXbXbXbXbXbXbXbXbXbXbXbXbXbXbXbXbXbXbX",
"bXbXbXbXbXbXbXbXbXbXbXbXbXbXbXbXbXbXbXbXbXbXbXbXbXbXbXbXbXbXbXbXbXbXbXbXbXbXbXbXbXbXbXbXbXbXbXbXbXbXbXbXbXbXbXbXbXbXbXbXbXbXbXbX",
"bXbXbXbXbXbXbXbXbXbXbXbXbXbXbXbXbXbXbXbXbXbXbXbXbXbXbXbXbXbXbXbXbXbXbXbXbXbXbXbXbXbXbXbXbXbXbXbXbXbXbXbXbXbXbXbXbXbXbXbXbXbXbXbX",
"bXbXbXbXbXbXbXbXbXbXbXbXbXbXbXbXbXbXbXbXbXbXbXbXbXbXbXbXbXbXbXbXbXbXbXbXbXbXbXbXbXbXbXbXbXbXbXbXbXbXbXbXbXbXbXbXbXbXbXbXbXbXbXbX",
"bXbXbXbXbXbXbXbXbXbXbXbXbXbXbXbXbXbXbXbXbXbXbXbXbXbXbXbXbXbXbXbXbXbXbXbXbXbXbXbXbXbXbXbXbXbXbXbXbXbXbXbXbXbXbXbXbXbXbXbXbXbXbXbX",
"bXbXbXbXbXbXbXbXbXbXbXbXbXbXbXbXbXbXbXbXbXbXbXbXbXbXbXbXbXbXbXbXbXbXbXbXbXbXbXbXbXbXbXbXbXbXbXbXbXbXbXbXbXbXbXbXbXbXbXbXbXbXbXbX",
"bXbXbXbXbXbXbXbXbXbXbXbXbXbXbXbXbXbXbXbXbXbXbXbXbXbXbXbXbXbXbXbXbXbXbXbXbXbXbXbXbXbXbXbXbXbXbXbXbXbXbXbXbXbXbXbXbXbXbXbXbXbXbXbX",
"bXbXbXbXbXbXbXbXbXbXbXbXbXbXbXbXbXbXbXbXbXbXbXbXbXbXbXbXbXbXbXbXbXbXbXbXbXbXbXbXbXbXbXbXbXbXbXbXbXbXbXbXbXbXbXbXbXbXbXbXbXbXbXbX",
"bXbXbXbXbXbXbXbXbXbXbXbXbXbXbXbXbXbXbXbXbXbXbXbXbXbXbXbXbXbXbXbXbXbXbXbXbXbXbXbXbXbXbXbXbXbXbXbXbXbXbXbXbXbXbXbXbXbXbXbXbXbXbXbX",
"bXbXbXbXbXbXbXbXbXbXbXbXbXbXbXbXbXbXbXbXbXbXbXbXbXbXbXbXbXbXbXbXbXbXbXbXbXbXbXbXbXbXbXbXbXbXbXbXbXbXbXbXbXbXbXbXbXbXbXbXbXbXbXbX",
"bXbXbXbXbXbXbXbXbXbXbXbXbXbXbXbXbXbXbXbXbXbXbXbXbXbXbXbXbXbXbXbXbXbXbXbXbXbXbXbXbXbXbXbXbXbXbXbXbXbXbXbXbXbXbXbXbXbXbXbXbXbXbXbX",
"bXbXbXbXbXbXbXbXbXbXbXbXbXbXbXbXbXbXbXbXbXbXbXbXbXbXbXbXbXbXbXbXbXbXbXbXbXbXbXbXbXbXbXbXbXbXbXbXbXbXbXbXbXbXbXbXbXbXbXbXbXbXbXbX",
"bXbXbXbXbXbXbXbXbXbXbXbXbXbXbXbXbXbXbXbXbXbXbXbXbXbXbXbXbXbXbXbXbXbXbXbXbXbXbXbXbXbXbXbXbXbXbXbXbXbXbXbXbXbXbXbXbXbXbXbXbXbXbXbX",
"bXbXbXbXbXbXbXbXbXbXbXbXbXbXbXbXbXbXbXbXbXbXbXbXbXbXbXbXbXbXbXbXbXbXbXbXbXbXbXbXbXbXbXbXbXbXbXbXbXbXbXbXbXbXbXbXbXbXbXbXbXbXbXbX",
"bXbXbXbXbXbXbXbXbXbXbXbXbXbXbXbXbXbXbXbXbXbXbXbXbXbXbXbXbXbXbXbXbXbXbXbXbXbXbXbXbXbXbXbXbXbXbXbXbXbXbXbXbXbXbXbXbXbXbXbXbXbXbXbX",
"bXbXbXbXbXbXbXbXbXbXbXbXbXbXbXbXbXbXbXbXbXbXbXbXbXbXbXbXbXbXbXbXbXbXbXbXbXbXbXbXbXbXbXbXbXbXbXbXbXbXbXbXbXbXbXbXbXbXbXbXbXbXbXbX",
"bXbXbXbXbXbXbXbXbXbXbXbXbXbXbXbXbXbXbXbXbXbXbXbXbXbXbXbXbXbXbXbXbXbXbXbXbXbXbXbXbXbXbXbXbXbXbXbXbXbXbXbXbXbXbXbXbXbXbXbXbXbXbXbX",
"bXbXbXbXbXbXbXbXbXbXbXbXbXbXbXbXbXbXbXbXbXbXbXbXbXbXbXbXbXbXbXbXbXbXbXbXbXbXbXbXbXbXbXbXbXbXbXbXbXbXbXbXbXbXbXbXbXbXbXbXbXbXbXbX",
"bXbXbXbXbXbXbXbXbXbXbXbXbXbXbXbXbXbXbXbXbXbXbXbXbXbXbXbXbXbXbXbXbXbXbXbXbXbXbXbXbXbXbXbXbXbXbXbXbXbXbXbXbXbXbXbXbXbXbXbXbXbXbXbX",
"bXbXbXbXbXbXbXbXbXbXbXbXbXbXbXbXbXbXbXbXbXbXbXbXbXbXbXbXbXbXbXbXbXbXbXbXbXbXbXbXbXbXbXbXbXbXbXbXbXbXbXbXbXbXbXbXbXbXbXbXbXbXbXbX",
"bXbXbXbXbXbXbXbXbXbXbXbXbXbXbXbXbXbXbXbXbXbXbXbXbXbXbXbXbXbXbXbXbXbXbXbXbXbXbXbXbXbXbXbXbXbXbXbXbXbXbXbXbXbXbXbXbXbXbXbXbXbXbXbX",
"bXbXbXbXbXbXbXbXbXbXbXbXbXbXbXbXbXbXbXbXbXbXbXbXbXbXbXbXbXbXbXbXbXbXbXbXbXbXbXbXbXbXbXbXbXbXbXbXbXbXbXbXbXbXbXbXbXbXbXbXbXbXbXbX",
"bXbXbXbXbXbXbXbXbXbXbXbXbXbXbXbXbXbXbXbXbXbXbXbXbXbXbXbXbXbXbXbXbXbXbXbXbXbXbXbXbXbXbXbXbXbXbXbXbXbXbXbXbXbXbXbXbXbXbXbXbXbXbXbX",
"bXbXbXbXbXbXbXbXbXbXbXbXbXbXbXbXbXbXbXbXbXbXbXbXbXbXbXbXbXbXbXbXbXbXbXbXbXbXbXbXbXbXbXbXbXbXbXbXbXbXbXbXbXbXbXbXbXbXbXbXbXbXbXbX",
"bXbXbXbXbXbXbXbXbXbXbXbXbXbXbXbXbXbXbXbXbXbXbXbXbXbXbXbXbXbXbXbXbXbXbXbXbXbXbXbXbXbXbXbXbXbXbXbXbXbXbXbXbXbXbXbXbXbXbXbXbXbXbXbX",
"bXbXbXbXbXbXbXbXbXbXbXbXbXbXbXbXbXbXbXbXbXbXbXbXbXbXbXbXbXbXbXbXbXbXbXbXbXbXbXbXbXbXbXbXbXbXbXbXbXbXbXbXbXbXbXbXbXbXbXbXbXbXbXbX",
"bXbXbXbXbXbXbXbXbXbXbXbXbXbXbXbXbXbXbXbXbXbXbXbXbXbXbXbXbXbXbXbXbXbXbXbXbXbXbXbXbXbXbXbXbXbXbXbXbXbXbXbXbXbXbXbXbXbXbXbXbXbXbXbX",
"bXbXbXbXbXbXbXbXbXbXbXbXbXbXbXbXbXbXbXbXbXbXbXbXbXbXbXbXbXbXbXbXbXbXbXbXbXbXbXbXbXbXbXbXbXbXbXbXbXbXbXbXbXbXbXbXbXbXbXbXbXbXbXbX",
"bXbXbXbXbXbXbXbXbXbXbXbXbXbXbXbXbXbXbXbXbXbXbXbXbXbXbXbXbXbXbXbXbXbXbXbXbXbXbXbXbXbXbXbXbXbXbXbXbXbXbXbXbXbXbXbXbXbXbXbXbXbXbXbX",
"bXbXbXbXbXbXbXbXbXbXbXbXbXbXbXbXbXbXbXbXbXbXbXbXbXbXbXbXbXbXbXbXbXbXbXbXbXbXbXbXbXbXbXbXbXbXbXbXbXbXbXbXbXbXbXbXbXbXbXbXbXbXbXbX",
"bXbXbXbXbXbXbXbXbXbXbXbXbXbXbXbXbXbXbXbXbXbXbXbXbXbXbXbXbXbXbXbXbXbXbXbXbXbXbXbXbXbXbXbXbXbXbXbXbXbXbXbXbXbXbXbXbXbXbXbXbXbXbXbX",
"bXbXbXbXbXbXbXbXbXbXbXbXbXbXbXbXbXbXbXbXbXbXbXnXuX<XnXbXbXbXbXbXbXbXvXiXiXcX:Xj.xXbXbXbXbXbXbXbXbXbXbXbXbXbXbXbXbXbXbXbXbXbXbXbX",
"bXbXbXbXbXbXbXbXbXbXbXbXbXbXbXbXbXbXbXbXkXeXvXzXU l $XbXbXbXbXnXrXmXoXl D oX&.%.1XbXbXbXbXbXbXbXbXbXbXbXbXbXbXbXbXbXbXbXbXbXbXbX",
"bXbXbXbXbXbXbXbXbXbXbXbXbXbXbXbXbXbXbXkX| ^ %XzXW a z D P.tX5 +   # E #XoXh a &.E.'.hXbXsXh.3XcXbXbXbXbXbXbXbXbXbXbXbXbXbXbXbXbX",
"bXbXbXbXbXbXbXbXbXbXbXbXbXbXbXbXbXbXbXcX} ) y.p.5.=.V x Q 7 . . e k Y #XiXS t -XR.b.7XbXi.:.3.7.:XbXbXbXbXbXbXbXbXbXbXbXbXbXbXbX",
"bXbXbXbXbXbXbXbXbXbXbXbXbXbXbXbXbXbXbXrX0 O.2.h.p.-.! g J w X = B f j z W ! oXzXaXz.5XW.{ @.;.:.i.sXbXbXbXbXbXbXbXbXbXbXbXbXbXbX",
"bXbXbXbXbXbXbXbXbXbXbXbXbXbXbXbXsX3XbXq   * t.aXmXQ.F.G.G.C.; :.<.B y A 8 K q .XT S H % ~ ~ ^ { 1XbXbXbXbXbXbXbXbXbXbXbXbXbXbXbX",
"bXbXbXbXbXbXbXbXbXbXbXbXbXbXbXxX7.>.:X|...K >XMX>X0.0.}.qXwX@XV f M B.v.v.. O ; u a t 4 2 $ 2 /.qXbXbXbXbXbXbXbXbXbXbXbXbXbXbXbX",
"bXbXbXbXbXbXbXbXbXbXbXbXbXbXvXmXs.%.e.iXiXjXfXfX,X4.1.k.qXwXP s j Y K.> < X X X p @ , v.S.V.S.V.Q.jXbXbXbXbXbXbXbXbXbXbXbXbXbXbX",
"bXbXbXbXbXbXbXbXbXbXbXbXbXjX'.`.-X*.V T r.(.H.~.y.2.3.9.F.F.8 g j h Z i k e o   ,     : v.V.V.m.I.W.&XvXbXbXbXbXbXbXbXbXbXbXbXbX",
"bXbXbXbXbXbXbXbXbXbXbXbXbXqXS.J.kXP a a ; U.U.U.X.O.+.!.J.V.9 E G i G u a M =     + + 0 {.N.l.z.I.^ ] mXbXbXbXbXbXbXbXbXbXbXbXbX",
"bXbXbXbXbXbXbXbXbXbXbXbXbXjXS.S.hXP.e r & ~ ( ( ~ _ 0 V.C.N.6X|.` ` ..- m >.2.= # [.6XlXlXtXc.B.0./ [ lXbXbXbXbXbXbXbXbXbXbXbXbX",
"bXbXbXbXbXbXbXbXbXbXbXbXbXvXD.V.wX8XK M.3 $ 1 1 % ) +.3 {.xXzX%X^ ~ ( ~ ^ -.$.M H uXyXaX1X;Xq.4.,.2.W.zXbXbXbXbXbXbXbXbXbXbXbXbX",
"bXbXbXbXbXbXbXbXbXbXbXbXbXnXZ.V.4XbX).S.D.2 ^ ' ;.4.3.6.=XyXcXzX X% 2 Y.x.m N d j oXuX<X,Xu.>.3.5.u.MXnXbXbXbXbXbXbXbXbXbXbXbXbX",
"bXbXbXbXbXbXbXbXbXbXbXbXbXbX4X7XfXbXqX!.V._.*X4.3.3.5.*.t.$X<XtXOX3 x.A.A.q.P s s x XXsXdXi.1.u.d.d.bXbXbXbXbXbXbXbXbXbXbXbXbXbX",
"bXbXbXbXbXbXbXbXbXbXbXbXbXbXnXbXbXbXfX~.n.7XsXu.1.%.=.C c c XXOX X0X_.^.^.qX.Xu s j z bXsXa.i.d.f.dXbXbXbXbXbXbXbXbXbXbXbXbXbXbX",
"bXbXbXbXbXbXbXbXbXbXbXbXbXbXbXbXbXbXvX).).jXcXd.i.=.a.I l z L., O 0 jX!.D.].zXE P D I bXnX2Xg.,XcXbXbXbXbXbXbXbXbXbXbXbXbXbXbXbX",
"bXbXbXbXbXbXbXbXbXbXbXbXbXbXbXbXbXbXbXvXnXbXbX1X;X1XsXW L R L.X + + gXQ.V.).bXuXQ L R bXbXbXxXnXbXbXbXbXbXbXbXbXbXbXbXbXbXbXbXbX",
"bXbXbXbXbXbXbXbXbXbXbXbXbXbXbXbXbXbXbXbXbXbXbXbXcXbXbXXXL R OX7 6 6 gXQ.n.).bXnX#X@XiXbXbXbXbXbXbXbXbXbXbXbXbXbXbXbXbXbXbXbXbXbX",
"bXbXbXbXbXbXbXbXbXbXbXbXbXbXbXbXbXbXbXbXbXbXbXbXbXbXbXbXzXzXbX[.6 q lXjXjXvXbXbXbXbXbXbXbXbXbXbXbXbXbXbXbXbXbXbXbXbXbXbXbXbXbXbX",
"bXbXbXbXbXbXbXbXbXbXbXbXbXbXbXbXbXbXbXbXbXbXbXbXbXbXbXbXbXbXbXvXrXvXbXbXbXbXbXbXbXbXbXbXbXbXbXbXbXbXbXbXbXbXbXbXbXbXbXbXbXbXbXbX"
};
