/* XPM */
static char *f09d44ee253d4548b6bf6f3ab3f7893aTudnfwaw83Yd3qGY[] = {
/* columns rows colors chars-per-pixel */
"64 64 249 2 ",
"   c #0D0D0C",
".  c #13110F",
"X  c #1B140E",
"o  c #151312",
"O  c #1B1613",
"+  c #1E1914",
"@  c #1C1A19",
"#  c #110F0D",
"$  c #271E0E",
"%  c #231715",
"&  c #231B14",
"*  c #241B19",
"=  c #291D1A",
"-  c #281D14",
";  c #321B18",
":  c #2B200F",
">  c #27210F",
",  c #2A2112",
"<  c #25221D",
"1  c #292618",
"2  c #312513",
"3  c #372A18",
"4  c #393919",
"5  c #2E2B11",
"6  c #2A2621",
"7  c #2A2925",
"8  c #342C24",
"9  c #382D26",
"0  c #34322D",
"q  c #3B322C",
"w  c #3B3427",
"e  c #3A3533",
"r  c #3A3B34",
"t  c #2F3431",
"y  c #472E14",
"u  c #4C3413",
"i  c #48361A",
"p  c #553B14",
"a  c #552F15",
"s  c #663819",
"d  c #433A2C",
"f  c #443829",
"g  c #553C2C",
"h  c #433B34",
"j  c #463D37",
"k  c #402E27",
"l  c #6C3835",
"z  c #3C4316",
"x  c #3E402C",
"c  c #464C19",
"v  c #4C521B",
"b  c #475019",
"n  c #53551B",
"m  c #53591D",
"M  c #5B5A1D",
"N  c #5C551D",
"B  c #534E1C",
"V  c #6A441A",
"C  c #625D1E",
"Z  c #7D4316",
"A  c #6E651E",
"S  c #464627",
"D  c #594A28",
"F  c #5B5E21",
"G  c #585926",
"H  c #4C433B",
"J  c #474338",
"K  c #5C4C3D",
"L  c #574738",
"P  c #585335",
"I  c #4F5023",
"U  c #694D27",
"Y  c #695725",
"T  c #624D3B",
"R  c #67533A",
"E  c #734A2A",
"W  c #596023",
"Q  c #656422",
"!  c #6D6B24",
"~  c #776C23",
"^  c #797325",
"/  c #75613C",
"(  c #706E34",
")  c #454A44",
"_  c #4A4D45",
"`  c #474D48",
"'  c #594E43",
"]  c #4C524C",
"[  c #4C5046",
"{  c #51544C",
"}  c #5B5A4C",
"|  c #58554A",
" . c #4E5551",
".. c #555B54",
"X. c #595E54",
"o. c #555C57",
"O. c #6A5543",
"+. c #6C5C4D",
"@. c #655849",
"#. c #745C48",
"$. c #675D53",
"%. c #6D5649",
"&. c #5E6156",
"*. c #5B625A",
"=. c #6A634C",
"-. c #7B624B",
";. c #6A6354",
":. c #62655C",
">. c #696959",
",. c #766957",
"<. c #78755D",
"1. c #757248",
"2. c #5E5F61",
"3. c #5F6760",
"4. c #656A61",
"5. c #6B6C62",
"6. c #686663",
"7. c #756B61",
"8. c #6E7265",
"9. c #7D7662",
"0. c #777568",
"q. c #797A74",
"w. c #8F4D1B",
"e. c #A15E1F",
"r. c #8D5324",
"t. c #847B28",
"y. c #937032",
"u. c #B36E2A",
"i. c #AE5C28",
"p. c #C7742E",
"a. c #8A6C4F",
"s. c #876C56",
"d. c #89745A",
"f. c #967857",
"g. c #956E57",
"h. c #A4734C",
"j. c #847E6A",
"k. c #8B7C6B",
"l. c #867664",
"z. c #977D66",
"x. c #867E76",
"c. c #996656",
"v. c #7E837A",
"b. c #8A832B",
"n. c #998D2C",
"m. c #988532",
"M. c #968E35",
"N. c #A4932C",
"B. c #A8992B",
"V. c #A69A32",
"C. c #B38C2E",
"Z. c #B6A52E",
"A. c #B9A633",
"S. c #B2A731",
"D. c #D08733",
"F. c #C8B638",
"G. c #D6BC35",
"H. c #C3AD2E",
"J. c #F4A43E",
"K. c #ED9E3C",
"L. c #DAC533",
"P. c #E7D03B",
"I. c #F7E63A",
"U. c #998744",
"Y. c #988B52",
"T. c #A69946",
"R. c #AE9250",
"E. c #B3A556",
"W. c #8D836B",
"Q. c #868367",
"!. c #9C846B",
"~. c #968A6C",
"^. c #9F916F",
"/. c #8C8477",
"(. c #968B75",
"). c #9C9477",
"_. c #A2846C",
"`. c #A78768",
"'. c #A78B73",
"]. c #A98971",
"[. c #A29474",
"{. c #A99A78",
"}. c #BA9473",
"|. c #B69778",
" X c #B0906A",
".X c #ADA27B",
"XX c #B3A27D",
"oX c #BBA67F",
"OX c #B6AB70",
"+X c #D6954E",
"@X c #D0B355",
"#X c #EAA753",
"$X c #C39C7C",
"%X c #CA967E",
"&X c #C1896F",
"*X c #CDA574",
"=X c #F2B46E",
"-X c #DBC842",
";X c #D4C959",
":X c #E7D44B",
">X c #EADB52",
",X c #F6F071",
"<X c #E1D35E",
"1X c #827F80",
"2X c #898985",
"3X c #959389",
"4X c #94968E",
"5X c #A59888",
"6X c #BA9D86",
"7X c #A49D95",
"8X c #BAA984",
"9X c #ACA299",
"0X c #B8A798",
"qX c #ACA583",
"wX c #ABAAA6",
"eX c #B9B8B7",
"rX c #B8B0AA",
"tX c #D79F81",
"yX c #C8A887",
"uX c #D4A989",
"iX c #C8B58A",
"pX c #D6B88A",
"aX c #D6AC92",
"sX c #D4BC92",
"dX c #D8B495",
"fX c #CEA790",
"gX c #E2B995",
"hX c #C3B5A9",
"jX c #DFBFA3",
"kX c #DCC596",
"lX c #DCC698",
"zX c #CFC299",
"xX c #E3CE9E",
"cX c #EAC69D",
"vX c #E8D59C",
"bX c #EFD08A",
"nX c #D5C9B8",
"mX c #D0C8B7",
"MX c #E9C6A5",
"NX c #EAD5A4",
"BX c #EDD8A6",
"VX c #EAD7A9",
"CX c #F3DBAA",
"ZX c #F2D8B0",
"AX c #F9EAB9",
"SX c #F5E2AE",
"DX c #D7D0C9",
"FX c #FCEEC7",
"GX c #FFFFFF",
/* pixels */
"GXGXGXGXGXGXGXGXGXGXGXGXGXGXGXGXGXGXGXGXGXGXGXGXGXGXGXGXGXGXGXGXGXGX5XGXGXGXGXGXGXGXGXGXGXGXGXGXGXGXGXGXGXGXGXGXGXGXGXGXGXGXGXGX",
"GXGXGXGXGXGXGXGXGXGXGXGXGXGXGXGXGXGXGXGXGXGXGXGXGXGXGXGXGXGXGXGXGX6XGXGXGXGXGXGXGXGXGXbX=XGXGXGXGXGXGXGXGXGXGXGXGXGXGXGXGXGXGXGX",
"GXGXGXGXGXGXGXGXGXGXGXGXGXGXGXGXGXGXGXGXGXGXGXGXGXGXGXGXGXGXGXGXmXhXGXGXGXGXGXGXGXGXvXiX^ m.GXGXGXGXGXGXGXGXGXGXGXGXGXGXGXGXGXGX",
"GXGXGXGXGXGXGXGXGXGXGXGXGXGXGXGXGXGXGXGXGXGXGXGXGXGXGXGXGXGXGXGXqXGXGXGXGXGXGXGXGXeXGXGXOXy.GXGXGXGXGXGXGXGXGXGXGXGXGXGXGXGXGXGX",
"GXGXGXGXGXGXGXGXGXGXGXGXGXGXGXGXGXGXGXGXGXGXGXGXGXGXGXGXGXGXGXGX-XOXGXGXGXGXeX2X6.+ 2.GXGXGXGXGXVXcXGXGXGXGXGXGXGXGXGXGXGXGXGXGX",
"GXGXGXGXGXGXGXGXGXGXGXGXGXGXGXGXGXGXGXGXGXGXGXGXGXGXGXGXGX@X@X;XS.U.GXGXGX7Xp.D.e.a o 2X0Xr.p.+X=XZXGXGXGXnXGXGXGXGXGXGXGXGXGXGX",
"GXGXGXGXGXGXGXGXGXGXGXGXGXGXGXGXGXGXGXGXGXGXGXGXGXGXGXGXGXZ.V.L.V.b.GXGXGXaX+X@Xi.w.: 3 s $XGXGXGXx.s.#.#.hXGXGXGXGXGXGXGXGXGXGX",
"GXGXGXGXGXGXGXGXGXGXGXGXGXGXGXGXGXGXGXGXGXGXGXGXGXGXGXGXGX:XL.L.S.1.).GXGXGX`.h.p.s u y O.GXGX9Xg mXGXGXGXGXGXGXGXGXGXGXGXGXGXGX",
"GXGXGXGXGXGXGXGXGXGXGXGXGXGXGXGXGXGXGXGXGXGXGXGXGXGXGXGXGX:X:XF.! v v i w.i.u.p.u.u.u.e.w.w.s w.r.s 8 wXGXGXGXGXGXGXGXGXGXGXGXGX",
"GXGXGXGXGXGXGXGXGXGXGXGXGXGXGXGXGXGXGXGXGXGXGXGXGXGXGXGXGXP.H.n.W W Q.GXGXGXGXGX=XJ.K.K.D.u.E r.w.Z 3 eXGXGXGXGXGXGXGXGXGXGXGXGX",
"GXGXGXGXGXGXGXGXGXGXGXGXGXGXGXGXGXGXGXGXGXGXGXGXGXGXGXzX@X@Xm.D c 1.GXGXGXGXGXGXGXGXJ.K.+XU | P U y 6.GXGXGXGXGXGXGXGXGXGXGXGXGX",
"GXGXGXGXGXGXGXGXGXGXGXGXGXGXGXGX| GXGXGXGXGXGXGXGXGXnXiXOX^.U.P <.GXGXGXGXGXGXGXGXGXGXbX#Xf.0XO.U O eXq.GXGXGXGXGXGXGXGXGXGXGXGX",
"GXGXGXGXGXGXGXGXGXGXGXGXGXGXGXf.g     6 GXGXGX9X/.x.W.~..X.Xf.} 3XGXGXGXGXGXGXGXGXGXGXGXGXcX+Xy.e eXGXGXGXGXGXGXGXGXGXGXGXGXGXGX",
"GXGXGXGXGXGXGXGXGXGXGXGXGXGXa.g.c.9     $.l.,.x.GXGX4X).8X.Xa.>.8.GXGXGXGXGXGXGXGXGXGXGXGXGXGXGXGXGXGXGXGXGXGXGXGXGXGXGXGXGXGXGX",
"GXGXGXGXGXGXGXGXGXGXGXGXGXGX&X Xz.a.0 < 6 e h T R +.=.W.{.!.<.>.4XGXGXGXGXGXGXGXGXGXGXGXGXGXGXGXGXGXGXGXGXGXGXGXGXGXGXGXGXGXGXGX",
"GXGXGXGXGXGXGXGXGXGXGXGXGXGX}.a.].a.j q GXGXGXGXGX5XT J =.a.<.8.wXGXGXGXGXGXGXGXGXGXGXGXGXGXGXGXGXGXGXGXGXGXGXGXGXGXGXGXGXGXGXGX",
"GXGXGXGXGXGXGXGXGXFXaXfXz.%XtXgX%Xa.%.H GXGXGXGXGXGX;.^.^.,.5.*.GXGXGXGXGXGXGXGXGXGXGXGXGXGXGXGXGXGXGXGXGXGXGXGXGXGXGXGXGXGXGXGX",
"GXGXGXGXGXGXGXGXMXtXc.fXz.}.uXuX$Xz.$.' GXGXGXGXGXGX<.|.f.<.8.3.GXGXGXGXGXGXGXGXGXGXGXGXGXGXGXGXGXGXGXGXGXGXGXGXGXGXGXGXGXGXGXGX",
"GXGXGXGXGXGXGXGXtXtXaXaXyX&XyX|. Xs.| 6.GXGXGXGXGXcXyX`.`.l.:.8.GXGXGXGXGXGXGXGXGXGXGXGXGXGXGXGXGXGXGXGXGXGXGXGXGXGXGXGXGXGXGXGX",
"GXGXGXGXGXGXGXGX&Xc.#.O.z.fX}.].z.-._ 4XGXGXGXaXaXaX$XyXdXR K v.GXGXGXGXGXGXGXGXGXGXGXGXGXGXGXGXGXGXGXGXGXGXGXGXGXGXGXGXGXGXGXGX",
"GXGXGXGXGXGXGXGXGXz.#.k k %X!.d.s.K | GXGXGXGX8X].=.,.f.g.T ..4XGXGXGXGXGXGXGXGXGXGXGXGXGXGXGXGXGXGXGXGXGXGXGXGXGXGXGXGXGXGXGXGX",
"GXGXGXGXGXGXGXGXGX`.L 9 g z.+.H h 8 4.GXaXfX6X!.+.| d.=.$.....GXGXGXGXGXGXGXGXGXGXGXGXGXGXGXGXGXGXGXGXGXGXGXGXGXGXGXGXGXGXGXGXGX",
"GXGXGXGXGXGXGXGXGX Xz.].z.@.d d Y I J !.aXfXyX|.k.%.a.<.&.*.2.GXGXGXGXGXGXGXGXGXGXGXGXGXGXGXGXGXGXGXGXGXGXGXGXGXGXGXGXGXGXGXGXGX",
"GXGXGXGXGXGXGXGXGX*XT.y.( h ].pX^ t.a.`.yXdXaX6Xs.#.' } >.&.GXGXGXGXGXGXGXGXGXGXGXGXGXGXGXGXGXGXGXGXGXGXGXGXGXGXGXGXGXGXGXGXGXGX",
"GXGXGXGXGXGXGXGX>XN.A C m b / OXU.pXZXdXl.dXcXuX}.g.,.@.$.$.3XGXGXGXGXGXGXGXGXGXGXGXGXGXGXrXGXGXGXGXGXGXGXGXGXGXGXGXGXGXGXGXGXGX",
"GXGXGXGXGXGXGX>XL.b.B.b.Q v v Q !.FXZX!.uXCXcXuX}.-._.d.]._.z.l.GXGXGXGXGXGXGXGXGXGXGXrX' g GXGXGXGXGXGXGXGXGXGXGXGXGXGXGXGXGXGX",
"GXGXGXGXGXGX;X:XG.t.~ t.! ! Q v P !.|.xXSXCXpX%Xf.#.,.d.6X6X6Xz.l.GXGXGXGXGXGXGXGXwX' L %.7.GXGXGXGXGXGXGXGXGXGXGXGXGXGXGXGXGXGX",
"GXGXGXGXGXOXN.S.A.N E U.B.S.^ W b f H |.cXgX&X`.#.,.+.l.z.].].z.l.q.GXGXGXGXGXGX/.j x.GXGXGXGXGXGXGXGXGXGXGXGXGXGXGXGXGXGXGXGXGX",
"GXGXGXT.zX;XM.m.L.B.B.H.Z.t.! Q n z r f.kXgX$Xa.O.s.#.-.z.z.l.k.l.| h e e j L L L GXGXGXGXGXGXGXGXGXGXGXGXGXGXGXGXGXGXGXGXGXGXGX",
"GXGXGXR.{.E.y.-XP.t.C M ! F M W F b 3 r -.|. X#.K %.' q j ' $.l.,.| H e q q q d f GXGXGXGXGXGXGXGXGXGXGXGXGXGXGXGXGXGXGXGXGXGXGX",
"GXGXGXGXGXGXP.L.N.C y A t.I m ! ! v z < < L h.K 8 e j j ' g %.s.$.%.L h GXGXGXGXGXGXGXGXGXGXGXGXGXGXGXGXGXGXGXGXGXGXGXGXGXGXGXGX",
"GXGXGXGXGX,XL.n.N.N.Z.~ i 3 n ! b.m b z @ k R 8 # 6 H ) k g @.+.+.%.H h GXGXGXGXGXGXGXGX,.GXGXGXGXGXGXGXGXGXGXGXGXGXGXGXGXGXGXGX",
"GXGXGXGXGX,XB.I.-Xm.E ' S i A W ! m b b w R w . . o < h _ H j ) ' ' 0 7 $.GXGXGXGXJ H K L GXGXGXGXGXGXGXGXGXGXGXGXGXGXGXGXGXGXGX",
"GXGXGXGXGXGXZ.~ T f.L X % C m m W v m m P -.+ o .   o o d H H J 0 * 6 q e e GXGXGX9 ' GXGXGXGXGXGXGXGXGXGXGXGXGXGXGXGXGXGXGXGXGX",
"GXGXGXGXGXGX:XC.3 ; l a.y.Q m m W b m m ( L .     . O o   & t 7 * = 6 6 9 9 j x.e w GXGXGXGXGXGXGXGXGXGXGXGXGXGXGXGXGXGXGXGXGXGX",
"GXGXGXGXGXGXGXG.y.h.=XR.Q I m F m b n M / 8 .     . o O O # . @ 6 9 k 8 h ) e 8 < * GXGXGXGXGXGXGXGXGXGXGXGXGXGXGXGXGXGXGXGXGXGX",
"GXGXGXGXGXj.f.H.F.R.t.G v v m F b b n W -.3 .   . O $ & O + 7 7 @ * 6 $.GXGXGXGXGXGXGXGXGXGXGXGXGXGXGXGXGXGXGXGXGXGXGXGXGXGXGXGX",
"GXGXGXGXGX{.=.D Z.t.M n m W m v z z v ^ m.! > o o O = = + 7 ` ` t o.GXGXGXGXGXGXGXGXGXGXGXGXGXGXGXGXGXGXGXGXGXGXGXGXGXGXGXGXGXGX",
"GXGXGXGXGXAXvX{.R b.F.N.Q b z 4 4 N V.A.~ N x o . & - - 7 ` ] ] `  .{ 2XGXGXGXGXGXGXGXGXGXGXGXGXGXGXGXGXGXGXGXGXGXGXGXGXGXGXGXGX",
"GXGXGXGXFXSXCXkX.X=.3 5 1 5 5 z M A.N.t.^ M 4 + o & & 6 `  . .] ] t < | ,.j.(.GXGXGXGXGXGXGXGXGXGXGXGXGXGXGXGXGXGXGXGXGXGXGXGXGX",
"GXGXGXGXAXSXBXlXoX~.=.< X o 1 4 t.F.B.N.N.~ v 5 o o & x  .*.o.o. .r ;.~.[.[.(.5.GXGXGXGXGXGXGXGXGXGXGXGXGXGXGXGXGXGXGXGXGXGXGXGX",
"GXGXGXGXCXCXNXlXoX~.=.x & > + 1.F.N.~ C M B c 1 O + t { *.4.4.*. .X.^.8X{.(.9.) GXGXGXGXGXGXGXGXGXGXGXGXGXGXGXGXGXGXGXGXGXGXGXGX",
"GXGXGXGXBXCXBXlX8X[.>.J * + L E.F.A.N.! M N S r 6 t ] o.*.8.0.4. .d.6X[.).j._ { GXGXGXGXGXGXGXGXGXGXGXGXGXGXGXGXGXGXGXGXGXGXGXGX",
"GXGXGXGXNXxXvXkXsXiXW.} 7 P iXT.A.B.Q m M C I } { { X.:.5.8.8.4.o.^.{.~.W...x GXGXGXGXo o @ GXGXGXGXGXGXGXGXGXGXGXGXGXGXGXGXGXGX",
"GXGXGXGXVXNXNXVXxXiX|.j.W.vXkXT.S.n.t.m 4 c c ;.;.<.0.9.v.8.3.*.X.[.8X^.| 8 7.GXGXGXGX. o o o GXGXGXGXGXGXGXGXGXGXGXGXGXGXGXGXGX",
"GXGXGXGXGXlXNXNXzXlXiXiXCXNXzXY.n.n.b.M n n G l.k.k.(.(.W.8.*.o.} XXiX;., 2 H GXGXGX9 X O o o o e GXGXGXGXGXGXGXGXGXGXGXGXGXGXGX",
"GXGXGXGXGXGXNXlXNXxXNXSXCXkXiX^.( C b z z 4 P W.).).).W.v.>.*.` } oX^.p u 2 3 GXGXJ $ $ $ + o O % * h GXGXGXGXGXGXGXGXGXGXGXGXGX",
"GXGXGXGXGXGXlXNXBXBXNXvXlX$XoX^.<.w 5 1 P K ] j.^.(.(.W.0.:.o.` | oXR U i - - 3 & X $ : & o o O % % * = GXGXGXGXGXGXGXGXGXGXGXGX",
"GXGXGXGXGXGXnXxXBXlXkXlXiXXX^.<.=.| J x @.L [ W.^.).W.W.0.4.*.` } |.U V i : & $ 8 % $ 2 & GXGXGXO O % * GXGXGXGXGXGXGXGXGXGXGXGX",
"GXGXGXGXGXGXGXNXxXzXpXsX{.[.d.} _ ) J ` %.P d.~.~.W.j.q.5.*.o.` | qXY p 3 : : $ $ 4 $ /.GXGXGXGXGXGXGXGXGXGXGXGXGXGXGXGXGXGXGXGX",
"GXGXGXGXGXGXGXGXpXiXXX8XQ.Q.>.] [ { ] [ -.L @.=.>.>.5.5.4.*.*.` H qXY.p y 5 2 : $ 2 +.GXGXGXGXGXGXGXGXGXGXGXGXGXGXGXGXGXGXGXGXGX",
"GXGXGXGXGXGXGXGX8X{.).W.,.>.{ &.GXGX:.@.-.[ [ _ { ..X.*.*.*.o.) x ).qX/ y u 3 2 , & 0.GXGXGXGXGXGXGXGXGXGXGXGXGXGXGXGXGXGXGXGXGX",
"GXGXGXGXGXGXGXGXGX~.<.;.} } &.GXGXGXGX<.O.X... .o.X.o.*.:.*.o.) t )..X4.p i u 2 : & f GXGXGXGXGXGXGXGXGXGXGXGXGXGXGXGXGXGXGXGXGX",
"GXGXGXGXGXGXGXGXGXGX5.} X.v.GXGXGXGXGXGX+.6.:.o.......*.*.....e < 0.).>.3 p p 2 , : : GXGXGXGXGXGXGXGXGXGXGXGXGXGXGXGXGXGXGXGXGX",
"GXGXGXGXGXGXGXGXGXGXGXGXGXGXGXGXGXGXGX0X0.q.8.4.&.X.&.&.X.X.` @ t } ..&.1 2 B u 2 $ X GXGXGXGXGXGXGXGXGXGXGXGXGXGXGXGXGXGXGXGXGX",
"GXGXGXGXGXGXGXGXGXGXGXGXGXGXGXGXGXGXGX5XGXGX4X8.5.:.>.&.&._ < < } X.X.v.7.7XDX`.p * 1 & j GXGXGXGXGXGXGXGXGXGXGXGXGXGXGXGXGXGXGX",
"GXGXGXGXGXGXGXGXGXGXGXGXGXGXGXGXGXGXGX(.GXGXGXGXGX4X4X2Xq./.GXGXGXGXGXGXGXGXGXGX= @ = = @ GXGXGXGXGXGXGXGXGXGXGXGXGXGXGXGXGXGXGX",
"GXGXGXGXGXGXGXGXGXGXGXGXGXGXGXGXGXGXGX(.GXGXGXGXGXGXGXGXGXGXGXGXGXGXGXGXGXGXGX0 O O + O * GXGXGXGXGXGXGXGXGXGXGXGXGXGXGXGXGXGXGX",
"GXGXGXGXGXGXGXGXGXGXGXGXGXGXGXGXGXGXDX5XGXGXGXGXGXGXGXGXGXGXGXGXGXGXGXGXGXGXO + O % % % + e GXGXGXGXGXGXGXGXGXGXGXGXGXGXGXGXGXGX",
"GXGXGXGXGXGXGXGXGXGXGXGXGXGXGXGXGXGXhX0XGXGXGXGXGXGXGXGXGXGXGXGXGXGXGXGXGXGXh & * % % % % + 1XGXGXGXGXGXGXGXGXGXGXGXGXGXGXGXGXGX",
"GXGXGXGXGXGXGXGXGXGXGXGXGXGXGXGXGXGX7XwXGXGXGXGXGXGXGXGXGXGXGXGXGXGXGXGXGXGXGX& % + O + O % O GXGXGXGXGXGXGXGXGXGXGXGXGXGXGXGXGX",
"GXGXGXGXGXGXGXGXGXGXGXGXGXGXGXGXGXGX5XGXGXGXGXGXGXGXGXGXGXGXGXGXGXGXGXGXGXGXGXGXGXGXGXO + h GXGXGXGXGXGXGXGXGXGXGXGXGXGXGXGXGXGX",
"GXGXGXGXGXGXGXGXGXGXGXGXGXGXGXGXGXGX5XGXGXGXGXGXGXGXGXGXGXGXGXGXGXGXGXGXGXGXGXGXGXGXGXGXGXGXGXGXGXGXGXGXGXGXGXGXGXGXGXGXGXGXGXGX",
"GXGXGXGXGXGXGXGXGXGXGXGXGXGXGXGXGXGXDXGXGXGXGXGXGXGXGXGXGXGXGXGXGXGXGXGXGXGXGXGXGXGXGXGXGXGXGXGXGXGXGXGXGXGXGXGXGXGXGXGXGXGXGXGX"
};
