/* XPM */
static char *_381df7652004ca781d8209158a8d6b2eFfUOY84EqToi0IS[] = {
/* columns rows colors chars-per-pixel */
"64 64 5 1 ",
"  c #444444",
". c #555555",
"X c gray40",
"o c #777777",
"O c #888888",
/* pixels */
"OOOOOOOOOOOOOOOOOOOooooooooOOOOOOOOOOOOOOOOOooooooooooooooooooOO",
"ooooooooOoOOOOOOOOOooooooooOOOOOOOOOOOOOOOOOoooooooooooooooooOOo",
"ooooooooOOOOOOOOOOOooooooooOOOOOOOOOOOOOOOOOOoooooOooooooOoOOOOo",
"oooooooOOOOOOOOOOOOOOoooooOOOOOoOOOOOOOOOOOOOOoOOoOOooooOOOOOOOo",
"oooooooOOOOOOOOOOOOOOOOOoOOOOoooOOOOOOOOOOOOOOOOOOOOOoOOOOOOOOOo",
"oooooooOOOOOOOOOOOOOOOOOOOOoooooOOOOOOOOOOOOOOOOOOOOOOOOOOOOOOOo",
"oooooooOOOOOOOOOOOOOOOOOOOOOooooOOOOOOOOOOOOOOOOOOOOOOOOOOOooooo",
"ooooooOOOOOOOOOOOOOOOOOOOOOOooooOOOOOOOOOOOOOOOOOOOOOOOOOOoooooo",
"ooooooOOOOOOOOOOOOOOOOOOOOOOooooOOOOOOOOOOOOOOOOOOOOOOOOOooooooo",
"ooooooOOOOOOOOOOOOOOOOOOOOOOooooOOOOOOOOOOOOOOOOOOOOOOOOOooooooo",
"ooooooOOOOOOOOOOOOOOOOOOOOOOooooOOOOOOOOOOOOOOOOOOOOOOOOOooooooo",
"ooooooOOOOOOOOOOOOOOOOOOOOOOOOooOOOOOOOOOOOOOOOOOOOOOOOOOOoOoooo",
"oooooOOOOOOOOOOOOOOOOOOOOOOOOOooooOOOOOOOOOOOOOOOOOOOOOOOOoOoooo",
"oooooOOOOOOooOOOOOOOOOOOOOOOOOooooOOOOOOOOOOOOoOOOOOooOOOOoOOooo",
"oooooOOOOOooooOOOOOOOOOOOOOOOOooooOOOOOOOOOOOOoOOOOooooOOOOOOOoo",
"oooooOOOOOooooOOOOOOOOOOOOOOOooooOOOOOOOOOOOOooOOooooooOOOOOOOOO",
"ooooOOOOOOooooOOOOOOOOOOOOooOoooooooOOOOOoOoOooOoooooooOOooOOOOO",
"oooooooooooooooooooooooooooooooooooooooooooooooooooooooooooooooo",
"oooooooooooooooooooooooooooooooooooooooooooooooooooooooooooooooo",
"oooooooooooooooooooooooooooooooooooooooooooooooooooooooooooooooo",
"ooooooooooooooooooooooooooooooooooXXoooooooooooooooooooooooooooo",
"oooooooooooooooooooooooooooooooXXXXXXoooooXXXooooooooooooooooooo",
"ooooooooooooooooooooooooooooooooXXXXXoooooXXXoooooOooooooooooooo",
"oooooooooooooooooooooooooooooooooXXXXXooooXXXoooooOOoooooooooooo",
"oooooooooooooooooooooooooooooooooXXXXXoooXXXXXoooooooooooooooooo",
"oooooooooooooooooooooooooooooooooXXXXXooXXXXXXoooooooooooooooooo",
"ooooooooooooooooooooooooooooooooXXXXXXXXooXXXooooooooooooooooooo",
"ooooooooooooooooooooooooooooooXXXXXXXoXooooXoooooooooooooooooooo",
"oXoXXXXXXoooXoXXXoooooooooooooXXXXXXoooooooooooooooooooooooooooo",
"oXXXXXXXXooooXXXXXXoooooooooooXXXXXXoooooooooooooooooooooooooooo",
"ooXXXXXXXXooooXXXXXoooooooooooXXXXXooooooooooooooooooooooooooooX",
"ooooXXXXoXoooooXXXXooooooooooXXXXXXXXXXXXXoooooooooooooooooooooo",
"ooooXXXXoooooooooXXoooooooooXXXXXXXXXXXXXXoooooooooooooooooooooo",
"ooooXXXXooooooooooooooooooooXXXXXXXXXXXXXoooooooooooooooooooooXX",
"XoooXXXXXoooooooooooooXooXXoXXXXXXXXXXXXXoooooooooooooooooooXXXX",
"XooooXXXoooooooooooooXXXXXXXXXXXXXXXXXXoooooooooooXXXooooXXXXXXX",
"XoooooooooooooooooooXXXXXXXXXXXXXXXXXXXoooooooooXXXXXXooXXXXXXXX",
"XooooooooooooooooooXXXXXXXXXXXXXXXXXXXXooooooooXXXXXXXooXXXXXXXX",
"XXooooooooooooooooXXXXXXXXXXXXXXXXXXXXXooooooooXXXXXXooXXXXXXXXX",
"XXXXoXXXXXXXXXXXXoXXXXXXXXXXXXXXXXXXXXXoooXXXoXXXXXXXXXXXXXXXXXX",
"XXXXXXXXXXXXXXXXXXXXXXXXXXXXXXXXXXXXXXXoooXXXXXXXXXXXXXXXXXXXXXX",
"XXXXXXXXXXXXXXXXXXXXXXXXXXXXXXXXXXXXXXooooXXXXXXXXXXXXXXXXXXXX..",
"XXXXXXXXXXXXXXXXXXXXXXXXXXXXXXXXXXXXXXXooXXXXXXXXXXXXXXXXXXXX...",
"XXXXXXXXXXXXXXXXXXXXXXXXXXXXXXXXXXXXXXXXXXXXXXXXXXXXXXXXXXXXXXX.",
"XXXXXXXXXXXXXXXXXXXXXXXXXXXXXXXXXXXXXXXXXXXXXXXXXXXXXXXXXXXXXXX.",
"..XXXXXXXXXXXXXXXXXXXXXXXXXXXXXXXXXXXXXXXXXXXXXXXXXXXXXXXXXXX...",
".XXXXXXXXXXXXXXXXXXXXXXXXXXXXXXXXXXXXXXXXXXXXXXXXXXXXXXXXXXXX...",
".XXXXXXXXXXXXXXXXXXXXXXXXXXXXXXXXXXXXXXXXXXXXXXXXXXXXXXXXXXXX...",
".XXXXXXXXXXXXXXXXXXXXXXXXXXXXXXXXXXXXXXXXXXXXXXXXXXXXXXXXXXXX...",
".XXXXXXXXXXXXXXXXXXXXXXXXXXXXXXXXXXXXXXXXXXXXXX.XXXXXXXXXXXXX...",
".XXXXXXXXXXXXXXXXXXXXXXXXXXXXXXXXXXXXXXXXX............XXXXXXX...",
".XXXXXXXXXXXXXXXXXXXXXXXXXXXXXXXXXXXXXXXXXX...........XXXXXXX...",
".XXXXXXXXXXXXXXXXXXXXXXXXXXXXXXXXXX.XXXXXXX...........XXXXXXX...",
".XXXXXXXXXXXXXXXXX.........XXXXX....XXXXXXX...........XXXXXX.X..",
".XX..XX...X..XXXXX........XXXX.X....XXXXXXXX..........XXXXXX..X.",
"...............XXX........XXXX.X....XXXXXXXX..........XXXXXXX...",
"...............XXXX.......XXX..XX..XXXXXXXXX..........XXXXXXXX..",
"................XXX......XXXXXXXXXXXXXXXXXXXX..........XXXXXXX..",
".. .............XXX......XXXXXXXXXX.XXXXXXXXX.......XX..XXXXXX..",
"..............................XX........XXXX....................",
". ............................XX........XXXX....................",
"   ...........................XXX........XXX....................",
"     .........................XX..........XX....................",
"     ..........................XX..............................."
};
