/* XPM */
static char *d21b623c740b4b43abe89093ae76f5f6H2RQ7H94ifnZohCm[] = {
/* columns rows colors chars-per-pixel */
"64 64 235 2 ",
"   c #230608",
".  c #391309",
"X  c #3B2E19",
"o  c #25002D",
"O  c #2F002F",
"+  c #240034",
"@  c #2C0235",
"#  c #270038",
"$  c #2B003C",
"%  c #340234",
"&  c #33003C",
"*  c #390039",
"=  c #3C0A3C",
"-  c #4A0D00",
";  c #731E00",
":  c #54360B",
">  c #55550D",
",  c #695403",
"<  c #6F6F09",
"1  c #6E7F00",
"2  c #697718",
"3  c #72721D",
"4  c #625D24",
"5  c #797729",
"6  c #2F0040",
"7  c #270049",
"8  c #310041",
"9  c #380746",
"0  c #3D0446",
"q  c #3A004A",
"w  c #2F0051",
"e  c #3B005B",
"r  c #400140",
"t  c #420942",
"y  c #43034B",
"u  c #490049",
"i  c #41084A",
"p  c #4D144D",
"a  c #561245",
"s  c #420053",
"d  c #4D0356",
"f  c #42005A",
"g  c #49005A",
"h  c #530155",
"j  c #5A025A",
"k  c #5D0A5D",
"l  c #631A49",
"z  c #6A2E50",
"x  c #480060",
"c  c #4B006C",
"v  c #520063",
"b  c #570465",
"n  c #510073",
"m  c #5D0072",
"M  c #5B007D",
"N  c #630063",
"B  c #68056C",
"V  c #6B0079",
"C  c #750575",
"Z  c #781578",
"A  c #783467",
"S  c #745B63",
"D  c #841400",
"F  c #9D4F09",
"G  c #927019",
"H  c #945025",
"J  c #CD5600",
"K  c #CD6700",
"L  c #836150",
"P  c #738329",
"I  c #8F9622",
"U  c #AE8C37",
"Y  c #ABAB34",
"T  c #B6A53F",
"R  c #CDA30E",
"E  c #D78B2A",
"W  c #FF9821",
"Q  c #F0AE27",
"!  c #BCCD2C",
"~  c #FFC218",
"^  c #C0C027",
"/  c #E5C528",
"(  c #D9E734",
")  c #E7EF3A",
"_  c #E8F93B",
"`  c #F2FF3C",
"'  c #A6A640",
"]  c #BBAA44",
"[  c #B3A24D",
"{  c #D98D4D",
"}  c #C9A75A",
"|  c #C7B067",
" . c #D8D84A",
".. c #FACD50",
"X. c #E6E64D",
"o. c #EDFE42",
"O. c #E6F74D",
"+. c #EDFD48",
"@. c #F2FF44",
"#. c #FFF74D",
"$. c #F5FF4B",
"%. c #EBFB54",
"&. c #F5FF52",
"*. c #FDFE51",
"=. c #F6F65D",
"-. c #F7FF5A",
";. c #FFFD5C",
":. c #FFD07B",
">. c #FFE16A",
",. c #FDF962",
"<. c #FFF36B",
"1. c #560083",
"2. c #660087",
"3. c #760085",
"4. c #780089",
"5. c #7A1288",
"6. c #6C009A",
"7. c #720093",
"8. c #78009A",
"9. c #7F00A1",
"0. c #7D00AB",
"q. c #7F00B2",
"w. c #850085",
"e. c #871588",
"r. c #850097",
"t. c #980498",
"y. c #8B1298",
"u. c #882288",
"i. c #8300AA",
"p. c #8700A9",
"a. c #9902A7",
"s. c #8000B3",
"d. c #9300BD",
"f. c #9A00BC",
"g. c #8F18B1",
"h. c #9814B0",
"j. c #A500A5",
"k. c #AC00AC",
"l. c #A018A0",
"z. c #AE00BF",
"x. c #B605BA",
"c. c #A617B4",
"v. c #B617B7",
"b. c #A029A0",
"n. c #BF26BF",
"m. c #C82FB7",
"M. c #9D5B88",
"N. c #E774BE",
"B. c #9200C5",
"V. c #9A00CC",
"C. c #9E00D1",
"Z. c #A606C6",
"A. c #AC00CD",
"S. c #B508CC",
"D. c #A614C9",
"F. c #B317C4",
"G. c #A300D5",
"H. c #AE00D1",
"J. c #AA0AD3",
"K. c #AC00DE",
"L. c #B408D6",
"P. c #B300DC",
"I. c #BD24DF",
"U. c #AB00E4",
"Y. c #B100E3",
"T. c #B703EA",
"R. c #B902EB",
"E. c #BD10EF",
"W. c #C70DCE",
"Q. c #D01BC0",
"!. c #D40BD6",
"~. c #CE10DE",
"^. c #D41AD4",
"/. c #D712DC",
"(. c #CC2BCC",
"). c #CB22DB",
"_. c #DA2AD7",
"`. c #DE22DE",
"'. c #C403EC",
"]. c #DD14E5",
"[. c #D61AE7",
"{. c #C807F7",
"}. c #D00FF5",
"|. c #DB17FD",
" X c #E51AE5",
".X c #E41AEB",
"XX c #E91DE9",
"oX c #E71BF5",
"OX c #EB1DFF",
"+X c #DE21E7",
"@X c #DD22EE",
"#X c #D73AFF",
"$X c #E621E6",
"%X c #E52AE5",
"&X c #E620EF",
"*X c #ED21ED",
"=X c #EA2FEA",
"-X c #EA21F8",
";X c #EF38FD",
":X c #CD45CD",
">X c #D76BD7",
",X c #F64AFF",
"<X c #FE56FF",
"1X c #FF63FF",
"2X c #FF69FF",
"3X c #FF75FF",
"4X c #B38091",
"5X c #F0A29E",
"6X c #FFE893",
"7X c #FFFA94",
"8X c #FDD3B1",
"9X c #FFE7B4",
"0X c #EDA9CB",
"qX c #FF83FF",
"wX c #FF8AFF",
"eX c #FF99FF",
"rX c #FFA9F9",
"tX c #FFB7FF",
"yX c #FFBFFF",
"uX c #FDD9C8",
"iX c #FFDAD2",
"pX c #FAE5C7",
"aX c #FFF8CF",
"sX c #FFE5D4",
"dX c #FFECD8",
"fX c #FFF7D5",
"gX c #FFF9DC",
"hX c #FFD6E7",
"jX c #FFC8FF",
"kX c #FFD0FF",
"lX c #FFD9FF",
"zX c #FFE0FF",
"xX c #FFEAFF",
"cX c #FFF1FF",
"vX c #FFFEFF",
/* pixels */
"lXlXhXhX2XS.G.6.n n b c n n m m n n n n M V T.U.D Q ,.<.<.<.K D U.L.K.2XlXlXlXlXiXiXiXiXxXxXz.z.A.H.U.U.H.H.H.zXlXlX<X<X3XP.P.P.",
",XlXhXhXxXJ.G.6.z M.l l n n n M 3.V 3.2.1.1.C.Y.Z.Z.I.<X3XL.L.L.L.J.<XzXfXgXfXpXuXuXuXsXfXfXfX8X<XA.U.U.A.H.A.zXsXsXsXsXeX~.~.~.",
",XlXhXhX2XJ.G.6.0XcXM.l n 7.i.D.a.3.S.V V D.|.T.c.V.Z.D.Y.L.L.L.A.H.H.zXpX9XpXpXuXdXdXdXfXfXfXfXzXzXU.U.A.H.<XlXsXsXsXsXeX].~.~.",
",XjXjXjX,XY.B.n :.:.:.D p.p.p.Z.W.C h.l.W. XXX!.U.K.U.U.U.U.U.U.U.K.K.qXlXlXuXuXuXuXaXaXfXfXxXcXcX2XJ.J.x.1XxXxXpXuXpXdXqXm.XX/.",
"z.z.S.S.K.Y.f.n :.:.:.D D.7.7.p.3.3.j.v. X XXXXXY.U.U.U.U.U.U.U.K.K.P.K.lXlXuXuXiXsXaXaXfXfXcXcX2XJ.J.S.S.xXxXxXuXpXdXgXvXn..XXX",
"H { { H P.U.f.n 1.p.M J.f.f.n n C 3.n.a. XXXXXXXT.K.U.U.U.U.U.U.K.U.K.K.>XlXuXuXdXgXaXaXfXfXcXrXK.P.K.P.x.;XjXjXdXpXsXgXvXqXXXXX",
"5XpXpXpX}.U.d.n V i.V p.f.n n f.^.W.v.C k.`.XXXXT.K.U.U.U.U.U.U.P.U.U.K.>XlXuXuXuXuXaXaXfXfXcXu.K.Y.K.U.x.z.z.jXgXdXpXpXvXqXXXXX",
"$.$.$.$.3XA.n.% - - - - Z e.Z Z u.Z C C C v.XXXXT.K.U.U.U.U.U.U.P.U.G.|.5XhXhXhXlXlXsXsXfXfXeXD.U.U.U.U.U.U.U.,XvXvX,X&XXXXX.X[.",
"$.$.$.$.2X-Xn.% F E >.>.vXvX>XZ C C Z C C C x.XXT.K.U.U.U.U.U.U.U.U.'.oX5XhXhXhXlXlXsXsXfXfXeXD.U.U.U.U.U.U.U.U.3X3X&X&XXXXX.X].",
"vXvXvX3X-X-Xn.n.$.@.$.$.$.$.$.$.Q ; ; ; B C x.XXT.U.U.U.U.U.U.U.K.Y.}.OXrXlXlXlXlXlXsXsXfXfXeXD.U.U.U.U.K.K.K.T.^.).&X&XXXXX.X].",
"v.W.W.v.-X-X(.vX$.*.$.$.$.$.$.$.<.<.; ; v.v.*XXXT.K.U.U.U.U.U.U.Y.Y.}.OXN.lXrXN.W.x.5XpXfX8X,XD.U.U.U.U.K.K.K.T.Q.^.&X&XXXXX+X.X",
"XXXXXXXXXXXXE 6X@.@.$.@.$.@.@.@.$.$.tXC k.XXXXXXY.Y.f.f.A.G.A.A.K.P.].oXXX X XXX}.U.K.#XjXjX}.K.U.U.U.U.U.U.K.T.$X$X$X$XXX XXX*X",
"XXXXXXXXXXXXK 6X@.$.$.$.@.o.o.@.$.$.tX_.XXXXXXXXY.C.n n 2.1.H.H.K.P.].oXXXXXXXXX}.T.U.U.A.A.K.K.U.U.U.U.U.U.U.T.$X$X$X$X X XXXXX",
"XXXXXX XXXXX{ 6X@.@.@.o.` ` o.@.$.$.tX_.XXXXXXXXT.C.n n e e e 2.K.K. XoXXXXXXXXX|.Y.K.U.A.J.K.K.U.U.U.U.U.U.K.T.$XXX$X$XXX.X*XXX",
"XXXXXXXXXXXXF 6X$.@.o.o.o._ o.$.$.$.tX_.XXXXXXXXY.U.f.n e e e e 6.K..XoXXXXXXXXX-XY.U.U.H.H.K.P.U.U.U.U.U.U.H.T.XX;XwXwX3X,XXXXX",
"XXXXXXXX^._.`.rX` ` ` ` o.+.+.+.vXvXn.n. X XXX XH.A.V.1.x 3.7.x g v [.[.XXXXXXXXXX XY.U.P.P.P.Y.T.U.D.0.V.V.J.J.R *.$.$.$.$.>.J ",
"XX XXXXX_._.`.<X@.` ` _ &.&.&.+.vXm.n.n. XXXXXt.A.A.B.1.x 2.7.g v v a.@XXXXXXXXXXXXXOX{.'.R.}.{.U.P.i.c 1.V.C.#X&.&.$.$.$.$.>.>.",
"XX$XXXXX X$X`.!.&.&.$.$.;.;.;.*.2XoX*X*X$X$XXXj 2.Z.V.1.f f f f g g g F.XXXXXXXX*XXXOXOX&X&X&X/.U.U.c c 1.V.J.3X*.*.$.$.$.$.>.>.",
"XXXXXXXX$X$X$X!.( $.$.&.;.*.;./ *X*X*X*X$X$X$Xj.2.2.V.1.f f f f g g g 4.XXXX$XXX*XXXOXOX&X&X&X/.K.U.c c 1.V.C.#X*.*.$.$.$.$.>.W ",
"XXXXXXXXXXXXXX/.Q =.,.;.<.<.<.Q =X=XXXXXXXXXXX/.g g 8.g f f f f f f j k k.*X*X*XXXXX$XXXXXXXoX/.Y.B.s q f m a.a.kXkXkXkX=X^.^.`.",
"XXXXXXXXXX$XXX/./ ;.;.;.<.<.<.Q =X=XXXXXXXXXXXXXr.g g g f f f f f f k k N k.*X*XXXXXXXXXXXXX&X/.K.B.s s g s v v w.w.:X:X$X$X$X`.",
"XXXXXXXX=X=X=X=X$.@.@.@.o.o.o.o.=X=XXXXXXXXXXXXXv.f g g f f f f f f j k N k k k N k.*X*XoXXX&X].U.B.s f g s v v a a a A $X$X$X$X",
"XXXXXX$X=X=X=XtX@.$.@.$.@.o.$.@.tX=X$XXXXXXXXXXXF.r.g g f f f f f f h k k k k k N N *X*XXXXX&X].K.B.s s s f j v a a A M.wX<X$X$X",
"_.(._._.D K <.,.@.` ` ` +.$.&.&.<.<.K D `.`.XXXXT.K.c c f f f f f e k k k k k k N N k.*X*X*X*XXXF.g g g d g g g j m.) ` *.*.~ F ",
"eXeXeXwX<.<.<.<.` ` ` ` +.&.&.&.<.<.<.Q `.`.XXXXT.K.c c f f f f f f k k k k k k N N =X*X*X2X2X2X4.f c e r.8.v.F.m.tX+.o.*.*.*.#.",
"` ` ` ` $.$.$.$.@.@.o._ &.-.-.-.o.@.@.@.1X`.XXXXT.K.h.c f f f f f f h k k k k k a a A A ' ' I < L z : : !.XX.XXXm.tX+.+.o.o.o.$.",
"` ` ` ` $.$.$.$.o.o.` o.%.-.-.%.@.o.@.@.rX+XXXXXT.K.D.7.f f f s f f k k k k k k a a z M.< < < < L L L L  XXXXXXXm.m.` +.o.o.o.+.",
"$.&.$.$.@.@.o.o.+.+.+.+.o.` @.o._ @.@.$.vXQ.Q.Q.T.U.K.U.2.s s e y s j k k k k p a p > 2 2 3 2 P I P G 3 C  X X Xn.n./ <.$.` ` ` ",
"&.-.&.+.o.o.o._ +.&.&.%.o.` _ o.o.@.$.$.vXQ.Q.Q.R.K.K.K.g.e e e y e k k k k k k a l 2 1 2 2 2 P G I P 3 C  X X[.n.n.R <.` ` ` ` ",
"-.-.&.$.o.` ` $.-.-.-.&.o.o.o.` o.@.@.@.rX`.`.`.}.Y.Y.Y.c x c c s f k k k k k k a l 2 2 2 2 P 5 2 I 1 I vXn.Q.n.n.n.>.<.@.@._ $.",
"-.-.+.+.o._ @.$.-.-.-.+._ o.o.@.@.@.@.o.1X^.`.`.OXT.Y.Y.h.7.7.7.s b k k k k k k a a 2 2 2 5 2 2 ! %.! %.vXvXqXqXqXvX<.<.@.@.$.$.",
"$.@.o.o.o.o.,.,.$.$.$.$.$.$.$.$.<.<.<.W Q Q =X=XXXXXY.P.P.P.H.P.x.3.j h k k k k . . < G 1 1 1 ! o.` o.$.&.&.$.$.` ` @.` +.$.$.$.",
"o.o.o.` @.o.,.,.$.$.$.@.$.$.$.#.<.<.K <.<.<.tX=XXXXXOX|.'.'.'.|.XX&X+Xa.B N k k - . , G 1 ! O.O.` ` _ $.&.&.$.$.` ` @.` $.o.+.&.",
"o._ o.@.o.$.,.,.6X6X6X6X9X9X9X9XqXn.n.vX<.<.tX=XXXXXOXOXXXoXoXXX&X&X+X+X$X$X!.x.t.j.t.qX#.#.#.#.` ` $.$.&.&.*.` +.@.o.&.$.@.` o.",
"o.` @.$.@.@./ R E { { { { { F H n.n.m.qX<.<.tX=XXXXXOXOXa.a.oXoX&X&X$X+XXXXX$XXX^.^.^.^.K *.#.#.@.` $.$.$.&.@.o.+.+.&.&.$.@.o.o.",
"$.$.7X7XwX$X].].[.$X].].].].OXOX}.'.V.K.wXwX;X&XXXXXXX$Xe.u *X*XXXXXXXXXXXXXXXXXXXXXXXXXF.W.^.`.m.qXvXvX@.$.` ` %.&.-.-.$.@.o._ ",
"$.$.7X..$X$X&X&X&X*X&X&X.XXXOX'.U.K.C.B.A.A.&X&XXX XXXXXj u k.*XXXXXXXXX$XXXXXXXXX$XXXXX`.`.`.`.Q.n.n.wX@.@.` @.&.-.-.-.@.o._ o.",
"$.$.7XE $X$X&X&X*XXXXXXX.XXX'.P.U.K.K.K.A.A./.&XXXXXXXXXu u N *X*XXXXXXXXXXXXXXXXXXXXXXXXXXXXXXX_.+X`.`.$.@.` ` $.&.&.+.` o.` o.",
"$.%.7XE $X$X&X&XXXXXXXXXXXXXP.L.K.U.J.K.A.A.W.*XXXXXXXk.u u N k.x.XX*XXXXXXXXXXXXXXXXXXXXXXXXXXX`.+X_.%X@.$.` ` +.$.+.+.o.o.o.o.",
"o.%.<.Q +X+X+X&XXXXXXXXX).).K.U.U.U.U.U.U.U.K.|.$XXXj N t t r r 7.oX|.OX&X&X&X$XXXXXXXXXXXXXXXXX(.(.(.kX=.=.=.=.o._ o._ +.+.&.+.",
"o.o.<./ W.W.W.~. XXXXX`.).).K.K.U.U.U.U.U.U.U.|.$X$Xj.j t t r Z |.oXT.R./.XX&X&X$XXXXXXXXXXX*XXX(.2XyXyX( (  .( ) _ _ _ +.&.&.&.",
"@.o.>...A.x.v.x.v.v.v.v.).).K.K.U.U.U.U.U.U.U.|.$X$X$Xj t t r r A.z.K.K.K.R.OX|.XXXXXXXX$XXXXX$XL | | | | | | | ( +.+.+.-.-.-.&.",
"o.@.<...x.x.).r.w.r u u y r.G.K.U.U.U.U.U.U.U.OX$X$X$Xj t t r r 4.A.G.K.K.G.{.OXXXXXXXXXj.j j j , : : : G | [ [ ( +.+.&.-.-.&.%.",
"o.o.9X} e.N u u * * h h * k s.s.U.U.C.J.B.B.A.~.*X*Xv.u t t t % V g.z.z.Y.U.Y.OXXXXXXXXX(.r u t : : 4 > >  .T T ( o._ $.&.&.+.+.",
"o.) } - * = u u B e.t.t.* u q.K.U.U.B.q.q.0.8.[.*X*Xv.u t * @ @ 7 1.z.z.K.U.Y.OXXX$XXXXX(.r u e.3 G 4 X , Y Y ] O.+._ @.$.$.+.+.",
"o.O.H . N e.w.v.N e.h h * * q.G.U.U.B.q.0.0.8.}.*X*Xw.r t * @ & 7 1.z.z.K.K.{.OXXXXXXXXXQ.0 u C 5 5 L > >  .] ] $.&.` @.` ` ` ` ",
"o.) H . N e.u u & e.h `.k * U.K.U.U.B.q.0.0.r.Z.k.b u u * t i i 7 7 @ z.P.U.}.OXXXXXXX$X(.r u j   4 X X , Y T | $.$.$.@.` ` ` @.",
"yX_._.C # 5.v +Xh Q.j j u y G.C.K.K.K.q.q.s.0.G.c.q * C w.w.w.w.C % v a.S.].oX[.@X@X@X@X).e s r.p S S X < ] T ] ] ] T ] ! X.,.=.",
"_._._.C $ 5.v v j j y.w.v.u G.G.G.G.K.i.q.C.q.E.h.8 * * * r r r O O v @XoX[.[.!.p.a.r.a.r.e y s @ O   X < ] ] ] ] ] T T ^ X.=.^ ",
"L.+X+Xf.$ c a.v Q.j t.j u u 6.G.D.6.6.7.8.8.8.I.h.3.* * % % % * O O v @X.X.Xx.4.% % % % % % = % O O   o z 4XM.4XU T U U >X>Xb.b.",
"S.[.W.f.v b a.v j j t.j v.C 6.G.c.e e e w w w 8.h.3.* * % = % = O O v @X.X.XZ.w.% % % % % % = % O @     - z O .         * * C b.",
"H.G.J.9.8.w m m y.M y.m Z j e D.Z.# + # + + 7 g.c.y y y * V y B e 2.e 2.L.}.Z.Z.% % & & @ % 0 9 = + + + 2.r.4.6 o o O o + # @ v.",
"0.H.d.i.8.w B m V q q q * * e D.z.# # # + + 7 g.v.y y v.V l.y y.e 2.e e H.H.A.Z.d & & @ @ = 9 & & + o o 2.9.4.6 o o + o # # + F.",
"i.G.d.i.8.8.# # % % * = * * w D.4.6 $ 6 + + 7 g.e.* * 8 & & q r q e e s i.D.0.D.b @ & @ @ @ 9 & & o o o 2.9.4.8 o o o o 6 6 6 3.",
"i.p.i.s.8.8.# # % % % = * * e 7.4.6 6 6 + + 1.g.N 8 0 e.V l.V y.e r.y s 1.i.0.D.5.@ @ % @ @ & o + + o o i.9.4.8 o o o + 6 6 6 4.",
"r.r.r.r.8.8.g 8 % @ % % & & $ 9 f # # + + + 3.h.j & * h = t 8 & o O o o # v 3.c.l.* * * & & % @ + o o # 4.4.4.$ o + + + + + 6 4.",
"s s e s w w q 8 = = = = 8 & @ # # $ # $ 6 6 q q * * * * r t 0 & @ O @ @ $ $ q q = * * * = 9 * $ $ $ $ $ 6 6 6 6 # # $ $ 8 6 6 6 ",
"8 8 8 8 w w 8 8 t = t t i 0 q 8 8 8 6 6 6 6 q q t t t t t t 0 0 6 & 8 8 # $ 8 q = = = = i i i $ 8 8 8 6 6 6 6 6 6 6 7 8 8 & 6 6 ",
"8 8 8 8 w w 8 q t t t 0 i & 8 8 8 6 8 6 6 6 q q t t t t t t i 8 6 8 6 6 # 6 q q = 9 t t i i 9 & 6 8 8 8 6 6 6 6 6 6 6 8 6 6 6 6 ",
"8 8 8 6 6 6 8 8 6 9 9 9 6 8 8 8 8 6 8 8 6 6 $ 0 t t t t t t i * 6 8 8 8 6 6 6 6 0 i t i 9 0 & 6 6 8 6 8 8 6 8 8 6 6 6 6 6 8 6 6 ",
"8 8 8 8 8 8 8 8 8 8 8 8 8 8 6 8 8 6 8 8 8 8 & 0 t t t t t t i & 6 8 8 8 6 7 8 8 & & 0 8 8 8 8 8 8 8 8 6 8 8 8 8 8 6 6 8 6 8 6 8 ",
"8 8 8 6 8 8 8 8 8 6 8 6 6 8 6 8 8 6 8 6 8 8 & i t t t t t t i & 8 8 8 8 6 6 8 8 8 6 6 6 8 8 8 8 8 6 8 8 8 8 8 8 8 8 8 8 6 8 6 8 ",
"8 8 8 6 8 8 8 7 8 8 6 6 6 8 8 8 6 8 8 8 8 8 & t t t t t t t 0 % 8 6 8 8 8 8 8 8 8 8 8 8 8 8 8 8 8 6 6 8 8 8 8 8 7 8 8 6 6 6 8 8 ",
"U.U.K.E.U.U.U.U.n n n n n c c n n n f.f.D.Z.Z.f.) $.$.$.@.@.$.X.J.J.U.U.U.U.U.U.z.kXxXxXcXL.U.U.U.U.U.U.U.U.U.U.U.U.U.U.U.U.U.U."
};
