/* XPM */
static char *_670446917680[] = {
/* columns rows colors chars-per-pixel */
"10 10 81 1 ",
"  c #031CA0",
". c #041DA5",
"X c #031DA9",
"o c #021DAA",
"O c #031EAD",
"+ c #021DAD",
"@ c #021DAC",
"# c #021EA9",
"$ c #031BA0",
"% c #041CA9",
"& c #031DAE",
"* c #041FB1",
"= c #041EB3",
"- c #041EB4",
"; c #031DB3",
": c #021DAE",
"> c #041CA4",
", c #041DA7",
"< c #031FB9",
"1 c #0320BB",
"2 c #021FB9",
"3 c #031EB3",
"4 c #041DAE",
"5 c #031CA8",
"6 c #041DA8",
"7 c #041EAF",
"8 c #0320B6",
"9 c #0221BE",
"0 c #0121C1",
"q c #0221C1",
"w c #0121BE",
"e c #031FB8",
"r c #041DB0",
"t c #031CA9",
"y c #041DB1",
"u c #041FB8",
"i c #0220C0",
"p c #0321C6",
"a c #0220C6",
"s c #0321C0",
"d c #041FB9",
"f c #021EAB",
"g c #0420B7",
"h c #0321BD",
"j c #0220C2",
"k c #0320C3",
"l c #0220BC",
"z c #041FB6",
"x c #031DB0",
"c c #011DAA",
"v c #041CA8",
"b c #031EB2",
"n c #0220B7",
"m c #0420BC",
"M c #041FBD",
"N c #0320B9",
"B c #031FB2",
"V c #041DAD",
"C c #031DAA",
"Z c #021EAE",
"A c #021FB3",
"S c #021FB5",
"D c #031FB6",
"F c #021EAD",
"G c #031CA4",
"H c #051CA5",
"J c #041DA9",
"K c #031DAB",
"L c #021DAB",
"P c #041DAA",
"I c #041CA6",
"U c #031C9F",
"Y c #021C9B",
"T c #041CA0",
"R c #031CA3",
"E c #041DA4",
"W c #031EA6",
"Q c #031EA7",
"! c #031DA6",
"~ c #041CA5",
"^ c #021B9A",
/* pixels */
" .XoO+@#.$",
".%&*=-;:%>",
",&=<112345",
"67890qwer6",
"tyuipasd3f",
"tyghjklzxc",
"v&bnmMNBV5",
".CZASDAFtG",
" HvJKLKPIU",
"YTREWQ!~$^"
};
