/* XPM */
static char *_670441767292[] = {
/* columns rows colors chars-per-pixel */
"50 50 80 1 ",
"  c #030A23",
". c #030B2C",
"X c #030C33",
"o c #030D3B",
"O c #03113D",
"+ c #020E41",
"@ c #030F4C",
"# c #031144",
"$ c #03124C",
"% c #020F51",
"& c #021354",
"* c #021854",
"= c #03145B",
"- c #03195C",
"; c #031463",
": c #031964",
"> c #03156B",
", c #031B6C",
"< c #031674",
"1 c #041B73",
"2 c #03177B",
"3 c #031A7D",
"4 c #022177",
"5 c #02237C",
"6 c #031782",
"7 c #031984",
"8 c #03198B",
"9 c #031A93",
"0 c #031B9C",
"q c #022484",
"w c #03258A",
"e c #03298E",
"r c #042694",
"t c #032994",
"y c #032999",
"u c #05339F",
"i c #041CA3",
"p c #031DAB",
"a c #031EB3",
"s c #031FB9",
"d c #0534A3",
"f c #0436A9",
"g c #0439AD",
"h c #0320B7",
"j c #0320BC",
"k c #053CB3",
"l c #053EBA",
"z c #0542B6",
"x c #0644BA",
"c c #094ABE",
"v c #0221C2",
"b c #084EC4",
"n c #064ECB",
"m c #084FCB",
"M c #0652CE",
"N c #0852CC",
"B c #0653D2",
"V c #0852D2",
"C c #0558D6",
"Z c #0558D9",
"A c #0F63DA",
"S c #126EDE",
"D c #2C82DF",
"F c #3185E3",
"G c #378DE7",
"H c #388DE7",
"J c #368EEA",
"K c #398CE9",
"L c #3590EB",
"P c #429DE6",
"I c #429DE9",
"U c #43A3E9",
"Y c #4EA6EE",
"T c #4EA9EF",
"R c #50A6EF",
"E c #50A8EF",
"W c #4EA6F1",
"Q c #4EA8F1",
"! c #50A7F0",
"~ c #51A9F1",
/* pixels */
"         ...X.XXXXoXOoooooOOooXXXXXX.X...  .      ",
"     .XOOOOO#+##+$$$$$$$$$$$@@@@$#####OOooXOX.    ",
"   .O&---::,,,::,,,,1,11111,,,,,,,,,::::::-**O.   ",
"   #:qdggggggkkkkkkkkkzkzkzkkkzkkkkggzggggfdq-O.  ",
"  O-eNUTYYRERRREQQWW~~E~~~~~~~~~WW!R!!RREERINt*o  ",
"  O,cUAMNmNMNVNVBBVBBVVVVVVVVVVVVVBVVVNmNNmAPc,#  ",
" .#4nJkqqqwwwwwwewrryrrryyrrrrrrwrwwww7wqqwlRm1#  ",
" .#4nLg,-==-=;;>,,,11111<<11<,,>,,>:;;==*-,gRb4#X ",
"..$5nJf,$$@$%%%==;=;;;;:>::;;;;=;%==%%@@+*,gEN5#..",
".X$qMJg,$++@%%&====;;;;;;:;;;;;;;%%%%%@@+&,kQN5$X ",
"..*5MJg,&$$&%%==;=;>>>>>>>>>>;;;;;==%%%%$&1kTN5$..",
".O$qMJg1&@@%%==;;>>>>><<<<<<<<>>;;;==%%%$=,kTN5$o.",
".X*qMJg1&$%===;;>>><<<<2222<<<<>>>;;;%=%$=2kWNq$O ",
".O&qnJg1=&%==;;>><<222362622222<<>;;;==%&*1kWNq*o.",
".o&qBJk1=&==;;>><<22667777666622<<>>;;==*=1kTMq*o.",
"Xo&qBJk2;===;>><<22678888888866222<>;;====3lTNw&o.",
"Xo*qBLk3;=;;;><<268688999999887762<<>;;=%;2lQMq*+.",
"XO-wBLk4;=;;><<26688999000099988622<<>>;;;2lQMq&+X",
"Xo=qBJk3;=;>><22768900000ii009988622<>;;;:6lQMw*oX",
"X+=wBJk3;;;>><2688900iiiipiii0998762<>>;;:7lTNw&oo",
"Xo-wBJl3;;;,<<378890iippapppii0998622<>;;>5lQMw-+o",
"o#-wBLk7>;>><<67890iiiaaaaaapii988662<>>;>7lQMw=+X",
"X+-wBJk5,;>>2277890iiaassssaaii098862<>>;>7lQMw=+o",
"o#-wBJl3>;>><278990ipaasvvsaapii98862<>>;,7xWBw*+X",
"o+-wBJl7>;>>2277990ipahvvvvsapi09988<<<>;:7l~Vq-+X",
"o+-wBJk5,;>>1277990iiahjvvssapi099822<>>;>ql~Vw-oo",
"X#-wVLl3;;><<268990ippahvssappi098822<>>;>ql~Vw-+X",
"X#&eVLk7,;;><237890iipphasappii098762<<;;,7l!Nw=+X",
"Xo-qBLk3>;;><<2789990ippppppii999862<<>;;>7l~Vw=+X",
"XO-wBLk3;;;>>226889900iipipii9998822<<>;;:3l~Vq=+X",
"X+=wMLk5:;;><<<22899000iiii009996622<>:;=:ql!N7=oX",
"Xo*wVLk3;==;>><26689999009009888622<>>;;=:6k!Vq=+X",
"Xo&qBJk3===;>><<266788998998888822<<>;;;%;3k~mw&oX",
"Xo*qVLk2-&=;;>><<226788888888822<<<>;;;=%;3k~Nw&o.",
".o&qMLk1=&=;;;>>>222667777766222<<>>;;====2l!V5&o.",
".o*qNLg1=*%=;;;;><<22227272322<<<>>;;==%%=1kRNq$o.",
".X*5MJg2=@%===;;>><><22222<<<<<>>>;;==%%$=1kRmq&X.",
".o$qMJk,&@@&%==;;>>>>>><<<<<><>>;;;;=%%@$&1kRN5$X.",
" X$5nJg,&@@%%=%==;;;>;>>>>>>>;>;;;=%%%@@@$1g!N5$..",
".X*5nLg,$#@@%%%%==;;;;;;;>;;;;;==%%%%%@@$$1k!N4$X ",
" X$5NJg,&#$$%&&&===;;;=;;;=;=;;===&*&&$#@$,kRN4$..",
" X$5mJg,----:;,>,111112213122<111,,,::;---,kRm4$  ",
" .#4mHzwweeewtwttttyyyyyyyyttytyyrtewweeeeecTb4#  ",
"  O,xYSNVVVCBVCVCZZVZZZZZZCCCCCCZVCBBVBVVVVSPz,O  ",
"  O*eNFHJHKKJJJJJJJJLLJLLLJJJJLLJKJJJJHHHHGDbw*X  ",
"  .O-5uuudddddddddfffffffffffffffddfddduuuuu5-O.  ",
"   .O#**---:::,:,,,,,,,,,,,,,,,,,::::::---**#O    ",
"    .XXXoooooO#######$$#$$#$#$@++###OOOOXOXX ..   ",
"          XX.XXXXoOXooooooooooXoXoXXXX....        ",
"           .. .X.X.XX.XXXXXXXXXXX..... . .        "
};
