/* XPM */
static char *fc8713a05e1446e7af37294d82932561u9g66IhZbn3IDXdF[] = {
/* columns rows colors chars-per-pixel */
"64 64 171 2 ",
"   c #622F00",
".  c #616905",
"X  c #6A3748",
"o  c #4E006F",
"O  c #5A006B",
"+  c #520073",
"@  c #500079",
"#  c #5A007C",
"$  c #620062",
"%  c #6E006E",
"&  c #76007E",
"*  c #841E00",
"=  c #842F00",
"-  c #9E5A00",
";  c #AB7800",
":  c #CD5600",
">  c #CD6700",
",  c #CD7800",
"<  c #CD5623",
"1  c #CD5634",
"2  c #BF267B",
"3  c #A16E7F",
"4  c #CD5645",
"5  c #839600",
"6  c #8A921A",
"7  c #A4AC00",
"8  c #D69200",
"9  c #D6A300",
"0  c #D6813D",
"q  c #FF9821",
"w  c #FFA921",
"e  c #EDBA21",
"r  c #FFBA21",
"t  c #FFA932",
"y  c #B1C218",
"u  c #C1C617",
"i  c #F8C219",
"p  c #FFC528",
"a  c #D6E127",
"s  c #E7EB3B",
"d  c #EDFD37",
"f  c #ECFC3E",
"g  c #FFF73C",
"h  c #F3FF3D",
"j  c #FF9865",
"k  c #FF9876",
"l  c #C3CB50",
"z  c #E7E742",
"x  c #EDFE41",
"c  c #EDFD4A",
"v  c #F2FF45",
"b  c #F9FF44",
"n  c #FFF74D",
"m  c #F5FF4B",
"M  c #F8FF4B",
"N  c #ECFC50",
"B  c #F6FF53",
"V  c #FDFB51",
"C  c #F6FF5C",
"Z  c #F9FF5B",
"A  c #FFE16A",
"S  c #FFFA61",
"D  c #FFF26A",
"F  c #FFFF6A",
"G  c #FFF27B",
"H  c #510084",
"J  c #620084",
"K  c #6C018D",
"L  c #6E0090",
"P  c #740995",
"I  c #7A00A3",
"U  c #7F00B2",
"Y  c #841E84",
"T  c #92009A",
"R  c #8206A4",
"E  c #8700A9",
"W  c #9500A3",
"Q  c #8100B3",
"!  c #8C00BF",
"~  c #9200B4",
"^  c #9B02BD",
"/  c #AD00AD",
"(  c #AE00B6",
")  c #AE01BF",
"_  c #BF01BF",
"`  c #AE15BF",
"'  c #BF15BF",
"]  c #BF26BF",
"[  c #D013B8",
"{  c #9A01CD",
"}  c #9E05D1",
"|  c #A40CC6",
" . c #AB00CD",
".. c #BD00CD",
"X. c #A812C9",
"o. c #A300D6",
"O. c #AD02D4",
"+. c #AF0AD0",
"@. c #A302DB",
"#. c #AC00DE",
"$. c #A509DF",
"%. c #B400D6",
"&. c #B40AD6",
"*. c #AF16D1",
"=. c #AB00E5",
"-. c #B200E3",
";. c #B605E6",
":. c #B803EA",
">. c #BD05F4",
",. c #CD07D9",
"<. c #CF09DF",
"1. c #D40AD4",
"2. c #C310D1",
"3. c #D61BD6",
"4. c #DC11DE",
"5. c #CD23CD",
"6. c #DE21D6",
"7. c #DD21DD",
"8. c #DE29DE",
"9. c #EA2FD9",
"0. c #C300E5",
"q. c #DE11E6",
"w. c #D913EA",
"e. c #C303F5",
"r. c #CC0BFD",
"t. c #D509F7",
"y. c #D709FF",
"u. c #CE11FC",
"i. c #D515FF",
"p. c #DE18FF",
"a. c #E213E2",
"s. c #E418E4",
"d. c #E21CEB",
"f. c #E91DE9",
"g. c #E31DF3",
"h. c #E91AF1",
"j. c #E519FF",
"k. c #EA1DFF",
"l. c #DE20E6",
"z. c #CA23F6",
"x. c #D83DFF",
"c. c #E620E6",
"v. c #E620EF",
"b. c #ED21ED",
"n. c #EA2FEA",
"m. c #EC22FF",
"M. c #E429FF",
"N. c #F33CF3",
"B. c #EA40D9",
"V. c #CD67CD",
"C. c #EC4AFF",
"Z. c #FF42FF",
"A. c #FF50FF",
"S. c #FF63FF",
"D. c #FF6CFF",
"F. c #FF73FF",
"G. c #FF9887",
"H. c #FFE9A5",
"J. c #FFE1AE",
"K. c #FFE1BF",
"L. c #FF84D9",
"P. c #FF84FF",
"I. c #FF8CFF",
"U. c #FFADFF",
"Y. c #FFB7FF",
"T. c #FFE1D0",
"R. c #FFC8FF",
"E. c #FFD9FF",
"W. c #FFEAFF",
"Q. c #FFF1FF",
"!. c #FFFCFF",
/* pixels */
"=.=.=.=.#.#.%.O.=.$.#.#.=.=.=.=.#.#.#.#.#.#.#.#.=.=.=.=.=.=.=.=.=.=.=.=.=.=.=.=.=.=.=.=.=.=.=.=.=.=.=.=.-.#.-.#.-.-.e.i.y.>.=.=.",
"=.=.=.=.#.=.O.O.$.$.#.#.=.=.=.=.#.#.e.u.u.e.#.O.=.=.=.=.=.=.=.=.=.=.=.=.=.=.=.=.=.=.=.=.=.=.=.=.=.=.=.=.#.=.#.=.-.i.m.m.j.p.r.=.",
"=.=.=.=.#.#.O.O.$.$.#.=.=.=.=.=.2.<.g.g.v.v.w.2.=.=.=.=.=.=.=.=.=.=.=.=.=.=.=.=.=.=.=.=.=.=.=.=.=.=.=.=.-.#.=.#.4.v.v.v.d.d.w.1.",
"=.=.=.=.=.;.F.F.F.x.=.#.=.=.=.=.<.g.g.h.v.v.v.q.=.=.=.=.=.=.=.=.=.=.=.=.=.=.=.=.=.=.=.=.=.=.@.=.=.=.=.=.#.-.#.-.v.d.v.v.g.l.c.w.",
"=.@.#.#.- V V V g g s 8  .) ) ) a.b.f.f.f.f.f.f.=.=.#.#.=.=.=.=.#.=.#.-.=.=.=.=.=.=.=.=.X.R + + H L ^ ^  . . . .f.f.f.f.f.f.f.f.",
"#.#.=.z.V n V V g g g g Y.) ) ) b.f.b.h.f.f.f.f.:.#.#.#.=.=.=.=.-.#.-.#.=.=.#.#.=.=.=.=.| O + o @ H + + J J  . .f.f.f.f.f.f.f.f.",
") ) ) E.x c x x c x x x !.F.` ` f.b.f.f.f.f.f.f.:.#.#.#.=.=.=.=.#.-.#.=.-.-.=.-.=.=.=.=.R # + + @ + + + @ # + K c.l.l.l.f.f.f.f.",
") ) ) E.x x x c c x x f !.!.` ` f.f.f.f.f.f.f.f.:.#.#.#.=.=.=.=.#.=.#.r.k.k.k.e.=.=.=.#.# # + + @ # + + + + # + & ) l.l.f.f.f.f.",
"[ [ [ !.h h f f f f v f x c F.&.f.f.f.s.c.c.f.f.=.=.=.=.=.=.=.=.#.#.<.g.f.f.f.f.-.O.#.O.+ + o o + + + K L L # # % % / f.f.f.f.f.",
"[ [ [ !.h h f f x f x f v x F.&.f.f.f.f.f.f.f.f.>.=.=.=.=.=.=.=.#.#.q.g.f.f.f.f.u.O.=.Q o + o o + + K K R # L L % % 1.f.f.f.f.f.",
"3.9.6.U.h v f f x x x x x v F.&.f.f.f.f.f.f.f.f.:.=.=.=.=.=.=.=.#.#.w.g.f.f.f.f.u.O.#.Q + + o o K E K ^ { { H { % ' c.f.f.f.f.f.",
"6.3.6.S.h h f f f x x x c x &.&.f.f.f.f.f.f.f.f.;.=.=.=.=.=.=.=.#.#.w.g.f.f.f.f.u.O.#.Q o + J P E E K ` { H H { ' n.c.c.f.f.f.f.",
"f.f.f.4.w D D D v x x v R.R.O.%.f.f.f.f.f.f.f.f.;.#.=.=.=.=.=.=.#.#.q.h.f.f.f.f.j.%. .J o + I I  . .J J H H H *.( c.h.h.f.f.f.f.",
"f.f.f.f.* w D D c v c c R.)  .0.f.f.s.f.f.f.f.f.:.=.=.=.=.=.=.=.#.#.q.h.f.f.f.f.j.%. .J o + I I  . .J J H H E E & w.h.h.f.f.f.f.",
"f.f.f.f.3.3.3.P.R.R.R.N.) )  .k.f.f.f.f.f.f.f.f.:.=.=.=.=.=.=.=.#.#.a.h.f.f.f.f.j.O. .J + + I @ # # # ~ | } E # & ( f.h.f.f.f.f.",
"f.f.f.f.3.3.3.3._ _ ..[ ) ) t.k.f.f.f.f.f.f.f.f.:.@.=.=.=.=.=.=.#.#.q.h.f.f.f.f.j.j. .J + o I I # # # ~ H H H # & & W d.f.f.f.f.",
"f.s.f.f.f.f.f.f.f.f.f.a.j.j.f.b.f.f.f.f.f.f.f.f.:.=.=.=.=.=.=.=.#.#.q.h.f.f.f.f.f.f.w.T O O O W X X 3 3 6 6 . .     $ b.f.f.f.f.",
"f.f.f.f.f.s.f.f.f.f.f.f.j.j.b.f.f.f.f.f.f.f.f.f.;.#.=.=.=.=.=.=.#.#.q.h.f.f.f.f.f.b.d.d.O W 2.2.X 3 3 3 6 6 6 6 ;   / b.f.f.f.f.",
"f.f.f.f.f.f.f.f.k.k.m.y.j.j.f.b.f.f.f.f.f.f.f.f.:.#.=.=.=.=.=.=.#.#.q.h.f.f.f.f.f.f.c.l.n.n.n.n.N y 5 5 6 6 6 6 ; e b.b.f.f.f.f.",
"f.f.f.f.f.f.f.f.k.y.=.-.:.:.a.f.f.f.f.f.f.f.f.f.;.=.=.=.=.=.=.=.#.#.q.h.f.f.f.f.f.b.w.l.n.n.n.Y.N N 5 5 6 6 6 l e F D.b.f.f.f.f.",
"f.f.f.f.f.f.b.b.u.#.=.=.#.#.* t L.2 f.f.f.f.f.s.:.#.=.=.=.=.=.=.#.#.a.h.f.f.f.f.f.b.f.h.7.7.8 V c x 5 5 u 7 5 b m v J.< f.f.f.f.",
"f.f.f.f.f.f.f.f.:.#.=.=.=.#.t G !.F.f.f.f.f.f.f.:.#.=.=.=.=.=.=.#.#.q.h.f.f.f.f.f.f.f.f.7.7.M V m x a 5 u M b h m M J.j f.f.f.f.",
"f.f.f.f.h.f.b.a.#.#.=.=.#.@.G G !.L.f.f.f.f.f.f.:.#.=.=.=.=.=.=.#.#.q.h.f.f.f.f.b.b.b.b.7.Z.V n v v v b M M h b m m J.j c.s.f.f.",
"f.f.f.f.f.f.b.a.#.#.=.=.#.o.t G L.2 f.f.f.f.f.f.:.=.=.=.=.=.=.=.#.-.q.h.f.f.f.f.b.f.Z.S.D.D.n n v m b b M M v h m m J.j f.f.f.f.",
"f.f.f.f.f.f.f.f.%.#.=.#.O.=.#.#.6.f.f.f.b.b.b.b. .) ) ) o. . . .%. .t.k.B.B.B.B.e V m m v v v v v v v v c m h h V V !.P.f.f.f.f.",
"f.f.f.f.f.f.f.f.r.#.#.=.#.#.#.u.c.c.f.f.h.f.b.D.R.R.R.R.I.N. . . .%.t.k.B.B.R.R.V V m v v v M v x v v M B m h h V B !.] f.f.f.f.",
"f.f.f.f.f.f.f.f.k.0.%. .-.#.y.k.f.f.f.f.: : A A m m v M N n n a 0 0 0 0 s V V m V V v v v h h h c N C C V c h h V N F.] f.f.f.f.",
"f.f.f.f.f.f.f.f.k.k.k.t.y.k.k.k.f.f.f.s.q A A A m m v M V V V V H.H.H.H.V V V V V V v v h h h h N C C C B m f f V s ] ] f.f.f.f.",
"f.f.f.f.f.f.s.f.f.f.f.f.f.f.f.f.s.s.< j h v v v v v v v v v v v h b h b x v v v h h h v v x x v m m D D n n n N Y.8.f.f.f.f.f.f.",
"f.f.f.s.f.f.f.f.f.f.f.f.f.f.f.f.s.s.< J.v v b v v M M v v M v v b h b b m c v v h h h h v v v M m M D D n n p 8 8.c.f.f.f.f.f.f.",
"f.f.f.f.f.f.f.f.f.f.f.f.f.f.f.c.s.s.H.J.h h h h m c B B M M M v x v v v B B V m v f x x v x v v m m D w D. .m.m.8.8.f.f.f.c.f.f.",
"f.f.f.f.f.f.f.f.f.f.f.f.f.f.f.s.s.A.J.J.h h h v m B B B M M v v x v M M B B B c x f v v M m v v m B D *  . .m.m.8.8.f.f.f.c.s.f.",
"f.f.f.f.f.f.f.f.f.f.f.f.f.f.f.f.4 G.h h v x v f C N C C m x v v v v B B B M v x x x x x B C m v x v !.' 1.d.f.f.f.f.f.f.f.f.f.f.",
"f.f.f.f.f.f.f.f.f.f.f.f.f.f.f.f.4 T.g h v v h v B B C B x f x f f x B B B B f x x x v M C B m v v c !.*.f.f.f.f.f.f.s.f.f.f.f.f.",
"f.f.f.f.f.f.f.f.s.c.f.f.f.f.f.f.4 T.h g x v v v f v M x x x f v x x m c m v x x N N Z C B C M v x x !.[ f.f.f.f.f.f.f.f.s.f.f.f.",
"f.f.f.f.f.f.f.f.f.c.f.f.f.f.f.f.G.T.h h M M Z x f x f x x f v M v f c c c c v f c Z Z C C N x x x x !.' f.f.f.f.f.f.f.f.c.f.f.f.",
"k k 1 1 f.b.f.b.f.f.f.f.f.f.] ] b v v v C B B m f f x x c N C C B m f f f f f f x m B B m v v x m m U.5.f.f.f.f.f.b.f.b.[ ' F.F.",
"K.K.K.K.N.f.f.f.f.f.f.f.f.f.] P.v v x M N C B c f f x x c C C Z B c f f f f f f c c B B x x v v m m Y.5.f.f.f.f.f.f.f.c.F.!.!.!.",
"m m M v !.F.' ' f.f.f.f.f.f.] !.v v M M C B B x f f x M Z Z C Z c c f f N C N B x x v x x v v v m m S.5.f.f.f.d.] ] P.!.m m c m ",
"m m m m !.!.F.' f.f.f.f.f.4.P.!.v v M M B C c c f f f M C Z Z N c c f f N C C C v x f f x v x M m m S.5.f.f.f.f.] P.!.!.m m m m ",
"v x M v M m V - f.f.f.f.2.F.m m v v v M M f x x x x x x B B B c f h c c C C C C N x f x c m M v m v B.B.9.9.9.9.s x v n m v v v ",
"v v v v m m n i f.f.f.f.' !.m m M v v M f x x f x v x v m m c c f f c B C S C C c c f x B m M M m M B.B.9.9.9.Y.v v m v x x v x ",
"m M v v M M V V S.7.7.7.F.!.b v M v v x x x f x V B c c f f f f x x m V B B B x f f f f B B v M m m 9.B.- p S S M v x f f f v v ",
"m M M v v M V V U.7.l.7.!.!.v M M x x x f x v m B M B c f f f f x x m B V B x c f f f f B B M M m m R.R.S S S S M x x x x f c M ",
"B B h h v v v M D > ] P.v v x M f f x f N N C S B B v f x x N c c c f M M f f f x x x x v v v v b h v x B B B B c x x x c N S C ",
"B m h h M v v v D w ] P.v v M M d f x x B C C C B c f f x x B C B c f f f f f f c v x x v x x v h h v m B B m B x f x x B C C C ",
"m c h h v v M v D D ] !.M v M v h h x x C C C C x c x f x x C Z B m f f x x f c C Z B B h h h h h h v v B m c c f f f f C C C C ",
"x c h b v M v v D D ] !.v v x v h d x c N C C C c c x x v M B C B m f f f v v M C C C N h h v h h b x v B B c c f f x c N C C C ",
"h h x v M v v M V n - V v M v v c c m c f x x f x x x v C C B C M v x f x M Z C B B v v F F F r V.Q.x x v f x x c c B c f f x x ",
"f h v M v v v v V i - B v v v v v B B B v x f x x f f M C C C C x f x x x v B Z B m x v F F ,   Y V.v c x x f x c B B B v x x f ",
"h d x v M v v v !.F.X.!.v v v x Z C C C v f x x x x f x v M M x f x x x f v Z C m c v x !.F.[ ' Y V.x v x f f v B Z C B v f x x ",
"h b v v v v M v F.[ [ !.v v M M C B Z N f x f v v x v x x x f x x f x v f x N N c m v v F.' *.[ Y V.x c f f M M Z Z Z c f v f v ",
"M M m m F F F r 6.6.6.U.M m m m B B v x x x N N C C C f x x x x c c B B v v h h S S S p f.b.j.#.} x.D D h f B B B V h h h h V Z ",
"m v m m F r = = 6.6.6.S.m m m m B m x x x v c Z C S C f f x x x x B B B m v h v S S p - b.f.p.=.} } D D d h B B B m h h h h Z V ",
"D D D D A.o.o.i.c.c.c.1.V n V V m c f x f v C Z C C F f x x x v m B m B x v h h Y.Y.n.n.f.f.p.#.} } w D h h m c m c h h h v V V ",
"> > * * o.o.o.i.c.c.c.1.8 V V V c c v f v M Z C C C f f f x x m B m B m v v h h Y.n.n.n.f.f.p.#.} } = D h h c m c m v h h v z u ",
"=.@.=.=.#.#.#.u.f.f.h.a.) W.D D h h h h m c B B M x x x v c c v D D D D E.E.S.M.f.f.f.f.d.d.j.=.=.=.} x.g g g g V V V V W.D.^ ) ",
"=.=.=.=.#.#.#.e.b.f.f.h.) S.D D h b h h c m B B f v x v x x v x D w > = ) ) %.M.f.f.f.f.d.d.r.=.@.=.$.@.; g g d V V M 9 ^ { ^ ^ ",
"=.=.=.=.#.#.#.#.g.h.g.g.) ) w D v v v v x v v x v v v v V V n 8 =.o.@.#.) ) %.%.f.f.f.f.v.d.>.@.#.#.$.} ! C.E.E.W.S.) ) -.#.$.#.",
"=.=.=.=.=.#.=.=.2.<.<.<.) ) * w v v M v m v v v v x v M V V V 8 #.=.#.#.) ) %.%.1.f.f.f.d.,.=.=.#.=.} } ! ! { { | ) ) ) =.#.=.-.",
"=.=.=.#.=.=.=.=.#.@.#.@.;.#.@.{ w D D D v c v c v v M M M M M x O.&.=.=.=.=.=.=.) ) _ _ +.+.#.#.=.=.=.=.=.=.=.=.=.=.=.=.=.=.=.=.",
"=.=.#.#.=.=.=.=.#.U U U { o.&.@.* * w D x x x x x m M M m v M M z.@.=.=.=.=.=.=.) ) S.W.+.+.#.#.=.=.=.=.=.=.=.=.=.=.=.=.=.=.=.=.",
"=.=.#.#.=.=.=.=.^ o + + o o K R ^ ^ ^ ^ X.*.| | M M M M v x M v z.+.=.=.=.=.=.=.) Z.W.W.D.+.#.#.=.=.=.=.=.=.=.=.=.=.=.=.=.=.=.=.",
"=.=.#.>.=.=.=.=.o + + @ o o o o o o ^ { | | | ^ s v M M v x M s +.$.=.=.=.=.=.=.) R.W.W.W.+.#.=.=.=.=.=.=.=.=.=.=.=.=.=.=.=.=.=."
};
