/* XPM */
static char *_fbaed2506674c48920fc232316c459eqGy49wfo9Pxjvvbg[] = {
/* columns rows colors chars-per-pixel */
"64 64 5 1 ",
"  c #222222",
". c gray20",
"X c #444444",
"o c #555555",
"O c gray40",
/* pixels */
"XXXXXooooooooooooooooooooooooooOOooooooooooooooooooooooooooooooo",
"XXXXXooooooooooooooooooooooooooooooooooooooooooooooooooooooooooo",
"oXXXXooooooooooooooooooooooooooooooooooooooooooooooooooooooooooo",
"ooXXXooooooooooooooooooooooooooooooooooooooooooooooooooooooooooo",
"ooooXXoooooooooooooooooooooooooooooooooooooooooooooooooooooooooo",
"ooooooooooooooooooooooooooooooooooooooooooooooooooXXXXoooXXXXooo",
"ooooooooooooooooooooooooooooooooooooooXoooooooooooXXXXoooooXXXoo",
"ooooooooooooooooooooooooooooooooooooXXXXooooooooooXXXXoooooXXXXX",
"ooooooooooooooooooooooooooooooooooooXXXXoXooooooooXXXXooooXXXXXX",
"XXXXXXXXXXXXXXXXXXXoooooooooooooooooXXXXXXoXXooooXXXXXXXooXXXXXX",
"XXXXXXXXXXXXXXXXXXXXoooooooooooooooXXXXXXXXXXXoooXXXXXXooooXXXXX",
"XXXXXXXXXXXXXXXXXXXXooooooooooooooooXXXXXXXXXXoooXXXXXXooooXXXXX",
"XXXXXXXXXXXXXXXXXXXXXooooooooooooooooXXXXXXXXXoooXXXXXXooooXXXXX",
"XXXXXXXXXXXXXXXXXXXXXXXXXXXXXooooooXXXXXXXXXXXXXXXXXXXXoooXXXXXX",
"XXXXXXXXXXXXXXXXXXXXXXXXXXXXXXoooooXXXXXXXXXXXXXXXXXXXooooXXXXXX",
"XXXXXXXXXXXXXXXXXXXXXXXXXXXXXXoooooXXXXXXXXXXXXXXXXXXXooooXXXXXX",
"XXXXXXXXXXXXXXXXXXXXXXXXXXXXXXooooXXXXXXXXXXXXXXXXXXXXXoooXXXXXX",
"XXXXXXXXXXXXXXXXXXXXXXXXXXXXXXXoooXXXXXXXXXXXXXXXXXXXXXXXXXXXXXX",
"XXXXXXXXXXXXXXXXXXXXXXXXXXXXXXXXXoXXXXXXXXXXXXXXXXXXXXXXXXXXXXXX",
"XXXXXXXXXXXXXXXXXXXXXXXXXXXXXXXXXXXXXXXXXXXXXXXXXXXXXXXXXXXXXXXX",
"XXXXXXXXXXXXXXXXXXXXXXXXXXXXXXXXXXXXXXXXXXXXXXXXXXXXXXXXXXXXXXXX",
"XXXXXXXXXXXXXXXXXXXXXXXXXXXXXXXXXXXXXXXXXXXXXXXXXXXXXXXXXXXXXXXX",
"XXXXXXXXXXXXXXXXXXXXXXXXXXXXXXXXXXXXXXXXXXXXXXXXXXXXXXXXXXXXXXXX",
"XXXXXXXXXXXXXXXXXXXXXXXXXXXXXXXXXXXXXXXXXXXXXXXXXXXXXXXXXXXXXXXX",
"XXXXXXXXXXXXXXXXXXXXXXXXXXXXXXXXXXXXXXXXXXXXXXXXXXXXXXXXXXXXXXXX",
"XXXXXXXXXXXXXXXXXXXXXXXXXXXXXXXXXXXXXX.XXXXXXXXXXXXXXXXXXXXXXXXX",
"XXXXXXXXXXXXXXXXXXXXXXXXXXXXXXXXXXXXXX..XXXXXXXXXXXXXXXXXXXXXXXX",
"XXXXXXXXXXXXXXXXXXXXXXXXXXXXXXXXXX.................XXXXXXXXXXXXX",
"XXXXXXXXXXXXXXXXXXXXXXXXXXXXXXXXXX.................XXXXXXXXXXXXX",
"XXXXXXXXXXXXXXXXXXXXXXXXXXXXXXXXXX..................XXXXXXXXXXXX",
".....XXXXXXXXXXXXX....XXXXXXXXXXXX..................XXXXXXXXXXXX",
"....XXXXXXXXXXXXXX....XXXXX.XXXXXX...................XXXXXXXXXXX",
"....XXXXXXXX.XXXXX....XXXXX..XXXXX....................XXXXXXXXXX",
".....XXXXXX..XXXXX.....XXXXX.XXXXX.....................XXXXXXXXX",
"......XXXXX..XXXXX.....XXXX..XXXXX.....................XXXXXXXXX",
"......XXXXX..XXXXX......................................XXXXXXXX",
"...................................................X....XXXXXXXX",
"...............................................XX........XXXXXXX",
"................................................................",
"................................................................",
"................................................................",
"................................................................",
"................................................................",
"................................................................",
"................................................................",
".............................. .................................",
"................................................................",
"............................    ................................",
"...........................     ................................",
"............................    ................................",
"............................    ................................",
".............................    ...............................",
".............................    ...............................",
".............................    ...............................",
".............................     ......................   .. ..",
"..............................    .............   ......       .",
".......... ............ .....      ...........    ......        ",
"........ . ................. ..   ...........     .....        .",
"  .     .   .......                 .........     .....         ",
"            .......                 ........      ....          ",
"            .......                 ........      ..            ",
"            ......                    ......                    ",
"            ......                      ...                     ",
"            ......                        .                     "
};
